<?xml version="1.0" encoding="utf-8"?>
<!-- Generator: Adobe Illustrator 28.3.0, SVG Export Plug-In . SVG Version: 6.00 Build 0)  -->
<svg version="1.1" id="Layer_2_00000020395780619597532370000012173400082096156607_"
	 xmlns="http://www.w3.org/2000/svg" xmlns:xlink="http://www.w3.org/1999/xlink" x="0px" y="0px" viewBox="0 0 1724.6 2559.2"
	 style="enable-background:new 0 0 1724.6 2559.2;" xml:space="preserve">
<style type="text/css">
	.st0{opacity:0.38;fill:#C77161;enable-background:new    ;}
	.st1{fill:#00B1DC;stroke:#231F20;stroke-width:4.6;stroke-miterlimit:10;}
	.st2{fill:#FFFFFF;stroke:#231F20;stroke-miterlimit:10;}
	.st3{fill:#0A0203;stroke:#231F20;stroke-miterlimit:10;}
	.st4{fill:#A1CF6D;stroke:#231F20;stroke-width:4.6;stroke-miterlimit:10;}
	.st5{fill:none;stroke:#231F20;stroke-miterlimit:10;}
	.st6{opacity:0.15;fill:#00B1DC;enable-background:new    ;}
	.st7{fill:#005BA7;}
	.st8{fill:#FFFFFF;}
</style>
<path class="st0" d="M1700.7,1622c-59.3-54.6-253.3-158.5-482-158.5c-336.2,0-446.3,169.4-842.1,161.1
	c-269.5-5.7-349.4-101-372.9-162.6v-112.7H0v927.5c197.7-262.2,511.6-431.6,865.1-431.6c350.3,0,661.7,166.3,859.5,424.4v-623.1
	L1700.7,1622z"/>
<g>
	<g>
		<path class="st1" d="M1590.3,1831.9c-11.1-9-22.5-18.7-34.2-28.2c0.4,0.3,0.9,0.5,1.3,0.8c-29.1-23.1-59.9-46.2-94.8-56
			c0.9-0.2-247.7-83.4-372.1-85.1c-380.7-8.6-883,161.7-1087.7,505.4c-0.3,0.4-0.6,0.8-0.9,1.3v201.3H0v187.9h1724.6v-498.4
			C1690.4,1967.5,1646.5,1883.8,1590.3,1831.9z"/>
	</g>
	<g>
		<path class="st2" d="M1276.4,2336c-0.1,13.6-0.9,27.2-3.4,40.6c-1.9,3.9-1.9,8.2-3.8,12.2c-9.3,18.9-38.1,24.2-53.7,15.4
			c-2.4-1.4-4.2-3.4-5.5-5.8c-5.3-9.6-11.3-18.8-15.1-29.1c-2.2-6.1-6.9-10.8-8.3-17.6c-0.8-4.1-2.1-8.1-2.5-12.4
			c-1.2-15.1-1.4-30.4,3.3-44.6c3.4-10.2,6.4-22.4,17.4-27.7c7-3.4,13.8-8.3,22.8-7.6c8.2,0.6,14.8,3.9,21,8.7
			c14.3,11.2,20.9,26.7,24.1,43.9C1274.1,2320,1275.1,2328,1276.4,2336L1276.4,2336z"/>
		<g>
			<g>
				<g>
					<path class="st3" d="M1264.6,2537.3c-1.1-21.6-0.7-42.8,3.8-63.9c1.3-6.4,0.5-12.8,2.1-19.2c6.4-25,19.9-101.3,15.7-126.9
						c0,0,0,0,0,0c0.2-4.9-3.1-9.5-2.7-14.4c0.4-5.8-1.1-11.2-2.9-16.6c-1.4-4.7-1.5-9.9-5.3-13.6c-5.6-7.8-12-14.5-20.2-19.6
						c-4.3-2.7-7.8-6.5-11.2-10.4c-9.6-11.2-21.6-15.5-36.2-12.8c-7.6,1.5-15,4.3-22.8,5.2c-27.3,3.3-49,17.3-67.2,36.9
						c-5.8,6.2-10.3,13.8-10.8,22.9c-6.6,14-11.7,28.7-17.3,43.1c-8.3,21.4-16.2,43.1-22.6,65.2c-5.4,11.9-9.2,24.3-12.2,37
						c-1.4,6-2.7,12.1-4.1,18.1c-3.8,16.5-6.4,33.2-5.2,50.3c0.4,2.7,0.4,5.4,0.2,8.1c-0.8,10.9-1.1,21.7-0.9,32.5h220.6
						C1265.2,2551.9,1265,2544.6,1264.6,2537.3z M1227.2,2405.7c-9.1-1-16.3-5.5-19.6-14.7c-1.1-3.1-3-5.7-4.5-8.6
						c-9.9-19.1-20-38-17.8-61c1.5-15.9,4.9-30.8,12.7-44.6c4.8-8.5,21.1-15.7,30.7-14.1c17.2,2.8,26.9,14.5,34.4,28.9
						c6.8,13.2,7.7,27.7,10.4,41.9c-10,14.3-4.3,48.1-4.9,50.1C1263.6,2402.4,1241.3,2407.3,1227.2,2405.7z"/>
				</g>
				<path class="st3" d="M608.4,2559.1c2.9-5.6,6.4-11,7.4-17.6c1.1-6.7,2.2-13.4,4.4-20c1-3.2,4.3-5.4,3.9-9
					c-1.1-10.8,6.9-20.4,4.3-31.4c-0.2-0.7-0.2-1,0.5-1.3c5.2-2,4.1-6.8,4.9-10.8c1.7-8.4,2.7-17,5.1-25.1
					c6.8-22.9,10.8-45.8,10.9-70c0-17.1,1.9-34.1-2.7-50.9c-1.5-5.7,0.6-11,0.5-16.3c-0.2-5.1,0.4-9.6,1.4-14.4
					c1.3-5.8,1.4-11.8-1.6-17.1c-5.7-10-8.7-20.9-12.2-31.6c-6.8-20.8-19.8-35.8-39.1-45.5c-5.5-2.8-11.3-4.8-17-7.2
					c-1.1,0.3-1.5-0.3-1.7-1.2c-6.9-5.5-15.8-4.9-23.6-5.8c-11-1.3-22.5,0.7-33.6,2.5c-21.2,3.5-40.2,10.6-56.2,27
					c-14.4,14.7-26.4,30.1-34,49c-2.7,6-5.5,12-8.3,18c-0.4,0.7-1,1.3-1.1,2.1c0.1,0.6-0.1,1-0.6,1.2c-5.9,5.8-6.3,14.3-10.3,20.9
					c-4.2,12.6-4.8,25.8-6,38.9c-1.1,14.2-7.6,28.1-2.6,42.7c0.5,1.3-0.3,3.2-0.7,4.7c-5.8,21.3-10.6,42.8-9.1,65.2
					c0.2,2.2-0.1,4.4-0.2,6.5c-1.7,32.2-4.9,64.4-4.4,96.6L608.4,2559.1C608.4,2559.2,608.4,2559.1,608.4,2559.1z"/>
			</g>
			<path class="st2" d="M621.5,2291.3c0.6,14.2-4.4,27-10.1,39.5c-2.2,4.8-6,8.1-11.5,10.3c-19.4,7.9-35.9,0.8-53-7.4
				c-24.8-11.8-38-33.4-50.2-56.1c-6.2-11.7-4.8-24.1-2.2-36.2c1.8-8.4,8.3-13.1,16.2-16.2c9.5-3.7,18.8-7.9,28-12.2
				c23.9-11.2,60.7,6.7,69.8,31.4c3.3,9,7.8,17.6,10.5,26.8C621.1,2277.9,621.7,2284.6,621.5,2291.3L621.5,2291.3z"/>
		</g>
	</g>
	<g>
		<path class="st4" d="M930.9,2347.8c-15.1-4.8-35.9,3.1-45.1-9.5c-6.2-8.5-18.1,3-27,1.9c-4.4-0.6-13.3,2.1-14.8,2.8
			c-14.6,7.6-31.8,2.5-37.3-10.9c-2-6.6-14.8-0.7-14-11c-4-20.6-1.2-43.5,6.6-64.4c3.5-15.6-4.4-34.5,4.6-48.7
			c11.2-1.6-0.6-8.6,3.2-12.8c12.5-4,9.2-26.3,18.7-26c6.8-0.1,9.8-5.5,13.9-9.2c22.6,4.6,52.8,1.5,68.6,25.1
			c2.4-3.4,4.9-7.3,6.8-0.1c0.4,14.7,19.1,18.9,20,30.1c-0.2,2.8,0.3,4.9,3.9,5.8c14.3,2.9,4.5,24.3,19.8,25.7
			c4.8,3.1,4.7,11.7,12,12.6c3.1,1,3.6,2.6,3.6,5.2c-2.6,9.3,11.7,13.9,5.1,22.1c-4.2,17-0.4,43.1-20.3,51.4
			C955.3,2351.2,943.5,2353.1,930.9,2347.8L930.9,2347.8z"/>
		<g>
			<path class="st4" d="M1590.2,1831.6c0,0-79.2-69.3-127.6-83.1c0,0-24.7-3.4-35.7-0.6c-12,31.2-41.8,58.4-36.2,94.9
				c12.2,27,36.1,47.9,52.5,73.1c97.9,85.6-22.7,191.3,45.1,298.2c20.4,61.7-26.7,117.2-66.7,152.1c-25.6,35.3-12,78.8-25.2,117.4
				c-10.2,6.2-7.9,17.2-12.8,25.6c-14.1,13.1-18.1,32.9-13.7,50h197.9c28.8-15.6,62.1-20.9,92.4-13.5c22.6-13.3,44.1-18.8,64.4-18.2
				V1997C1689.5,1935.6,1645.9,1879.5,1590.2,1831.6z"/>
		</g>
		<path class="st4" d="M1027.2,1766.5c-0.4,7-9.7,7.9-5.9,16.1c0.9,1.8,0.4,4.7-1.9,5.6c-11.3,6.5,7.6,22.4-9.7,25.8
			c-3.9,26.7,18.7,50.9,24.1,76.4c11.6,28.8-12.2,63.2-39,73.4c-5.1,0.6-46.3,18.5-46.3,18.5c-13.2,7.8-32.6-10.3-43.2-15.8
			c-16.7-8.6-21.9-33-31.2-50.5c-15.7-16.6-27.7-42.2-53.8-41.7c-7.8-4.8-18.4-12.2-27.5-7.7c-53.2,0.6-115-92.6-108.4-140.1
			c17.7-43.8,453-110.1,408.3-37.4c0,0,4,8.2-0.3,12.7l0,0c-7.5,6.9-18.5,13.5-27.3,19.6c-5.7,5.1-4,18.1-13.5,17.8
			c-3.4-0.4-3.9,1.8-4.5,4.2C1042.2,1752.5,1034.2,1759.2,1027.2,1766.5L1027.2,1766.5z"/>
		<path class="st4" d="M474,1917.7c-23.5,56.6-3.9,128.3-52.4,174.6c-11.6,13-35.2,6.6-43.5,16.7c-10,8-28.2,12.4-37.9,23.7
			c-47.1,25.2-94.8,76.2-76.5,133.4c9.7,19.9-20.4,33-29,49.2c-24.9,23.3-41.9,57.7-76.7,67.8c-20.1,6.4-25.3-21.5-39.9-28.9
			c-35.8-39.6,38.8-93.5,4.2-137.4c-7.9-19.6-31-37.2-25.5-60.5c22.5-20.6,26.2-55,53.5-71.2c8.6-23.9,32.9-39.4,29.8-66.3
			c13.9-18.2-1.9-52.3,16.7-68.1c97.5-82.7,221.6-141.9,338.3-188.4c18.3-1.8,18.9,20.4,22.6,32.8c-1.2,8.9-15,17.4-22.4,23.6
			c-2.8,0.8-1.8,8.5-5.3,11.6c2.4,3.7,5.1-1.6,7.4,0.8c-1.3,4.9-6.1,3.3-9.1,5c-2.8,1.6-8.5,0.2-7,6.5c-1.7,3.2-9,1.6-9.4,7.7
			C501.5,1873.3,487,1896.1,474,1917.7L474,1917.7z"/>
	</g>
	<path class="st5" d="M968.4,2559.2"/>
	<path class="st5" d="M1590.2,1831.6c0,0-11.9-10.4-29.4-24c-1.6-1.3-3.2-2.6-4.8-3.9c0.4,0.3,0.9,0.5,1.3,0.8
		c-27.1-21.5-55.8-43-87.9-53.7c-2.3-0.9-4.7-1.7-6.9-2.3c0.9-0.2-247.7-83.4-372.1-85.1c-4.2-0.1-8.3-0.1-12.5-0.2
		c-63.5-20.4-278.9,11-361.5,43c-287.8,69.9-572,224.7-713.7,462.6c-9.2,12,4.9,280.1-2.7,293c60.3,70.6,874.8-8.1,889.9,49h834.7
		V1997C1689.5,1935.6,1645.9,1879.5,1590.2,1831.6z"/>
</g>
<g>
	<path class="st6" d="M0,688.1v473.4h3.8V1462c23.5,61.6,103.3,156.9,372.9,162.6c395.8,8.4,505.9-161.1,842.1-161.1
		c228.7,0,422.7,103.9,482,158.5l23.8,24.3V688.1H0z"/>
</g>
<path class="st7" d="M8.4,869.8c36-14,73-23,111-35c241.8-59.1,568.7-28.3,813,41.8c217.2,65.2,482.1,204.8,776.9,102.2
	c9.1-3.2,15.9-16.2,20.9-36.3l-4.2-544.8c-9.1-4.8-25.3-13.4-25.3-13.4l0,0v-290H3.8C8.3,92.7-4.9,884.5,8.4,869.8z"/>
<g>
	<path class="st8" d="M0,0v559.7l29.5,15.5c380,215.7,915.5-153,1168.7-220.2c200.6-53.2,411.9,12.6,507.7,50.2l18.7,9.9V0H0z"/>
</g>
<g>
	<polygon class="st8" points="0,2388.7 0,2444.9 1721.9,2444.9 1722.3,2388.7 	"/>
</g>
<g>
	<rect y="2444.9" class="st7" width="1722.3" height="114.3"/>
</g>
</svg>
