<?xml version="1.0" encoding="UTF-8"?>
<svg id="Layer_2" data-name="Layer 2" xmlns="http://www.w3.org/2000/svg" viewBox="0 0 425.08 422.18">
  <defs>
    <style>
      .cls-1 {
        fill: #414042;
      }

      .cls-1, .cls-2 {
        stroke-width: 0px;
      }

      .cls-3 {
        fill: #91a98e;
        stroke: #414042;
      }

      .cls-3, .cls-4 {
        stroke-miterlimit: 10;
        stroke-width: 4.6px;
      }

      .cls-4 {
        fill: #79a7b6;
        stroke: #231f20;
      }

      .cls-2 {
        fill: #fff;
      }
    </style>
  </defs>
  <g id="Layer_1-2" data-name="Layer 1">
    <g id="poster-1_sad_earth">
      <g>
        <g>
          <path class="cls-4" d="M8.38,268.27c64.03,242.83,394.48,172.71,411.73-60.19C442.82-119.02-58.08-18.31,8.38,268.27Z"/>
          <path class="cls-3" d="M232.44,326.53c5.54,4.43,19.34,7.46,27.53,1.44,2.98,3.07,4.44-5.54,11.07-2.57-.39,3.19,5.01-1.57,5.11,1.84,6.55,1.66,5.01,11.2,8.55,16.08-.18,5.13-4.74,10.84-4.1,14.23-10.11,1.87-22.34,4.92-26.32,13.81-17.87,18.25-19.08-2.03-31.92-5.26-5.06-.55-11.62,1.93-15.82-2.09-8.89-3.36,17.74-37.89,25.88-37.49Z"/>
          <path class="cls-3" d="M325.62,246.09c18.62-18.54,5.29-.24,22.19-4.5,4.4-5.91,15.9-2.03,21.85-8.49,16.38-7.11,22.05,13.21,9.56,21.96-2.9,2.86-.99,5.15-3.68,7.12-1.5,5.18-3.33,10.84-2.71,15.16-2.21,10.35,3.05,14.9-7.65,24.9-5.27,5-13.55,9.44-18.62,3.72-2.27-1.91-5.31,1.01-6.55-2.86-4.35-2.52-13.16-4.86-17.8-2.51-.47,1.86-1.07-.75-2-.71-6.46-1.59-8.02-13.74-4.57-18.35,2.89-9.03,1.38-30.44,9.98-35.44Z"/>
          <path class="cls-3" d="M228.75,147.8c-6.27.38-9.62-3.47-15.13-1.59-6.18,2.34-10.58.52-13.87-4.01.21-11.87.03-27.45,9.86-33.82,13.6-.47,18.33,9.54,25.01,18.2,7.38,4.72,4.81,23.59-5.88,21.21Z"/>
          <path class="cls-3" d="M336.26,57.18c-42.87-100.34,111.54,32.55,82.97,125.22-.69,4.23,2.13,13.49-3.11,14.61-17.91-23.16-44.34-1.93-67.59-4.22-44.46,19.42-21.7-16.47-16.79-41.1,8.4-7.32,18.28-18.96,14-31.91-14.24-22.47,11.06-44.64-9.48-62.59Z"/>
          <path class="cls-3" d="M248.96,25.83c-4.91,8.45-3.32,16.52,1.39,25.98,3.49,19.42-30.36,26.95-33.52,5.38-11.67-13.59-42.14-14.01-39.81-39.77,13.17-11.13,126.39-31.35,71.94,8.4Z"/>
          <path class="cls-3" d="M132.89,57.55c-3.92,22.3-4.28,37.12-28.08,45.1-19.97,6.83-11.56,26.86-22.12,38.33-6.93,7.36-16.1,21.85-24.48,8.16-7.51-8.31,8.13-19.62.88-28.84-14.76-17.45,15.49-29.9,15.6-55.84,25-18.88,109.06-72.12,58.19-6.91Z"/>
          <path class="cls-3" d="M111.47,308.7c13.42,16.1-13.3,38.17,6.96,53.3,6.07,5.69.77,16.33,2.42,21.54,9.82,5.31,13.49,19.69,18.05,29.36-48.87-9.37-151.02-110.72-126.31-152.22,11.76-5.82,41.21-2.81,52.71,7.64,9.41,1,14.24-6.38,24.02-4.97,29.39,1.92,8.74,28.29,22.15,45.35Z"/>
        </g>
        <path class="cls-1" d="M179.71,264.59c-29.98,19.17,11.56-21.72,30.57-13.78,7.62-2.46,40.98,32.28,23.91,29.58-10.13-20.5-35.35-30.32-54.47-15.8Z"/>
      </g>
      <g>
        <g>
          <path class="cls-1" d="M284.12,212.85c-70.68,23.9-8.04-143.07,19.08-68.63-2.54,9.31-2.56-5.23-4.67-8.24-22.18-26.99-19.83,42.89,1.16,19.3.14-.52-1.84-12.06,3.69-11.81,1.06,7.64-2.95,23.21-3.73,30.64-1.56,14.61,2.15,33.3-15.53,38.74Z"/>
          <path class="cls-2" d="M267.28,184.6c9.3,1.15,4.61,19.62-3.22,18.32-10.98-2.1-7.09-18.86,3.22-18.32Z"/>
          <path class="cls-2" d="M301.26,145.33c2.5,19.72-18.03,18.55-19.36.72-3.89-20.72,20.28-21.01,19.36-.72Z"/>
        </g>
        <g>
          <path class="cls-1" d="M114.83,197.24c.45-22.48-.82-46.96,8.82-67.33,8-22.4,41.53-21.71,45.62,2.71,1.91,20.2-1.32,40.78-8.18,59.6-4.78,20.67-42.09,30.36-46.25,5.03Z"/>
          <path class="cls-2" d="M163.83,135.95c.49,26.52-39.7-1.75-23.24-13.84,11.04-8.05,23.54,1.13,23.24,13.84Z"/>
          <path class="cls-2" d="M136.33,198.64c1.44,10.34-12.94,15.42-15.3,3.98-4.11-12.15,14.94-17.32,15.3-3.98Z"/>
        </g>
      </g>
    </g>
  </g>
</svg>