<?xml version="1.0" encoding="UTF-8"?>
<svg id="Layer_2" data-name="Layer 2" xmlns="http://www.w3.org/2000/svg" viewBox="0 0 263.26 216.17">
  <defs>
    <style>
      .cls-1 {
        fill: #231f20;
      }

      .cls-1, .cls-2 {
        stroke-width: 0px;
      }

      .cls-3 {
        fill: #efe77f;
      }

      .cls-3, .cls-4 {
        stroke: #231f20;
        stroke-miterlimit: 10;
        stroke-width: 4.6px;
      }

      .cls-4 {
        fill: #f5ec43;
      }

      .cls-2 {
        fill: #fff;
      }
    </style>
  </defs>
  <g id="Layer_11" data-name="Layer 11">
    <g>
      <g>
        <path class="cls-3" d="M86.04,160.37c-49.85-44.28,14.71-134.17,73.81-107.57,74.14,47.9-3.78,162.31-73.81,107.57Z"/>
        <path class="cls-1" d="M4.51,155.58c.04-.14.19-.42.18-.56,0,.05-.27.52-.08.22.04-.07.07-.15.11-.22.09-.17.19-.33.3-.49.06-.09.13-.18.19-.27.24-.35-.34.39-.02.04.55-.62,1.21-1.47,1.95-1.86-.46.24-.15.11-.02.02.11-.08.22-.16.33-.24.18-.13.36-.26.55-.38.47-.32.96-.62,1.45-.91.91-.53,1.84-1.01,2.79-1.46.14-.07,1.42-.56,1.42-.64,0,.04-.41.17-.08.03.13-.05.26-.11.39-.16.28-.11.56-.22.84-.33.41-.16.83-.31,1.24-.45.21-.07.42-.14.63-.21.17-.05.54-.09.66-.21-.19.19-.56.02-.2.07.07.01.15.01.22.01.16,0,.33.02.5.02.36.01.72.01,1.07,0,.79-.02,1.57-.12,2.35-.23,5.31-.79,9.49-4.27,12.66-8.41s5.21-8.58,7.45-13.05c1.03-2.06,2.08-4.12,3.3-6.08.28-.44.56-.87.86-1.3.13-.19.27-.37.4-.56.12-.16.49-.58-.07.09.08-.1.16-.2.24-.3.57-.7,1.19-1.34,1.88-1.92.31-.26-.05.06-.2.15.09-.06.18-.13.27-.2.16-.11.33-.22.5-.32s.34-.19.51-.28c.09-.05.2-.08.29-.14.05-.03-.64.25-.37.16.06-.02.12-.05.18-.07.36-.13.73-.23,1.11-.3.53-.11-.51.04-.23.03.09,0,.17-.02.26-.02.22-.02.44-.02.66-.01.21,0,.41.05.62.05-.18,0-.68-.11-.26-.03.12.02.24.04.36.07.49.11.95.27,1.42.43s-.47-.21-.16-.07c.13.06.26.12.4.18.25.12.49.24.73.38.56.31,1.1.65,1.62,1.02.26.18.51.37.76.56.24.18-.48-.39-.15-.11.06.05.12.1.18.15.16.13.31.25.47.38.92.77,2.36.97,3.25,0,.78-.85.99-2.43,0-3.25-2.09-1.75-4.45-3.43-7.15-4.06-2.2-.52-4.41-.28-6.42.76s-3.4,2.67-4.68,4.38-2.39,3.72-3.41,5.68c-2.35,4.52-4.41,9.21-7.26,13.45-.35.53-.72,1.04-1.1,1.55-.11.15-.54.64,0,0-.09.1-.16.21-.24.31-.2.25-.41.51-.62.75-.79.92-1.64,1.79-2.57,2.57-.1.08-.19.16-.29.24-.07.06-.15.11-.22.18-.01.01.51-.38.24-.19-.25.18-.5.37-.76.54-.48.32-.97.62-1.48.89-.26.14-.53.27-.8.39-.06.03-.11.05-.17.08-.3.14.31-.13.29-.12-.16.06-.32.13-.48.19-.55.21-1.12.38-1.69.52-.3.07-.61.14-.91.19-.15.03-.3.04-.44.07.79-.19.25-.03,0,0-.66.07-1.33.09-1.99.08-.33,0-.66-.04-.99-.05-.62-.02-1.18.16-1.76.35-.95.31-1.88.66-2.8,1.04-4.1,1.68-8.49,3.82-11.2,7.47-.56.76-1,1.63-1.24,2.54-.31,1.16.39,2.55,1.61,2.83s2.5-.36,2.83-1.61h0Z"/>
        <path class="cls-1" d="M201.29,130.96c.23-.35.47-.7.71-1.04.12-.17.24-.33.36-.5.03-.05.44-.58.12-.17.51-.65,1.04-1.28,1.61-1.88.45-.47.91-.93,1.39-1.37.25-.23.51-.45.77-.66.09-.07.51-.45.05-.05.16-.14.35-.26.52-.38.51-.36,1.03-.69,1.58-1,.22-.12.44-.24.66-.35.13-.07.26-.13.4-.19.09-.04.18-.08.27-.12.23-.1.18-.08-.15.06.21.01.59-.23.8-.3.26-.09.53-.17.8-.25.58-.16,1.16-.24,1.74-.36-.74.16-.01.01.19,0,.27-.02.53-.03.8-.04.58-.01,1.15.01,1.73.07.18.02.6.13-.08-.02.13.03.26.04.39.06.22.04.44.08.65.13.57.12,1.13.28,1.68.47.26.09.51.18.76.28.18.07.48.3-.04-.02.11.07.26.11.38.17.51.23,1,.49,1.48.77s.97.59,1.44.91c.24.17.47.34.7.51.42.31-.41-.33,0,0,.15.12.3.25.45.37.92.78,1.79,1.63,2.59,2.53.41.46.84.93,1.19,1.44-.33-.48.09.13.21.29.22.3.43.61.64.92.73,1.08,1.38,2.21,1.97,3.38.3.6.58,1.2.85,1.81.23.53-.18-.47.03.07.06.16.13.31.19.47.14.37.28.74.41,1.11.21.59.4,1.19.57,1.79.23.81.32,1.83.75,2.56.4.68,1.19,1.21,1.8,1.68.43.33.88.64,1.35.92,2.23,1.35,4.75,2.26,7.23,3.03s5.24,1.44,7.84,2.22c.58.17,1.15.35,1.72.55.26.09.52.19.77.29.07.03.14.06.21.08.37.14-.58-.27-.05-.02.41.19.81.39,1.18.63.07.05.14.1.21.14.29.19-.49-.46-.15-.11.12.12.25.23.36.37.77.93,2.47.86,3.25,0,.91-.99.82-2.26,0-3.25-.89-1.07-2.27-1.67-3.52-2.18-1.39-.57-2.85-.99-4.3-1.39-1.74-.49-3.5-.94-5.23-1.45-.88-.26-1.76-.53-2.63-.83-.42-.14-.83-.29-1.24-.45-.19-.07-.38-.15-.57-.22-.03-.01-.25-.08-.28-.12.32.13.36.15.13.06l-.14-.06c-.89-.39-1.75-.82-2.58-1.33-.37-.23-.72-.48-1.07-.73-.26-.18.45.38.1.07-.08-.07-.17-.14-.25-.21-.18-.15-.35-.32-.52-.48l.59,1.02c-1.59-6.99-5.32-13.94-11.04-18.41-2.6-2.03-5.57-3.65-8.85-4.21-3.46-.59-6.85-.12-10.03,1.36-4.15,1.92-7.35,5.5-9.82,9.25-.66,1.01-.23,2.59.83,3.15,1.15.61,2.44.25,3.15-.83h0Z"/>
        <path class="cls-1" d="M199.27,91.66c2.69-2.86,5.44-5.67,8.39-8.25.55-.48,1.1-.95,1.67-1.41.27-.22.54-.43.8-.64s-.52.39-.04.03c.14-.1.28-.21.42-.31.88-.65,1.79-1.26,2.74-1.8.39-.22.79-.43,1.19-.62.1-.05.19-.09.29-.13.48-.22-.47.18-.21.09.18-.07.37-.15.55-.21.34-.12.69-.23,1.04-.31.15-.03.3-.07.44-.09.08-.01.16-.02.24-.04.36-.07-.77.08-.28.04.3-.02.59-.05.88-.04.14,0,.28,0,.41.02.07,0,.14.01.21.02.44.03-.3,0-.36-.05.12.11.65.12.82.16.27.07.53.15.79.24.12.04.23.09.35.13.55.21-.63-.28-.11-.05.25.11.5.23.75.35.52.26,1.04.54,1.56.82,1.29.69,2.6,1.33,3.97,1.82,3.83,1.36,8.01,1.11,11.91.15,3.15-.77,6.18-2.01,9.11-3.37,4.1-1.91,8.02-4.17,11.84-6.58,1.16-.73,2.32-1.48,3.46-2.24,1-.66,1.52-2.06.83-3.15-.64-1-2.07-1.54-3.15-.83-4.13,2.73-8.36,5.34-12.78,7.59-.85.43-1.71.86-2.58,1.26-.39.18-.79.36-1.19.54-.2.09-.41.18-.61.26-.13.06-.4.16.19-.08-.12.05-.24.1-.35.15-1.42.59-2.87,1.12-4.35,1.56-1.2.36-2.41.66-3.64.86-.25.04-1.26.13-.26.05-.28.02-.56.07-.83.09-.48.04-.97.07-1.45.08-.46,0-.91,0-1.37-.03-.2-.01-.41-.03-.61-.05-.09,0-.19-.02-.28-.03-.56-.06.59.1.18.03-.74-.13-1.48-.28-2.2-.5-.33-.1-.65-.21-.97-.33-.16-.06-.31-.13-.47-.19s.69.3.27.11c-.08-.03-.15-.07-.23-.1-.58-.26-1.14-.55-1.7-.84-1.18-.62-2.34-1.25-3.58-1.75-3.01-1.21-6.1-.72-8.96.65-2.15,1.03-4.09,2.5-5.93,4-2.74,2.23-5.28,4.71-7.75,7.24-.78.8-1.55,1.61-2.32,2.42-.82.88-.94,2.4,0,3.25s2.37.94,3.25,0h0Z"/>
        <path class="cls-1" d="M227.25,2.3c-.02.43-.05.86-.09,1.29-.01.12.01.44-.06.54.02-.03.08-.55,0-.08-.02.12-.04.23-.06.35-.14.8-.32,1.59-.55,2.36-.1.35-.22.7-.34,1.05-.07.18-.13.37-.21.55-.03.08-.06.15-.09.23-.1.27.19-.41,0-.01-.32.71-.66,1.4-1.04,2.07s-.8,1.32-1.24,1.95c-.1.14-.19.27-.29.4-.06.09-.4.54-.22.3s-.16.2-.23.29c-.14.17-.28.34-.43.51-1,1.18-2.09,2.29-3.23,3.35s-2.43,2.14-3.7,3.14c-.16.13-.32.25-.48.38s-.41.31-.09.07c-.35.27-.7.54-1.05.8-.66.5-1.32.99-1.98,1.48-1.32.98-2.65,1.95-3.96,2.94-.97.73-1.99,1.38-2.92,2.18-1.73,1.49-3.15,3.33-4.46,5.18-1.4,1.96-2.66,4.02-3.92,6.07s-2.53,4.14-3.89,6.14c-.33.48-.67.96-1.02,1.43-.17.23-.34.46-.52.69-.09.12.34-.43.06-.08-.1.12-.2.25-.3.37-.67.83-1.38,1.63-2.16,2.36-.36.34-.75.66-1.13.98-.07.06.48-.36.09-.08-.08.06-.17.12-.25.18-.21.14-.42.28-.63.42-.39.24-.81.42-1.21.64-.13.07.58-.22.19-.08-.11.04-.21.08-.31.12-.22.08-.45.15-.68.2-.2.05-.4.09-.6.13-.46.09.33-.03.19-.02-.11,0-.22.02-.33.03-.46.03-.91,0-1.37-.03-.35-.02.62.11.16.02-.12-.02-.24-.04-.36-.07-.24-.05-.49-.11-.73-.18s-.5-.16-.74-.25c-.11-.04-.21-.1-.32-.13.66.18.2.08,0-.01-.55-.26-1.07-.56-1.58-.88-1.02-.64-2.58-.25-3.15.83-.6,1.14-.26,2.46.83,3.15,2.08,1.32,4.53,2.26,7.03,2.16,2.21-.08,4.35-.88,6.13-2.18,3.98-2.89,6.68-7.21,9.23-11.33,1.33-2.14,2.61-4.3,4-6.41.65-.99,1.33-1.95,2.03-2.9.32-.42-.27.34-.03.04.09-.11.17-.22.26-.32.18-.23.37-.45.55-.67.34-.4.69-.79,1.05-1.16s.73-.73,1.12-1.06c.09-.08.18-.16.28-.23.08-.07.43-.34.08-.07s0,0,.09-.06c.11-.08.21-.15.32-.23,1.25-.85,2.44-1.79,3.65-2.68,2.82-2.08,5.66-4.15,8.32-6.44,5.1-4.37,9.55-9.92,10.59-16.75.15-.99.26-1.98.31-2.97.05-1.2-1.1-2.35-2.3-2.3-1.29.06-2.24,1.01-2.3,2.3h0Z"/>
        <path class="cls-1" d="M58.81,8.79c2.17.71,4.33,1.47,6.45,2.31.48.19.95.38,1.43.58.09.04.18.08.28.12-.41-.17-.09-.04,0,0,.24.1.47.2.71.31.84.37,1.67.76,2.49,1.16,1.44.71,2.86,1.47,4.22,2.32.6.37,1.18.76,1.76,1.16.27.19.53.38.8.58.4.3-.32-.26-.01-.01.13.1.26.2.39.31.87.71,1.7,1.48,2.46,2.31.17.19.34.38.5.58.07.09.15.18.22.27.33.4-.23-.32-.06-.08.27.38.55.75.79,1.15.23.37.45.75.65,1.14.1.19.19.38.28.57.04.09.08.18.12.26.14.3-.24-.61-.07-.17.28.74.52,1.48.69,2.25.08.37.15.74.21,1.11.02.1.02.2.04.3-.02-.12-.09-.7-.04-.28.02.18.04.37.06.55.07.72.1,1.45.12,2.17.03,1.4-.02,2.8,0,4.21.07,3.34.77,6.45,2.86,9.12,2.85,3.64,7.6,5.53,11.87,6.88.78.25,1.56.47,2.35.69,1.16.32,2.55-.39,2.83-1.61s-.36-2.49-1.61-2.83c-1.5-.41-2.99-.87-4.46-1.41-.32-.12-.64-.24-.96-.37-.14-.06-.29-.12-.43-.17-.34-.14.48.21-.04-.02-.55-.24-1.09-.49-1.63-.77-.92-.47-1.81-1-2.64-1.61-.16-.12-.51-.44.1.08-.08-.07-.16-.13-.25-.2-.17-.14-.33-.28-.49-.42-.3-.27-.59-.56-.87-.86-.13-.14-.25-.29-.38-.44-.24-.29.06.06.15.2-.05-.08-.12-.16-.17-.24-.21-.29-.4-.59-.57-.9-.08-.15-.16-.3-.24-.46-.03-.07-.07-.14-.1-.22-.18-.38.04.08.1.24-.1-.32-.24-.62-.34-.94s-.18-.64-.24-.96c-.03-.16-.06-.32-.09-.49-.01-.08-.02-.15-.04-.23-.07-.43.02.13.04.28-.06-.67-.13-1.33-.15-2.01-.1-3.05.11-6.08-.47-9.1-.75-3.9-2.96-7.33-5.88-9.97-5.11-4.63-11.73-7.42-18.14-9.71-1.12-.4-2.25-.78-3.38-1.15s-2.56.43-2.83,1.61c-.29,1.26.38,2.43,1.61,2.83h0Z"/>
        <path class="cls-1" d="M173.08,168.1c.22-.21.45-.41.68-.6.39-.33-.43.29,0,.01.12-.08.23-.16.35-.23.19-.12.38-.24.58-.34.11-.06.23-.12.35-.18.57-.27-.34.1.03-.01.43-.13.85-.24,1.28-.34s-.59.03-.15.02c.08,0,.16-.01.23-.02.27-.02.54-.01.81,0,.06,0,.3.06.35.03-.18.1-.59-.1-.21-.03.21.04.42.08.63.13.23.06.46.13.68.2.08.03.15.06.23.08.58.2-.35-.18,0,0,.41.21.81.4,1.2.64.22.13.43.27.64.42.11.07.21.15.31.23.37.27-.38-.31-.05-.04.84.7,1.62,1.45,2.33,2.27.15.18.3.36.45.54s.19.45-.01-.02c.05.11.18.24.25.34.33.46.65.93.95,1.41.57.91,1.07,1.86,1.51,2.84.06.14.21.59-.02-.05.04.13.1.25.15.38.08.21.16.42.24.63.18.49.33.98.47,1.48.13.47.23.95.32,1.44.01.08.02.16.04.23.08.45-.06-.6-.02-.15.02.26.05.52.06.78.02.39,0,.77-.02,1.15-.01.18-.07.6.04-.22-.03.26-.08.5-.07.76.02.49.11.99.18,1.47.32,2.1,1.26,4.11,2.76,5.64,2.79,2.84,6.96,3.61,10.74,4.16,2.15.31,4.31.55,6.43,1.05.5.12,1,.25,1.49.4.26.08.51.16.76.26.11.04.21.08.32.12.51.19-.23-.11-.08-.04.43.21.86.4,1.27.65.2.12.39.25.58.38.25.17.15.28-.12-.1.07.1.23.19.33.27.91.79,2.37.96,3.25,0,.8-.87.97-2.41,0-3.25-3.15-2.75-7.36-3.38-11.36-3.94-1.93-.27-3.88-.52-5.77-.99-.46-.11-.91-.24-1.36-.38-.22-.07-.43-.15-.65-.23-.07-.03-.14-.05-.21-.08-.56-.21.39.19.03.02-.4-.19-.79-.37-1.17-.6-.15-.09-.31-.19-.45-.29-.09-.06-.17-.13-.26-.18-.32-.21.48.41.05.03-.32-.29-.62-.58-.91-.9-.37-.41.28.43-.04-.05-.14-.22-.29-.43-.41-.66-.04-.07-.26-.61-.31-.62.1.01.21.57.07.17-.03-.1-.07-.19-.1-.28-.18-.53-.3-1.08-.4-1.64-.09-.5.05.57,0,.05,0-.09,0-.28-.04-.36v-.07c-.12.57-.12.49,0-.25.01-.1.02-.2.03-.3.04-.46.04-.92.01-1.37-.07-1.07-.24-2.14-.51-3.18-1.15-4.42-3.79-8.86-7.32-11.79-2.07-1.72-4.42-2.97-7.13-3.18-2.85-.22-5.51,1.12-7.53,3.03-.88.83-.9,2.43,0,3.25s2.32.88,3.25,0h0Z"/>
        <path class="cls-1" d="M25.58,59.51c1.18,4.47,3.3,8.73,7.17,11.43,2.98,2.08,6.72,2.73,10.29,2.81s6.88-.38,10.32-.51c1.65-.06,3.25.02,4.89.15-.9-.07-.17-.02.05.01.19.03.37.06.56.1.37.07.73.16,1.09.26s.7.22,1.05.35c.63.24-.44-.21.04.01.19.09.39.18.57.28.38.2.75.42,1.1.67.08.05.15.11.23.16.32.22-.46-.39-.17-.13.17.15.34.28.5.44.34.31.65.65.95,1,.06.08.12.17.19.24-.51-.51-.18-.23-.05-.05.15.2.28.41.42.63.26.42.5.86.71,1.3.09.2.42,1.09.17.34.1.28.22.56.32.84.46,1.29.78,2.62,1.02,3.97.21,1.19,1.72,1.97,2.83,1.61,1.27-.41,1.84-1.56,1.61-2.83-.78-4.33-2.5-8.57-6.11-11.28-2.77-2.08-6.34-2.67-9.72-2.72s-6.84.4-10.27.52c-1.7.06-3.36-.05-5.06-.17.88.06.14.02-.08-.02-.2-.03-.39-.07-.59-.11-.39-.08-.77-.17-1.16-.27s-.75-.22-1.12-.36c-.21-.08-.84-.41-.09-.02-.2-.11-.42-.19-.63-.29-.42-.21-.82-.44-1.21-.69-.17-.11-.34-.22-.5-.34-.08-.06-.16-.13-.25-.18.63.39.22.17.06.04-.38-.32-.74-.66-1.08-1.02-.18-.19-.35-.38-.51-.58-.04-.05-.15-.24-.21-.26.24.32.29.38.15.19-.05-.06-.09-.12-.14-.19-.67-.92-1.23-1.92-1.7-2.96-.05-.12-.1-.27-.17-.38.35.56.03.08-.04-.11-.13-.32-.25-.65-.36-.97-.24-.7-.45-1.42-.64-2.14-.31-1.16-1.66-1.99-2.83-1.61s-1.94,1.58-1.61,2.83h0Z"/>
        <path class="cls-1" d="M127.77,216.17c4.58-.41,5.21-6.36,4.71-9.88-.19-1.33-.55-2.63-1.04-3.88-.06-.15-.12-.3-.18-.45-.53-1.27,0-.07-.04.22.01-.07-.02-.15-.01-.22,0-.08.03-.21.02-.29.03.23-.12.7-.01.24.05-.2.12-.39.19-.58.07-.21-.29.61-.06.14.06-.12.11-.23.17-.35.26-.5.57-.98.89-1.45.37-.53.77-1.04,1.15-1.56,0,0-.38.49-.17.22.04-.06.09-.11.13-.17.11-.14.22-.28.33-.42.22-.28.45-.57.68-.85.96-1.21,1.93-2.42,2.81-3.7,1.58-2.28,3.05-5.04,2.44-7.89-.89-4.17-5.94-5.52-9.54-6.1-1.18-.19-2.53.31-2.83,1.61-.25,1.11.34,2.62,1.61,2.83,1.03.17,2.07.37,3.07.67.41.12.82.26,1.22.41.57.22-.29-.15.04.02.2.1.39.19.59.29.27.15.51.32.77.48.28.17-.22-.17-.23-.18.05.06.13.1.18.15.11.1.22.2.33.31.19.21.24.49-.06-.11.05.09.13.18.18.27.06.1.11.21.17.31.21.35-.2-.64-.06-.13.03.11.06.22.09.33.12.42-.04-.03-.02-.24-.03.23.03.49.02.73-.02.31-.17.48.03-.18-.03.1-.04.22-.06.32-.06.28-.14.55-.23.82-.04.11-.09.22-.12.33-.08.22.28-.6.03-.09-.13.27-.26.54-.41.81-.29.54-.62,1.06-.96,1.56-.36.54-.74,1.06-1.13,1.58-.09.12-.18.23-.27.35-.37.48.29-.37-.01.02-.22.28-.43.55-.65.83-.89,1.12-1.79,2.24-2.64,3.39-.62.84-1.21,1.72-1.64,2.68-.29.65-.51,1.24-.6,1.95-.04.26-.07.51-.07.77s.04.57.1.81c.04.15.03.13.13.36.13.31.15.37.08.18.05.11.09.22.13.33.27.69.5,1.4.68,2.12.09.36.17.72.23,1.08.02.13.04.25.06.38-.06-.39-.02-.11,0,.12.05.56.07,1.12.04,1.67,0,.1-.01.21-.02.31-.02.27-.16.45.02-.02-.08.2-.08.47-.13.68s-.1.41-.17.62c-.02.08-.05.15-.08.23-.14.45-.06-.05.06-.12-.09.06-.19.38-.24.48-.08.13-.21.27-.26.41.17-.45.35-.4.16-.22-.05.05-.09.11-.14.16-.05.05-.1.09-.15.14-.26.28.4-.23.23-.17-.09.03-.55.27-.05.06.39-.17.23-.1.13-.06-.2.07-.57.05.35-.04-1.2.11-2.36.98-2.3,2.3.05,1.16,1.02,2.42,2.3,2.3h0Z"/>
        <path class="cls-1" d="M53.45,190.96c.4-.66.85-1.28,1.28-1.91.17-.25-.28.34-.08.11.05-.06.09-.12.14-.18.11-.13.22-.27.33-.4.23-.27.48-.54.73-.8.46-.48.95-.93,1.46-1.36.12-.1.26-.19.36-.29-.45.45-.15.11,0,0,.26-.19.53-.38.8-.56,1.02-.67,2.1-1.25,3.22-1.75.13-.06.26-.12.4-.18.08-.03.15-.06.23-.1.23-.1-.3.12-.27.11.31-.09.61-.25.91-.37.53-.21,1.07-.4,1.6-.59,4.55-1.62,9.46-3.06,12.68-6.92,2.33-2.79,3.6-6.2,4.21-9.76.2-1.18-.31-2.54-1.61-2.83-1.12-.25-2.61.34-2.83,1.61-.28,1.62-.7,3.2-1.28,4.74-.15.39.21-.45-.03.06-.07.15-.14.31-.21.46-.15.31-.31.62-.48.92-.31.55-.69,1.05-1.04,1.57.15-.23.27-.33.05-.08-.09.11-.18.22-.28.33-.2.23-.41.44-.62.65-.2.19-.4.38-.61.56-.1.09-.21.18-.31.26-.06.05-.12.1-.18.15-.21.18.42-.3.19-.15-.92.63-1.84,1.22-2.85,1.71-.24.12-.49.23-.73.34-.12.05-.25.1-.37.16-.04.02.51-.21.28-.12-.09.04-.18.07-.27.11-.53.21-1.06.41-1.59.61-1.07.39-2.15.75-3.22,1.13-2.4.85-4.81,1.8-6.98,3.17-2.89,1.83-5.25,4.31-7.01,7.25-.62,1.03-.27,2.57.83,3.15s2.49.28,3.15-.83h0Z"/>
        <path class="cls-4" d="M107.38,69.37c-20.74-.33-24.06,37.53-7.06,44.17,27.95,8.59,31.25-41.41,7.06-44.17Z"/>
        <path class="cls-1" d="M107.38,69.37c24.2,2.76,20.89,52.76-7.06,44.17-17-6.64-13.68-44.49,7.06-44.17ZM106.61,110.44c3.69-.95,9.29-2.24,10.53-6.56,13.99-27.16-45.22,2.84-10.53,6.56ZM107.69,86.01c18.91-.22-.29-20.32-7.41-8.9.64,3.89,2.91,8.71,7.41,8.9Z"/>
        <path class="cls-2" d="M106.61,110.44c-34.69-3.73,24.52-33.72,10.53-6.57-1.25,4.32-6.84,5.62-10.53,6.57Z"/>
        <path class="cls-2" d="M107.69,86.01c-9.37-1.79-9.67-14.53,1.57-12.27,8.02,4.95,10.01,11.68-1.57,12.27Z"/>
      </g>
      <path class="cls-1" d="M164.38,62.28c-26.9-2.66-32.72,49.52-1.79,46.74,24.14,1.86,21.39-40.9,1.79-46.74Z"/>
      <path class="cls-2" d="M158.32,105.79c-25.51-6.45,9.17-28.72,16.47-14.69,0,8.6-1.93,14.69-16.47,14.69Z"/>
      <path class="cls-2" d="M165.47,66.45c13.6,7.07-4.91,13.11-9.6,6.58-5.09-6.15,6.19-8.25,9.6-6.58Z"/>
      <path class="cls-1" d="M125.59,131.97c.15-.53.32-1.06.5-1.58.07-.2.14-.4.22-.59.04-.11.09-.23.13-.34.22-.57-.17.37,0,.01.32-.7.65-1.39,1.08-2.03.09-.14.2-.28.3-.42-.45.69-.2.26-.06.09.19-.22.4-.42.62-.62.42-.39-.47.31-.09.07.11-.07.21-.14.32-.21.09-.05.19-.09.27-.15.35-.21-.69.23-.1.05.21-.06.42-.1.63-.16.31-.08-.7.06-.38.05.06,0,.12-.01.17-.02.12,0,.23-.01.35,0s.24.01.36.02c.5.02-.42-.08-.25-.04.25.07.51.1.76.17s.48.15.71.24c.2.08.61.31-.18-.08.14.07.29.13.44.2.5.24.99.51,1.47.79,2.09,1.25,4.01,2.78,6.14,3.96s4.92,2.2,7.43,1.33c4.02-1.39,5.82-5.81,6.98-9.54.36-1.15-.42-2.56-1.61-2.83-1.25-.28-2.45.38-2.83,1.61-.17.56-.36,1.11-.56,1.66-.08.21-.16.42-.24.63-.05.12-.1.24-.15.36.26-.7.06-.14-.01.02-.34.75-.72,1.48-1.18,2.17-.1.15-.22.3-.32.45.43-.68.18-.23.03-.06-.21.24-.43.47-.67.69-.21.19-.62.34.07-.04-.12.07-.23.16-.34.24-.09.06-.19.12-.29.17-.06.03-.12.06-.18.09-.39.21.56-.2.25-.1-.22.07-.43.15-.66.2-.3.07-.61-.03.19,0-.12,0-.25.02-.37.03-.23,0-.45,0-.68-.02-.56-.03.62.12.17.03-.14-.03-.27-.05-.41-.08-.25-.06-.49-.13-.73-.21-.11-.04-.21-.07-.32-.11-.06-.02-.13-.05-.19-.07-.44-.16.54.24.23.1-.51-.24-1.01-.48-1.49-.76-2.12-1.2-4.04-2.73-6.14-3.96s-4.74-2.31-7.25-1.58c-3.87,1.13-5.56,5.49-6.56,8.98-.33,1.16.41,2.56,1.61,2.83s2.47-.37,2.83-1.61h0Z"/>
    </g>
  </g>
</svg>