<?xml version="1.0" encoding="UTF-8"?>
<svg id="Layer_2" data-name="Layer 2" xmlns="http://www.w3.org/2000/svg" viewBox="0 0 298.1 188.02">
  <defs>
    <style>
      .cls-1 {
        stroke: #231f20;
        stroke-miterlimit: 10;
        stroke-width: 4.21px;
      }

      .cls-1, .cls-2 {
        fill: #231f20;
      }

      .cls-3 {
        fill: #c77161;
      }

      .cls-3, .cls-2 {
        stroke-width: 0px;
      }
    </style>
  </defs>
  <g id="Layer_11" data-name="Layer 11">
    <g>
      <g>
        <path class="cls-3" d="m284.47,41.08c20.64-.41,6.37-16.5,5.51-28.95-29.52-20.74-61.88-4.4-89.32,14.32-13.73,6.47-55.43,6-65.76,10.4-18.89,5.09-91.03,46.91-128.32,90.38-13.68,15.34,10.95,44.07,16.35,58.27,10.28.52,26.32-7.92,11.24-8.89-36.39-47.36,44.71-85.33,56.32-22.13,0,0,146.04-84.09,146.04-84.09-38.04-41.3,28.23-92.99,47.95-29.31Z"/>
        <path class="cls-2" d="m284.47,43.58c6.01-.16,13.03-1.86,13.58-8.95.42-5.47-2.52-10.99-4.13-16.07-.44-1.39-.84-2.8-1.13-4.22-.16-.78-.21-1.07-.27-1.67-.17-1.58-.61-2.25-1.94-3.15-4.13-2.82-8.62-5.1-13.35-6.73-8.86-3.06-18.34-3.43-27.54-1.92-9.35,1.53-18.31,5.04-26.75,9.27-4.39,2.2-8.65,4.62-12.83,7.19-2.1,1.29-4.18,2.62-6.23,3.97-1.03.67-2.05,1.35-3.06,2.04-.47.32-.92.69-1.42.96-.15.08-.82.36-.36.17-5.26,2.19-11.17,3.01-16.78,3.77-6.95.94-13.95,1.53-20.93,2.17-10.22.93-20.55,1.56-30.27,5.06s-19.36,8.77-28.52,13.97c-13.51,7.66-26.61,16.06-39.29,25.03-14.02,9.91-27.59,20.54-40.19,32.22-5.93,5.5-11.65,11.25-16.98,17.33-2.23,2.54-4.16,5.05-5.19,8.32-.91,2.89-1.07,6.03-.73,9.03.79,7.05,3.67,13.68,6.88,19.95s6.81,12.04,10.15,18.1c.68,1.23,1.34,2.46,1.96,3.72.27.55.54,1.1.79,1.66.34.75.25.54.58,1.4.42,1.08,1.22,1.79,2.41,1.84,3.21.13,6.48-.42,9.55-1.31,2.64-.77,5.4-1.81,7.62-3.46,1.89-1.4,3.65-3.73,2.21-6.12-1.56-2.59-5.5-2.81-8.15-3l2.16,1.24c-3.03-3.96-5.68-8.43-7.2-12.87-.7-2.04-1.22-4.13-1.53-6.26-.07-.49.02.21-.03-.27-.03-.23-.05-.46-.07-.7-.05-.54-.09-1.07-.11-1.61-.04-.97-.03-1.95.02-2.92.02-.44.06-.88.1-1.32.02-.22.05-.43.07-.65-.06.52.03-.23.06-.41.15-.92.34-1.83.58-2.72s.51-1.76.82-2.61c.14-.39.3-.78.46-1.17-.19.45.28-.61.39-.83.78-1.61,1.7-3.16,2.75-4.61.14-.19.28-.39.43-.58-.26.35,0,0,.12-.14.28-.35.56-.69.86-1.03.59-.67,1.2-1.32,1.84-1.94s1.3-1.22,1.99-1.79c.16-.13.32-.26.48-.39.48-.39-.12.08.23-.18s.72-.53,1.09-.79c1.47-1.02,3.02-1.93,4.62-2.71.4-.2.81-.38,1.22-.56.17-.08.57-.24.16-.07.22-.09.45-.18.67-.27.83-.32,1.68-.62,2.53-.87s1.72-.48,2.59-.67c.4-.09.81-.17,1.21-.24.24-.04.47-.08.71-.12.12-.02.78-.11.48-.07-.31.04.29-.03.38-.04.2-.02.41-.04.61-.06.48-.04.96-.08,1.44-.1.89-.04,1.79-.05,2.68-.01s1.79.11,2.67.22c.13.02-.34-.06.16.03.2.04.41.07.61.1.48.08.95.18,1.43.29,3.79.86,6.35,1.98,9.6,4.25.29.2.98.71,1.01.74.04.03.7.58.98.82.77.66,1.5,1.36,2.2,2.1,1.6,1.68,2.51,2.86,3.75,4.79,2.76,4.3,4.49,8.77,5.74,13.72.37,1.44.68,2.89.95,4.35.3,1.59,2.38,2.27,3.67,1.49,4.77-2.88,9.67-5.57,14.5-8.35,11.65-6.71,23.3-13.42,34.95-20.13,14.05-8.09,28.11-16.19,42.16-24.28,12.18-7.01,24.35-14.02,36.53-21.03,5.87-3.38,11.89-6.59,17.65-10.16.08-.05.16-.09.24-.14,1.45-.83,1.58-2.75.51-3.93-3.21-3.51-5.93-7.42-7.9-11.76-1.51-3.32-2.62-7.69-2.86-11.15-.49-7.19,1.29-13.72,5.3-19.68,3.39-5.04,8.8-9.38,14.51-11.21.73-.23,1.47-.44,2.22-.61.41-.09.82-.17,1.23-.25.14-.02.27-.05.41-.07.71-.12-.06,0,.37-.05,1.6-.17,3.2-.21,4.8-.07.21.02.42.04.63.06.71.08-.53-.09.18.02.35.06.7.11,1.05.18.85.17,1.69.38,2.51.65,1.77.56,2.6.93,4.35,1.94,3.65,2.11,6.85,5.29,9.35,8.85,3.46,4.94,5.85,10.52,7.65,16.26.96,3.06,5.78,1.75,4.82-1.33-3.15-10.08-8.16-20.16-16.88-26.52-6.22-4.54-14.06-6.18-21.57-4.54-15.22,3.31-25.78,18.49-25.97,33.65-.14,11.02,4.99,21.17,12.3,29.16l.51-3.93c-4.83,2.78-9.67,5.57-14.5,8.35-11.65,6.71-23.3,13.42-34.95,20.13-14.05,8.09-28.11,16.19-42.16,24.28-12.18,7.01-24.35,14.02-36.53,21.04-3.99,2.3-7.99,4.6-11.98,6.9-1.87,1.08-3.88,2.04-5.66,3.26-.08.05-.16.09-.24.14l3.67,1.49c-2.16-11.59-7.38-23.17-17.48-29.88-7.79-5.17-17.62-6.38-26.6-4.05-8.8,2.29-16.75,7.9-21.61,15.61-5.36,8.5-6.13,19.01-2.87,28.44.99,2.87,2.29,5.64,3.82,8.26.8,1.37,1.67,2.7,2.59,3.99.51.72,1.02,1.57,1.64,2.2.96.96,2.5.73,3.75.94.37.06.74.14,1.1.23.11.03,1.01.35.59.16.12.06.25.12.36.19.34.21-.1-.02-.09-.09,0-.01.31.37,0-.04-.11-.14-.13,0-.21-.39-.07-.33-.05-.52,0-.84-.06.31.14-.09.12-.21.01.09-.38.58-.15.28.22-.28-.31.28-.39.36-.05.05-.39.32-.17.15s-.33.22-.32.21c-2.73,1.76-5.91,2.73-9.12,3.33-1.64.3-3.3.42-4.96.36l2.41,1.84c-1.86-4.83-4.55-9.3-7.14-13.76-3.1-5.36-6.23-10.72-8.82-16.36-2.27-4.95-4.29-10.43-4.38-15.78-.04-2.3.29-4.6,1.17-6.54,1.17-2.59,3.09-4.49,5-6.61,9.61-10.7,20.32-20.4,31.46-29.48s23.11-17.77,35.26-25.83c10.64-7.05,21.54-13.74,32.76-19.84,4.32-2.35,8.69-4.61,13.14-6.71.93-.44,1.87-.87,2.81-1.29.41-.18.82-.36,1.23-.54.2-.09.4-.17.6-.26.53-.23-.15.06.37-.16,1.47-.61,2.95-1.2,4.46-1.71,8.25-2.82,16.28-3.49,24.92-4.29,11.86-1.1,23.95-1.76,35.59-4.41,2.13-.49,4.26-1.06,6.3-1.87,3.4-1.35,6.37-3.85,9.44-5.81,7.14-4.55,14.53-8.75,22.31-12.11,14.49-6.26,30.77-9.09,45.87-3.23,3.92,1.52,7.59,3.63,11.03,6.03l-1.24-2.16c.4,5.2,2.43,9.99,4.06,14.88.36,1.08.71,2.17.99,3.28.14.53.26,1.07.36,1.61.04.24.09.48.12.72-.06-.45.02.23.03.38.04.48.03.95.02,1.42,0,.22-.08.61,0,.16-.04.23-.09.46-.15.69-.02.09-.21.64-.1.35.11-.27-.15.29-.21.4-.1.17-.21.34-.32.49.3-.39-.08.05-.21.18-.56.52-1.38.93-2.45,1.24-1.68.48-3.41.6-5.15.65-3.21.08-3.22,5.08,0,5Z"/>
      </g>
      <path class="cls-2" d="m186.7,42.38c-40.79,20.37-83.5,46.22-126.9,60.48,32.59-36.73,73.75-61.2,126.9-60.48Z"/>
      <path class="cls-1" d="m268.37,54.46c-8.24,8.78-24.29,8.01-32.11-1.33-19.06-43.59,57.16-40.33,32.11,1.33Z"/>
      <path class="cls-1" d="m79.21,159.66c-3.57,13.51-20.38,21.58-33.51,16.37-43.52-33.97,36.08-72.72,33.51-16.37Z"/>
    </g>
  </g>
</svg>