<?xml version="1.0" encoding="UTF-8"?>
<svg id="Layer_2" data-name="Layer 2" xmlns="http://www.w3.org/2000/svg" viewBox="0 0 170.96 159.24">
  <defs>
    <style>
      .cls-1 {
        fill: #231f20;
      }

      .cls-1, .cls-2 {
        stroke-width: 0px;
      }

      .cls-2 {
        fill: #a1cf6d;
      }

      .cls-3 {
        fill: #0a0203;
      }

      .cls-3, .cls-4 {
        stroke: #231f20;
        stroke-miterlimit: 10;
      }

      .cls-4 {
        fill: #fff;
        stroke-width: 4.6px;
      }
    </style>
  </defs>
  <g id="Layer_3" data-name="Layer 3">
    <g>
      <g>
        <path class="cls-2" d="M73.04,10.08c-20.93-4.9-51.12,9.14-43.84,33.83,0,0-2.32,7.33-2.32,7.33-32.3,1.01-33.79,58.52,3.26,60.26,10.01-1.34,1.88,23.45,14.74,18.46,3.84,24.93,38.5,35.38,56.34,18.65,22,13.81,41.93-16.76,44.41-36.85,27.73,25.49,34.77-47.96-5.06-35.77,17.31-15.11,11.31-42.4-14.07-36.1,16.78-48.06-63.3-47.93-56.55-10.3"/>
        <path class="cls-1" d="M73.7,7.67c-9.17-2.11-19.09-1.01-27.74,2.61s-16.02,9.6-19.08,18.42c-1.78,5.12-1.59,10.71-.1,15.87v-1.33c-.78,2.44-1.55,4.89-2.32,7.33l2.41-1.84c-8.89.32-16.69,4.82-21.49,12.29C.86,68.08-.73,77.01.3,85.27c1.09,8.68,4.99,17.04,12.01,22.48,3.69,2.86,8.04,4.79,12.63,5.64,1.36.25,2.74.43,4.12.54.54.04,1.05.04,1.59.02.15,0,.34.03.49,0,.35-.07-.09-.01-.21-.04.09.02.2.02.29.06.23.09.66.33.06-.03.1.06.28.1.36.19.34.4-.08-.11-.02-.04.1.12.26.27.39.38.39.33-.16-.33,0-.01.07.15.19.29.27.43.09.15.16.31.24.47.17.31-.15-.46.06.13,1.88,5.57.79,18.08,9.61,17.63,1.16-.06,2.29-.33,3.38-.74l-3.08-1.75c1.59,10,8.23,18.42,16.94,23.34s19.11,6.56,28.77,4.28c5.52-1.3,10.64-4.01,14.8-7.87l-3.03.39c4.1,2.54,8.9,4.09,13.76,3.77,4.5-.3,8.78-1.97,12.49-4.5,8.04-5.48,13.82-14.04,17.6-22.88,2.12-4.95,3.64-10.05,4.32-15.4l-4.27,1.77c4.2,3.84,10.07,7.52,16,5.67,4.97-1.55,7.97-6.19,9.55-10.9,1.81-5.41,1.93-11.42.84-16.99s-3.77-11.17-8.26-14.76c-5.5-4.39-12.45-5.17-19.19-3.73-.97.21-1.94.47-2.89.75l2.43,4.18c6.38-5.62,10.82-13.91,10.57-22.56-.22-7.75-4.43-14.67-11.8-17.47-4.86-1.84-10.32-1.45-15.27-.25l3.08,3.08c2.75-7.95,3.56-16.77-.09-24.56-3-6.4-8.83-10.83-15.27-13.37s-13.98-3.14-20.99-2.15-13.36,3.58-18.35,8.23-7.63,11.45-7.09,18.33c.08,1.08.23,2.15.42,3.22.23,1.33,1.86,2.08,3.08,1.75,1.4-.39,1.98-1.74,1.75-3.08-.04-.2-.07-.4-.1-.6-.02-.13-.04-.26-.06-.4,0,.02.06.46.02.17-.05-.45-.1-.9-.13-1.35-.05-.81-.07-1.61-.04-2.42.02-.39.04-.78.08-1.16.02-.21.04-.41.07-.61.03-.29-.03.23-.03.23.02-.11.03-.23.05-.34.13-.76.29-1.5.5-2.24.1-.35.21-.69.33-1.03.08-.23.51-1.29.22-.63.28-.65.59-1.28.94-1.89s.76-1.24,1.18-1.83c.05-.08.37-.5.14-.2s.13-.16.21-.25c.24-.29.49-.58.74-.86.48-.52.98-1.02,1.5-1.49.26-.24.53-.47.81-.7.13-.11.26-.21.38-.31.26-.21-.38.29-.11.09.09-.07.18-.13.27-.2,1.21-.87,2.46-1.66,3.79-2.35.33-.17.66-.33,1-.49.18-.09.37-.17.55-.25.1-.04.67-.29.34-.15s.18-.07.27-.11c.19-.07.38-.15.57-.22.38-.15.77-.28,1.16-.41,1.49-.51,3.02-.91,4.57-1.22.8-.16,1.6-.29,2.41-.41-.67.09.37-.04.6-.06.42-.04.85-.08,1.27-.11,1.64-.12,3.3-.15,4.94-.07.79.04,1.58.09,2.37.18.21.02.42.05.64.07.09.01.67.09.3.04s.27.04.39.06c.21.03.42.07.63.1,1.57.27,3.13.64,4.65,1.11.77.24,1.52.5,2.27.79.19.07.38.15.58.23.45.18-.38-.17.05.02.37.17.75.33,1.12.51,1.38.67,2.71,1.44,3.96,2.32.2.14,1.04.78.53.37.31.25.62.5.92.76.58.5,1.14,1.03,1.67,1.58.23.25.46.5.69.75.13.15.26.3.39.45.07.08.45.56.23.28s.15.2.22.29c.1.14.2.28.3.42.23.33.45.66.66,1.01.41.67.78,1.35,1.12,2.06.08.16.15.32.22.48.21.46-.03-.08.02.05.15.39.3.78.44,1.17.27.78.49,1.58.67,2.39.09.4.17.8.24,1.21.03.19.06.38.09.57.04.29-.02-.17-.02-.18.02.16.04.32.06.49.18,1.83.19,3.67.03,5.5-.02.22-.04.44-.07.66-.01.09-.1.81-.07.56s-.06.36-.07.46c-.05.31-.1.62-.16.92-.19,1.04-.43,2.08-.7,3.1-.31,1.14-.66,2.27-1.05,3.39-.65,1.88,1.33,3.5,3.08,3.08,2.13-.52,4.07-.83,6.25-.84,2.01-.01,3.2.11,5.1.67.83.24,1.44.48,1.85.68.75.37,1.46.79,2.15,1.25.12.08.24.17.36.26-.43-.33.14.12.18.16.27.24.55.48.81.74s.51.52.75.79c.1.11.19.22.28.33.18.22.18.22.01,0,.09.12.17.23.26.35.41.6.79,1.21,1.13,1.85.17.32.33.65.47.99-.04-.09-.17-.44,0,.01.09.24.18.48.26.73.23.67.41,1.36.56,2.05.08.37.15.75.2,1.12-.08-.57.02.19.03.25.02.23.04.46.06.7.05.79.06,1.58.03,2.37-.02.4-.05.8-.08,1.2-.02.24-.05.49-.08.73.06-.44-.04.22-.06.31-.31,1.76-.8,3.49-1.46,5.15-1.46,3.64-4.22,7.27-7.41,10.08-1.89,1.67.11,4.88,2.43,4.18.92-.28,1.84-.53,2.78-.73.4-.09.81-.17,1.22-.24.18-.03.36-.06.54-.09.14-.02.29-.04.43-.06-.31.04-.32.04-.03,0,1.58-.17,3.16-.23,4.74-.09.18.02.37.04.55.06.6.06-.42-.07-.04,0,.32.05.64.11.96.17.7.14,1.39.33,2.07.56.29.1.57.21.86.31.54.2-.52-.24,0,0,.15.07.3.13.44.2.58.28,1.14.59,1.69.93.27.17.53.35.79.53.13.09.25.19.38.28-.57-.42-.12-.1-.01,0,.48.41.95.82,1.39,1.27.41.41.78.85,1.15,1.29.1.11.43.56,0-.01.1.13.19.25.28.38.21.3.43.6.63.91.67,1.03,1.23,2.12,1.74,3.24.06.13.27.66,0,0,.06.15.12.3.18.45.11.31.23.61.34.92.22.62.41,1.25.58,1.88.35,1.28.6,2.57.79,3.88-.11-.78.01.14.03.32.04.33.07.66.09.99.05.66.08,1.31.09,1.97.02,1.3-.03,2.6-.17,3.89-.02.2-.17,1.27-.04.44-.04.26-.08.52-.12.78-.11.66-.24,1.32-.4,1.98-.27,1.11-.61,2.2-1.02,3.27-.05.13-.11.27-.16.4.28-.71.1-.23.03-.07-.12.25-.23.51-.36.76-.24.49-.51.96-.79,1.43-.25.41-.54.8-.82,1.19.5-.71-.03.02-.17.19-.19.22-.39.43-.59.64-.14.14-.29.28-.44.42-.17.15-.87.64-.14.15-.39.27-.77.55-1.19.78-.24.13-.49.23-.73.36.78-.42-.02,0-.28.08-.23.07-.45.13-.68.18-.12.03-.24.04-.35.07-.61.16.48,0,.07,0-.54-.02-1.07.07-1.62.03-.13,0-.26-.03-.39-.03-.43-.01.67.14,0,0-.27-.06-.54-.1-.81-.17-.33-.08-.65-.18-.97-.29-.21-.07-1.26-.52-.54-.19-.66-.3-1.3-.62-1.92-.99-.7-.41-1.36-.87-2.01-1.35-.54-.4.4.33-.13-.1-.22-.17-.43-.35-.64-.53-.39-.33-.77-.67-1.15-1.01-1.73-1.58-4-.34-4.27,1.77-.18,1.42-.68,3.81-1.16,5.59-.57,2.13-1.27,4.22-2.07,6.26-1.59,4.04-3.71,7.99-6.17,11.61-4.53,6.66-10.82,12.77-18.77,14.17-.86.15.22-.02-.28.05-.32.04-.64.07-.95.09-.55.04-1.1.05-1.65.04-1.2-.03-1.93-.12-2.98-.35-2.41-.53-4.51-1.48-6.61-2.78-.97-.6-2.23-.35-3.03.39-6.41,5.95-15.15,8.12-23.89,7.2-3.94-.41-8.65-1.82-12.28-3.67-3.96-2.02-7.16-4.46-10.05-7.86-3.11-3.66-5.15-8.23-5.94-13.21-.2-1.25-1.91-2.19-3.08-1.75-.46.17-.92.33-1.4.45-.23.05-.45.1-.68.14.55-.09.03-.02-.22-.01-.16,0-.33-.02-.49-.02.43-.02.33.08,0-.02-.16-.05-.32-.11-.48-.15.4.12.34.17.04-.03-.36-.24-.21-.23.01.03-.1-.12-.24-.22-.35-.34-.07-.08-.36-.46-.12-.13s-.1-.18-.17-.29c-.13-.23-.51-1.1-.26-.45-.14-.36-.27-.73-.39-1.1-1.01-3.35-1.02-6.9-1.94-10.27-1-3.63-3.32-6.54-7.37-6.39-.58.02-1.15-.02-1.73-.07-.7-.06-1-.1-1.39-.16-1.14-.18-2.28-.41-3.39-.72-1.03-.28-2.03-.62-3.02-1.01-.39-.15.14.07-.36-.15-.24-.11-.48-.22-.72-.33-.47-.23-.94-.47-1.4-.72-.9-.5-1.77-1.05-2.6-1.65-.18-.13-.35-.26-.52-.39.37.28-.14-.12-.26-.21-.39-.32-.76-.65-1.13-.99-.73-.68-1.42-1.39-2.07-2.15-.3-.35-.59-.7-.88-1.07.29.37-.09-.13-.18-.26-.15-.2-.29-.4-.43-.61-1.12-1.63-2.07-3.38-2.86-5.2.17.4-.01-.03-.07-.19-.09-.23-.18-.46-.27-.7-.17-.47-.34-.94-.49-1.41-.31-.95-.57-1.92-.8-2.89s-.39-1.89-.53-2.85c-.07-.45.03.31-.04-.29-.03-.25-.06-.5-.08-.75-.05-.5-.09-1-.12-1.5-.11-1.96-.07-3.94.12-5.89.02-.25.05-.5.08-.74.06-.5-.05.32.02-.18.08-.53.16-1.05.26-1.57.18-.93.39-1.86.64-2.78s.56-1.87.9-2.79c.08-.23.17-.45.26-.68.03-.09.26-.63.15-.37s.16-.36.21-.46c.11-.25.23-.5.35-.75.4-.83.85-1.64,1.33-2.42.23-.38.47-.75.71-1.11.13-.2.27-.39.41-.58.09-.13.5-.67.35-.47-.18.23.25-.31.31-.38.13-.16.26-.31.39-.46.31-.35.62-.7.95-1.04.65-.67,1.34-1.3,2.06-1.9.08-.06.16-.13.23-.19.29-.23-.32.24-.03.02.16-.12.32-.24.49-.36.41-.29.83-.57,1.26-.84.78-.48,1.59-.91,2.43-1.29.16-.07.71-.3.26-.12.19-.08.39-.15.58-.23.49-.19,1-.35,1.5-.5.94-.28,1.89-.49,2.86-.66.15-.03.29-.05.44-.07-.04,0-.4.05-.11.01.26-.03.53-.06.79-.09.54-.05,1.08-.08,1.62-.1,1.14-.04,2.07-.75,2.41-1.84.47-1.49.94-2.99,1.42-4.48.25-.8.52-1.6.76-2.41.33-1.11.03-2.08-.24-3.18-.6-2.48-.78-4.91-.52-7.57.07-.76.36-2.14.67-3.21.35-1.2.63-1.91,1.1-2.87,4.29-8.78,13.89-13.77,23.37-15.72,5.32-1.09,11.29-1.18,16.53.03,3.13.72,4.47-4.1,1.33-4.82h0Z"/>
      </g>
      <g>
        <path class="cls-4" d="M45.09,48.93c-3.98,12.44-10.2,44.12.52,50.59,22.91,8.36,27.9-18.55,29.74-36.39-9.38-6.69-19.38-12.29-30.26-14.2Z"/>
        <path class="cls-3" d="M67.55,116.55c-9.27,5.17,8.7,18.01,13.78,15.92,7.94-4.55,13.64-13.37,23.94-17.26,3.34-5.99-32.56,2.18-37.72,1.34Z"/>
        <path class="cls-2" d="M65.4,74.3c.72,6.76-8.11,10.02-9.84,2.56-2.63-7.83,9.64-11.13,9.84-2.56Z"/>
      </g>
      <g>
        <path class="cls-4" d="M118.83,51.56c3.98,12.44,10.2,44.12-.52,50.59-22.43,7.59-28.03-18.45-29.74-36.39,9.38-6.69,19.38-12.29,30.26-14.2Z"/>
        <path class="cls-2" d="M98.52,76.93c-.72,6.76,8.11,10.02,9.84,2.56,2.63-7.83-9.64-11.13-9.84-2.56Z"/>
      </g>
    </g>
  </g>
</svg>