<?xml version="1.0" encoding="UTF-8"?>
<svg id="Layer_2" data-name="Layer 2" xmlns="http://www.w3.org/2000/svg" viewBox="0 0 420.38 529.07">
  <defs>
    <style>
      .cls-1, .cls-2 {
        stroke-width: 0px;
      }

      .cls-2 {
        fill: #fff;
      }

      .cls-3 {
        fill: none;
        stroke: #231f20;
        stroke-miterlimit: 10;
        stroke-width: 4.6px;
      }
    </style>
  </defs>
  <g id="Layer_11" data-name="Layer 11">
    <g>
      <path class="cls-2" d="m233.74,238.66c14.52.79,7.03-24.1.02-30.25-15.41-12.66-37.33,2.69-35.42,18.89,24.34-12.28,28.75-25.33,35.39,11.36Z"/>
      <path class="cls-2" d="m202.71,102.42c-42.4-13.63-77.46,89.37-25.21,92.66,44.12-.06,56.9-68.27,25.21-92.66Z"/>
      <path class="cls-2" d="m336.03,136.76c-3.13-68.36-84.89,1.29-58.92,37.17,21.34,30.13,62.18-8.63,58.92-37.17Z"/>
      <path class="cls-3" d="m264.97,527.25c-66.06-51.3-59.75-240.39.49-280.15,27.23,83.03,121.5,59.6,110.7,7.15,21.84-14.46,32.78-46.67,16.02-69.21,35.09-16.38,35.5-76.42-4.76-91.64,47.02-40.48-23.64-79.23-63.01-62.34-6.24-7.26-14.83-19.91-27.98-22.49-45.99-16.52-89.62.09-105.91,44.15-32.12-6.94-53.88-13.5-81.12,11.3-57.86,43.26-83.71,142.5,12.83,158.53,27.6,75.37-30.29,240.34-107.22,282.46.69,6.02-13.89,4.32-12.64,12.87"/>
      <path class="cls-1" d="m177.5,195.08c-45.72-2.88-24.59-82.12,9.83-92.73,52.02-3.53,38.24,96.88-9.83,92.73Zm-14.19-38.83c-11.57,68.11,77.77-3.17,37.28-5.49-15.9-5.31-33.88-2.5-37.28,5.49Zm25.46-41.03c-8.07,17.48,18.14,36.59,22.51,18.02-1.65-9.96-14-31.49-22.51-18.02Z"/>
      <path class="cls-1" d="m336.03,136.76c2.34,16.05-8.93,29.93-20.14,40.14-13.63,15.53-35.55,6.72-42.62-8.15-11.39-40.79,59-95.08,62.76-31.99Zm-34.17,16.1c-12.76,2.87-21.88,11.43-8.94,22.61,12.83,4.1,21.7-10.08,29.86-17.62.36-5.1-15.88-5.93-20.91-4.99Zm27.61-19.12c-6.59-38.84-45.77,6.62-12.99,6.93,9.76,1.81,17.37,13.86,12.99-6.93Z"/>
      <path class="cls-1" d="m198.35,227.29c-1.92-16.2,20.01-31.55,35.41-18.89,7.03,6.14,14.49,31.05-.02,30.25-6.65-36.77-11.11-23.57-35.39-11.36Z"/>
      <path class="cls-2" d="m322.78,157.85c-8.15,7.53-17.44,22.82-29.86,17.62"/>
    </g>
  </g>
</svg>