<?xml version="1.0" encoding="UTF-8"?>
<svg id="Layer_2" data-name="Layer 2" xmlns="http://www.w3.org/2000/svg" viewBox="0 0 1683.78 871.88">
  <defs>
    <style>
      .cls-1 {
        fill: #a1cf6d;
      }

      .cls-1, .cls-2, .cls-3, .cls-4 {
        stroke-width: 0px;
      }

      .cls-2 {
        fill: #00b1dc;
      }

      .cls-3 {
        fill: #0a0203;
      }

      .cls-4 {
        fill: #fff;
      }
    </style>
  </defs>
  <g id="Layer_3" data-name="Layer 3">
    <path class="cls-1" d="m156.84,361.95c3.16,26.94-21.21,42.43-29.78,66.33-27.26,16.21-31.01,50.58-53.46,71.19-5.42,23.32,17.69,40.87,25.55,60.5,34.58,43.93-39.99,97.81-4.19,137.44,14.6,7.37,19.86,35.26,39.94,28.89,34.77-10.04,51.77-44.44,76.67-67.78,8.55-16.26,38.71-29.33,28.97-49.23-18.28-57.13,29.4-108.19,76.47-133.38,9.68-11.33,27.88-15.71,37.91-23.69,8.29-10.14,31.93-3.74,43.5-16.71,48.43-46.29,28.85-117.98,52.36-174.56,12.95-21.63,27.47-44.38,37.76-67.5.43-6.13,7.68-4.5,9.4-7.73-1.52-6.33,4.16-4.94,6.97-6.51,3.01-1.68,7.83-.1,9.14-4.98-2.3-2.36-4.94,2.93-7.37-.78,3.5-3.18,2.5-10.81,5.33-11.64,7.36-6.13,21.2-14.66,22.38-23.56-3.72-12.37-4.35-34.56-22.61-32.78-52.63,20.99-106.74,44.56-159.25,71.67-63.93,33.02-125.48,71.32-179.03,116.74,0,0,0,0-.01.01-18.54,15.72-2.79,49.86-16.68,68.06Z"/>
    <path class="cls-2" d="m1360.35,852.55c4.9-8.39,2.62-19.36,12.83-25.55,13.21-38.58-.44-82.09,25.22-117.43,40-34.88,87.12-90.38,66.72-152.07-67.84-107.07,52.71-212.7-45.19-298.28-16.43-25.24-40.27-46.07-52.5-73.06-5.57-36.5,24.21-63.66,36.25-94.94,10.98-2.79,35.69.59,35.69.59h0c.87-.16-247.68-83.39-372.12-85.12-4.17-.09-8.36-.16-12.56-.21,15.96,5.12,22.37,13.49,14.72,25.94,0,0,3.97,8.24-.31,12.7-7.47,6.95-18.48,13.53-27.26,19.61-5.69,5.11-4.03,18.06-13.48,17.8-3.4-.4-3.92,1.79-4.54,4.23-4.89,8.97-12.94,15.68-19.92,23.06-.42,7.02-9.68,7.95-5.89,16.05.88,1.8.45,4.66-1.92,5.6-11.35,6.48,7.58,22.36-9.69,25.81-3.92,26.66,18.74,50.86,24.13,76.36,11.64,28.85-12.22,63.24-38.99,73.36-5.05.64-46.31,18.52-46.31,18.52-13.15,7.75-32.55-10.28-43.22-15.79-16.68-8.62-21.87-33-31.2-50.46-15.68-16.63-27.73-42.22-53.8-41.69-7.79-4.77-18.38-12.16-27.53-7.71-53.24.61-114.97-92.63-108.39-140.08,2.6-6.46,14.28-13.4,32.16-20.32-117.29,28.5-233.99,71.1-340.69,127.67,52.5-27.12,106.62-50.68,159.25-71.67,18.26-1.77,18.9,20.41,22.61,32.78-1.19,8.9-15.02,17.43-22.38,23.56-2.83.84-1.83,8.46-5.33,11.64,2.42,3.71,5.06-1.58,7.37.78-1.31,4.88-6.13,3.3-9.14,4.98-2.81,1.57-8.49.18-6.97,6.51-1.72,3.22-8.97,1.6-9.4,7.73-10.3,23.12-24.82,45.87-37.76,67.5-23.51,56.58-3.93,128.27-52.36,174.56-11.57,12.97-35.21,6.56-43.5,16.71-10.02,7.98-28.22,12.36-37.91,23.69-47.07,25.19-94.76,76.24-76.47,133.38,9.74,19.9-20.42,32.97-28.97,49.23-24.9,23.34-41.9,57.73-76.67,67.78-20.08,6.37-25.34-21.52-39.94-28.89-35.8-39.63,38.77-93.51,4.19-137.44-7.86-19.63-30.97-37.18-25.55-60.5,22.45-20.61,26.2-54.98,53.46-71.19,8.56-23.89,32.94-39.39,29.78-66.33,13.89-18.2-1.86-52.34,16.68-68.06,0,0,0,0,.01-.01C105.82,348.21,46.69,410.19,0,479.75v392.13h363.91c.9-22.01,2.79-43.99,3.92-65.99.11-2.15.36-4.32.22-6.46-1.46-22.38,3.31-43.88,9.14-65.24.42-1.54,1.17-3.38.71-4.72-4.95-14.61,1.47-28.48,2.58-42.69,1.17-13.1,1.78-26.29,6-38.92,4.05-6.64,4.42-15.1,10.29-20.85.55-.23.74-.63.56-1.2.11-.82.72-1.39,1.09-2.08,2.78-5.99,5.57-11.97,8.35-17.96,7.6-18.93,19.62-34.34,33.97-49.03,15.97-16.35,35.02-23.47,56.22-26.96,11.08-1.83,22.63-3.83,33.63-2.48,7.75.95,16.67.34,23.61,5.83.22.87.64,1.48,1.68,1.24,5.69,2.38,11.55,4.44,17.04,7.21,19.29,9.73,32.31,24.7,39.08,45.51,3.48,10.67,6.46,21.65,12.16,31.57,3.03,5.28,2.86,11.3,1.61,17.14-1.02,4.76-1.56,9.33-1.44,14.35.12,5.27-2.01,10.61-.46,16.31,4.58,16.78,2.74,33.76,2.68,50.91-.09,24.21-4.09,47.15-10.93,70.04-2.44,8.15-3.42,16.73-5.06,25.12-.78,4,.26,8.82-4.9,10.83-.67.26-.69.64-.54,1.27,2.57,11-5.36,20.58-4.27,31.41.36,3.56-2.86,5.82-3.92,9.03-.75,2.25-1.36,4.51-1.89,6.77h427.39c.04-.61.08-1.22.12-1.82.21-2.71.24-5.38-.25-8.05-1.16-17.07,1.36-33.79,5.25-50.31,1.42-6.02,2.72-12.06,4.14-18.07,2.98-12.66,6.85-25.07,12.19-36.98,6.4-22.15,14.31-43.76,22.64-65.25,5.6-14.45,10.65-29.11,17.29-43.14.54-9.08,5.02-16.7,10.82-22.93,18.25-19.62,39.88-33.6,67.25-36.94,7.77-.95,15.16-3.74,22.85-5.16,14.57-2.69,26.59,1.62,36.19,12.77,3.36,3.9,6.89,7.72,11.23,10.4,8.2,5.07,14.61,11.82,20.15,19.55,3.75,3.74,3.88,8.91,5.35,13.55,1.78,5.4,3.35,10.83,2.95,16.61-.47,4.93,2.91,9.48,2.65,14.39,4.11,25.66-9.36,101.88-15.71,126.79-1.63,6.42-.76,12.83-2.09,19.16-3.88,18.34-4.7,36.77-4.16,55.44h106.55c2.48-7.17,6.6-13.85,12.51-19.33Zm-404-222.69c-4.18,16.96-.43,43.08-20.27,51.44-4.02,13.15-15.82,15.1-28.47,9.76-15.06-4.75-35.94,3.05-45.12-9.46-6.24-8.5-18.14,3.01-26.97,1.89-4.4-.55-13.34,2.05-14.75,2.79-14.57,7.65-31.76,2.5-37.32-10.85-2.01-6.58-14.8-.7-14-11.04-4.05-20.65-1.25-43.47,6.62-64.38,3.5-15.59-4.43-34.49,4.59-48.72,11.18-1.56-.59-8.59,3.19-12.8,12.51-3.96,9.25-26.31,18.67-26.02,6.79-.1,9.77-5.47,13.93-9.24,22.59,4.59,52.82,1.53,68.65,25.15,2.42-3.42,4.92-7.3,6.79-.08.42,14.72,19.11,18.9,20.04,30.11-.17,2.84.29,4.89,3.92,5.83,14.31,2.89,4.49,24.32,19.81,25.72,4.78,3.07,4.7,11.74,12.02,12.62,3.13.97,3.64,2.58,3.63,5.2-2.62,9.26,11.68,13.9,5.06,22.07Z"/>
    <path class="cls-3" d="m1245.45,816.44c1.34-6.32.46-12.74,2.09-19.16,6.34-24.91,19.81-101.13,15.71-126.79.26-4.91-3.11-9.46-2.65-14.39.4-5.78-1.17-11.22-2.95-16.61-1.47-4.64-1.6-9.81-5.35-13.55-5.54-7.73-11.95-14.48-20.15-19.55-4.34-2.68-7.86-6.49-11.23-10.4-9.6-11.14-21.62-15.46-36.19-12.77-7.69,1.42-15.08,4.22-22.85,5.16-27.37,3.34-48.99,17.31-67.25,36.94-5.8,6.23-10.27,13.85-10.82,22.93-6.64,14.03-11.69,28.69-17.29,43.14-8.33,21.49-16.24,43.1-22.64,65.25-5.33,11.91-9.2,24.32-12.19,36.98-1.42,6.01-2.72,12.05-4.14,18.07-3.89,16.52-6.41,33.24-5.25,50.31.49,2.67.46,5.34.25,8.05-.05.61-.08,1.22-.12,1.82h46.79c6.12-5.09,14.37-4.77,22.01-5.48,4-.31,7.27.96,10.35,3.55.76.64,1.49,1.29,2.2,1.94h137.51c-.53-18.67.28-37.1,4.16-55.44Zm-53.23-68.91c-2.43-1.36-4.2-3.37-5.53-5.75-5.3-9.57-11.31-18.82-15.1-29.11-2.24-6.09-6.92-10.78-8.27-17.57-.81-4.06-2.13-8.14-2.47-12.4-1.19-15.07-1.39-30.44,3.31-44.64,3.36-10.16,6.43-22.43,17.39-27.71,7.04-3.39,13.81-8.33,22.78-7.62,8.21.64,14.81,3.91,20.96,8.7,14.33,11.16,20.95,26.67,24.13,43.95,1.46,7.92,2.48,15.92,3.7,23.89-.07,13.63-.91,27.2-3.44,40.62-1.92,3.85-1.88,8.25-3.82,12.22-9.29,18.94-38.1,24.18-53.66,15.42Z"/>
    <path class="cls-4" d="m1249.7,719.89c2.52-13.42,3.37-26.98,3.44-40.62-1.22-7.97-2.24-15.97-3.7-23.89-3.18-17.28-9.81-32.79-24.13-43.95-6.14-4.79-12.74-8.06-20.96-8.7-8.97-.7-15.74,4.23-22.78,7.62-10.97,5.29-14.03,17.55-17.39,27.71-4.7,14.2-4.5,29.57-3.31,44.64.34,4.25,1.66,8.33,2.47,12.4,1.35,6.79,6.02,11.47,8.27,17.57,3.79,10.29,9.79,19.54,15.1,29.11,1.32,2.38,3.1,4.39,5.53,5.75,15.56,8.75,44.37,3.52,53.66-15.42,1.95-3.97,1.9-8.37,3.82-12.22Z"/>
    <path class="cls-3" d="m600.85,856.08c-1.1-10.83,6.84-20.41,4.27-31.41-.15-.63-.12-1.01.54-1.27,5.16-2.02,4.12-6.83,4.9-10.83,1.63-8.39,2.62-16.97,5.06-25.12,6.84-22.89,10.84-45.83,10.93-70.04.06-17.15,1.9-34.13-2.68-50.91-1.55-5.69.58-11.03.46-16.31-.12-5.02.42-9.6,1.44-14.35,1.25-5.85,1.42-11.86-1.61-17.14-5.7-9.92-8.68-20.89-12.16-31.57-6.78-20.82-19.79-35.78-39.08-45.51-5.49-2.77-11.35-4.83-17.04-7.21-1.04.23-1.46-.37-1.68-1.24-6.94-5.49-15.85-4.88-23.61-5.83-11-1.35-22.54.66-33.63,2.48-21.19,3.49-40.25,10.61-56.22,26.96-14.35,14.69-26.36,30.09-33.97,49.03-2.78,5.99-5.57,11.97-8.35,17.96-.37.69-.98,1.25-1.09,2.08.18.57,0,.97-.56,1.2-5.88,5.75-6.24,14.22-10.29,20.85-4.22,12.63-4.83,25.82-6,38.92-1.1,14.2-7.53,28.07-2.58,42.69.46,1.34-.29,3.18-.71,4.72-5.83,21.36-10.6,42.85-9.14,65.24.14,2.14-.11,4.31-.22,6.46-1.13,22-3.03,43.98-3.92,65.99h231.12c.53-2.27,1.15-4.53,1.89-6.77,1.07-3.21,4.29-5.47,3.92-9.03Zm-24.23-171.64c-19.37,7.93-35.86.76-52.97-7.38-24.8-11.81-38.01-33.37-50.17-56.12-6.24-11.67-4.8-24.05-2.15-36.16,1.83-8.39,8.27-13.06,16.18-16.16,9.47-3.71,18.77-7.88,27.99-12.18,23.93-11.16,60.73,6.67,69.85,31.38,3.31,8.97,7.79,17.56,10.52,26.84,1.93,6.55,2.57,13.19,2.38,19.93.62,14.21-4.36,27.03-10.1,39.54-2.22,4.83-6.01,8.05-11.54,10.32Z"/>
    <path class="cls-4" d="m598.27,634.59c.18-6.74-.46-13.38-2.38-19.93-2.73-9.28-7.21-17.88-10.52-26.84-9.12-24.71-45.93-42.54-69.85-31.38-9.22,4.3-18.52,8.47-27.99,12.18-7.91,3.1-14.35,7.77-16.18,16.16-2.65,12.11-4.09,24.49,2.15,36.16,12.16,22.75,25.37,44.32,50.17,56.12,17.11,8.14,33.6,15.31,52.97,7.38,5.53-2.26,9.32-5.49,11.54-10.32,5.74-12.51,10.72-25.33,10.1-39.54Z"/>
    <path class="cls-1" d="m951.29,607.8c.02-2.62-.49-4.24-3.63-5.2-7.32-.89-7.25-9.56-12.02-12.62-15.32-1.4-5.5-22.83-19.81-25.72-3.63-.94-4.08-2.99-3.92-5.83-.92-11.21-19.61-15.39-20.04-30.11-1.86-7.22-4.37-3.34-6.79.08-15.83-23.62-46.05-20.56-68.65-25.15-4.16,3.77-7.13,9.14-13.93,9.24-9.42-.29-6.16,22.06-18.67,26.02-3.78,4.22,7.98,11.24-3.19,12.8-9.02,14.22-1.1,33.13-4.59,48.72-7.87,20.91-10.67,43.73-6.62,64.38-.8,10.35,12,4.46,14,11.04,5.56,13.35,22.76,18.5,37.32,10.85,1.41-.74,10.35-3.34,14.75-2.79,8.83,1.11,20.73-10.39,26.97-1.89,9.18,12.5,30.06,4.71,45.12,9.46,12.64,5.33,24.44,3.39,28.47-9.76,19.85-8.36,16.09-34.48,20.27-51.44,6.62-8.17-7.68-12.81-5.06-22.07Z"/>
    <path class="cls-1" d="m1566.99,174.94s-11.58-10.13-28.57-23.41c-27.48-21.47-69.14-51.19-99.05-59.72,0,0,0,0,0,0h0s-24.72-3.38-35.69-.59c-12.04,31.28-41.82,58.44-36.25,94.94,12.23,26.99,36.07,47.82,52.5,73.06,97.9,85.58-22.65,191.21,45.19,298.28,20.4,61.7-26.73,117.2-66.72,152.07-25.66,35.34-12,78.85-25.22,117.43-10.21,6.18-7.93,17.16-12.83,25.55-5.91,5.47-10.03,12.16-12.51,19.33h335.95V311.16c-31.81-50.04-70.06-96.05-116.79-136.22Z"/>
    <path class="cls-1" d="m661.09,69.79c-6.58,47.44,55.16,140.69,108.39,140.08,9.15-4.45,19.75,2.94,27.53,7.71,26.07-.53,38.12,25.06,53.8,41.69,9.33,17.46,14.52,41.84,31.2,50.46,10.67,5.51,30.07,23.54,43.22,15.79,0,0,41.25-17.88,46.31-18.52,26.77-10.12,50.63-44.51,38.99-73.36-5.38-25.5-28.05-49.7-24.13-76.36,17.27-3.45-1.66-19.34,9.69-25.81,2.36-.94,2.79-3.8,1.92-5.6-3.79-8.1,5.47-9.04,5.89-16.05,6.98-7.38,15.03-14.09,19.92-23.06.63-2.44,1.14-4.63,4.54-4.23,9.44.26,7.78-12.69,13.48-17.8,8.79-6.08,19.79-12.66,27.26-19.61,4.29-4.46.31-12.7.31-12.7,7.65-12.45,1.24-20.82-14.72-25.94-63.58-20.38-278.79,11.01-361.45,42.99-17.87,6.92-29.55,13.86-32.16,20.32Z"/>
  </g>
</svg>