<?xml version="1.0" encoding="UTF-8"?>
<svg id="Layer_2" data-name="Layer 2" xmlns="http://www.w3.org/2000/svg" viewBox="0 0 2182.57 1867.33">
  <defs>
    <style>
      .cls-1 {
        fill: #005ba7;
      }

      .cls-1, .cls-2, .cls-3 {
        stroke-width: 0px;
      }

      .cls-2 {
        fill: #00b1dc;
        opacity: .15;
      }

      .cls-3 {
        fill: #fff;
      }
    </style>
  </defs>
  <g id="Bakgrunn">
    <g>
      <path class="cls-2" d="M1927.7,425.58l-43.89-311.24H186.85v1397.71c23.5,61.64,103.32,156.92,372.86,162.62,395.77,8.37,505.89-161.06,842.11-161.06,228.69,0,422.71,103.88,481.99,158.46l58.35,59.6-2.3-277.68h-21.7l-13.93-576.86h0l-7.18-2.96,18.07-453.29"/>
      <path class="cls-3" d="M1966.01,0H167.03v305.6c15.4,11.74,10.12,19.73,25.08,29.96v233.11c379.91,215.67,935.9-146.5,1189.07-213.65,200.63-53.21,411.89,12.63,507.65,50.2l32.54,20.07c25.25,11.04,7.47-24.35,7.47-24.35L1966.01,0Z"/>
      <path class="cls-3" d="M150.55,802.5c61.41-7.09,84.37,189.63,267.24,259.68,85.17,32.63,130.19,9.11,252.11,7.56,265.32-3.36,474.71,102.65,571.37,151.6,263.54,133.44,259.41,250.71,404.3,256.83,235.01,9.92,353.85-294.01,456.32-252.11,125.39,51.27,106.66,571.52-70.59,635.32-140.15,50.44-239.77-234.71-552.13-274.8-203-26.06-251.31,82.78-577.34,148.75-235.88,47.73-565.62,114.44-753.82-55.46-273.79-247.19-103.85-865.06,2.52-877.35Z"/>
      <path class="cls-1" d="M1890.88,888.37c-116.91,139.87-307.05,213.49-486.84,215.77-149.04.58-288.69-57.54-434.59-80.44-215.93-33.89-544.91,64.97-694.83-111.94h0c-40.76-47.74-66.48-112.96-82.52-175.39,0,43.54,0,113.59,0,156.96,17.34,53.09,42.74,104.91,83.57,143.94h0c44.63,42.68,104.49,65.42,164.27,77.67h0c84.08,17.18,171.55,16.25,256.6,25.42,199.51,15.71,355.12,150.59,509.81,263.75h0c193.91,158.79,491.9,226.21,697.87,52.18-.01-189.97,0-395.82,0-585.81-4.26,6.09-8.72,12.05-13.35,17.9Z"/>
    </g>
  </g>
</svg>