<?xml version="1.0" encoding="UTF-8"?>
<svg id="Layer_2" data-name="Layer 2" xmlns="http://www.w3.org/2000/svg" viewBox="0 0 404.36 558.43">
  <defs>
    <style>
      .cls-1 {
        fill: none;
        stroke: #fff;
      }

      .cls-1, .cls-2, .cls-3, .cls-4 {
        stroke-width: 4.6px;
      }

      .cls-1, .cls-2, .cls-3, .cls-4, .cls-5 {
        stroke-miterlimit: 10;
      }

      .cls-2, .cls-3, .cls-4, .cls-5 {
        stroke: #231f20;
      }

      .cls-2, .cls-6 {
        fill: #231f20;
      }

      .cls-3 {
        fill: #816c5d;
      }

      .cls-7 {
        fill: #0a0203;
      }

      .cls-7, .cls-8, .cls-6 {
        stroke-width: 0px;
      }

      .cls-8 {
        fill: #fff;
      }

      .cls-4 {
        fill: #f5ec43;
      }

      .cls-5 {
        fill: #a1cf6d;
        stroke-width: 4.6px;
      }
    </style>
  </defs>
  <g id="Layer_3" data-name="Layer 3">
    <path class="cls-6" d="m277.18,428.78c6.86,9.44,13.98,18.69,21.19,27.86.59.75,1.17,1.49,1.75,2.24.27.35.54.7.82,1.05.14.18.28.36.42.54.26.34-.21-.28.13.17.92,1.19,1.83,2.39,2.71,3.61,1.31,1.81,2.6,3.67,3.6,5.68.1.2.19.4.29.6.31.66-.12-.36.04.08.14.39.3.78.42,1.18.11.37.21.74.28,1.12.04.18.05.37.1.55.08.35-.05-.68-.04-.32,0,.11.03.23.03.34.05.78.04,1.54-.03,2.32,0,.09-.02.18-.03.27-.03.47.11-.6.03-.25-.04.2-.06.41-.1.61-.08.45-.18.89-.28,1.33-1.27,5.25-3.47,10.29-5.2,15.39-3.47,10.18-6.28,20.57-8.65,31.06-.4,1.79-.79,3.57-1.17,5.36-.67,3.14,4.15,4.48,4.82,1.33,2.43-11.43,5.31-22.78,8.97-33.88,1.85-5.62,4.17-11.14,5.77-16.84,1.01-3.61,1.33-7.33-.07-10.88-1.97-4.99-5.61-9.24-8.87-13.42-6.5-8.34-12.94-16.52-19.22-25.04-1.13-1.54-2.26-3.08-3.38-4.62-.79-1.09-2.17-1.63-3.42-.9-1.08.63-1.69,2.32-.9,3.42h0Z"/>
    <g>
      <path class="cls-3" d="m10.67,311.35c-11.74-1.81-10.76-21.49.65-23.22,15.72,0,15.12,24.64-.65,23.22Z"/>
      <path class="cls-6" d="m187.61,554.48c-13.44-16.79-40.5-25.88-62.36-23.84-30.59,16.42,48.87,36.41,62.36,23.84Z"/>
      <path class="cls-6" d="m296.04,530.79c17.92-3.15,35.31-11.09,53.45-9.06,34.18,13.01-24.88,32.8-53.45,9.06Z"/>
      <path class="cls-4" d="m167.87,370.93c.74,18.58-2.14,46.35.28,64.51,22.82,5.69,47.79,5.39,71.44,6.96.35-12.56-1.39-25.17-5.12-37.16,8.23,7.58,14.79,16.98,19.05,27.33,18.34-3.46,36.67-6.93,55.01-10.39-5.69-25.09-7.88-52.6-15.19-76.84-44.37,3.72-82.21,13.83-125.47,25.58Z"/>
      <path class="cls-6" d="m24.09,301.66c20.32-.29,40.64,1.75,60.47,6.18,5.59,1.25,11.14,2.68,16.64,4.29,1.08.32,2.25-.22,2.82-1.15,5.59-9.03,14.01-16.35,23.83-20.46,1.24-.52,2.14-1.65,1.75-3.08-.32-1.17-1.82-2.27-3.08-1.75-11.08,4.64-20.48,12.53-26.82,22.76l2.82-1.15c-19.85-5.8-40.37-9.27-61.02-10.33-5.8-.3-11.61-.4-17.42-.31-3.21.05-3.22,5.05,0,5h0Z"/>
      <path class="cls-5" d="m117.22,275.63c7.91,42.58,14.95,36.17,40.78,8.74-1,153.58,12.28,64.47,143.5,65.53-7.54-32.03-19.49-63.66-24.63-95.97,10.28-20.8,27.02-38.46,41.57-56.5-7.51-9.86-15.48-19.36-23.87-28.48-25.48,16.32-45.31,50.7-75.94,54.62-69.66-7.35-57.47,6.37-101.41,52.07Z"/>
      <path class="cls-6" d="m307.18,182.59c2.54-2.36,6.37-4.04,9.36-6.33,1.67-1.28,3.27-2.77,4.24-4.67,1.04-2.03,1.18-4.05,1.05-6.28-.76-12.82.25-25.91,2.48-38.54,1.27-7.16,2.97-14.24,5.09-21.2.94-3.09-3.89-4.4-4.82-1.33-3.73,12.24-6.14,24.87-7.25,37.62-.55,6.3-.76,12.63-.64,18.95.03,1.5.06,3.01.14,4.5.03.56.1,1.11.1,1.67,0,.19,0,.38-.02.57-.03.38.03.08-.11.54-.25.83-.33,1.06-.87,1.87-.12.19-.25.35-.6.72-.37.4-.77.77-1.18,1.12-3.03,2.59-7.4,4.36-10.51,7.25-2.36,2.19,1.18,5.72,3.54,3.54h0Z"/>
      <path class="cls-6" d="m194.95,441.86c-3.11,28.97-5.79,57.99-8.04,87.04-.63,8.19-1.23,16.39-1.8,24.59-.09,1.35,1.22,2.5,2.5,2.5,1.43,0,2.41-1.15,2.5-2.5,2.01-29.07,4.44-58.11,7.31-87.11.81-8.18,1.65-16.35,2.53-24.53.14-1.34-1.25-2.5-2.5-2.5-1.47,0-2.36,1.15-2.5,2.5h0Z"/>
      <g>
        <g>
          <g>
            <g>
              <path class="cls-3" d="m242.29,86.97c58.87,30.64,18.37,133.07-45.13,121.74-83.27-30.43-37.19-156.13,45.13-121.74Z"/>
              <path class="cls-2" d="m187.25,122.11c-20.62.93-21.62,38.74-4.33,44.31,28.28,6.84,28.54-43.03,4.33-44.31Z"/>
            </g>
            <path class="cls-6" d="m239.68,120.31c-26.89-1.02-29.51,51.18,1.06,46.54,24.1.39,18.77-41.92-1.06-46.54Z"/>
            <path class="cls-8" d="m236.29,163.9c-25.74-4.86,7.37-29.09,15.47-15.6.52,8.55-1.03,14.71-15.47,15.6Z"/>
            <path class="cls-8" d="m241.01,124.38c13.94,6.2-4.09,13.32-9.14,7.11-5.43-5.8,5.65-8.57,9.14-7.11Z"/>
          </g>
          <path class="cls-8" d="m184.24,162.46c5.34.93,13.08-.97,14.8-6.66,11.61-26.36-38.95,2.22-14.8,6.66Z"/>
          <path class="cls-8" d="m188.57,138.63c21.72-2.29-7.9-21.97-7.23-6.21,1.23,3.21,3.6,6.27,7.23,6.21Z"/>
        </g>
        <path class="cls-6" d="m202.86,182c8.12-.5,16.24-.99,24.36-1.49,3.2-.19,3.22-5.2,0-5-8.12.5-16.24.99-24.36,1.49-3.2.19-3.22,5.2,0,5h0Z"/>
      </g>
      <g>
        <g>
          <path class="cls-7" d="m310.74,61.54c-32.99,37.55,2.14,39.3,31.26,55.82,9.28.3,69.07-82.67,58.69-88.46-66.34-47.83-51.97-26.88-89.95,32.65Z"/>
          <path class="cls-6" d="m308.97,59.77c-8.32,9.5-20.33,24.88-9.92,37.08,3.74,4.38,9.18,7.21,14.28,9.67,6.59,3.18,13.39,5.91,19.97,9.11,1.74.84,3.46,1.72,5.16,2.63,1.46.79,2.81,1.83,4.54,1.48,1.02-.21,1.98-.72,2.83-1.29,2.79-1.84,5.2-4.29,7.49-6.69,7.34-7.7,13.88-16.22,20.18-24.77,7.1-9.63,13.86-19.55,19.96-29.84,2.51-4.23,4.91-8.53,7-12.98,1.5-3.19,3.05-6.57,3.66-10.07.49-2.8.36-5.56-2.13-7.34-7.45-5.33-14.91-10.67-22.64-15.59-5.26-3.34-10.66-6.54-16.45-8.88-3.63-1.47-7.66-2.61-11.61-2.22-8.22.81-13.21,7.78-17.1,14.37-2.86,4.84-5.39,9.88-7.99,14.87-3.47,6.67-7.03,13.29-10.81,19.79-2.2,3.77-4.47,7.5-6.82,11.18-1.73,2.72,2.59,5.23,4.32,2.52,6.54-10.26,12.39-20.9,18-31.68,2.04-3.91,4.05-7.84,6.2-11.69.88-1.57,1.79-3.13,2.75-4.66.44-.7.9-1.39,1.37-2.07.21-.3.42-.6.63-.89.15-.2.83-1.08.39-.53.86-1.08,1.77-2.13,2.78-3.08.22-.2.44-.4.66-.59.12-.1.25-.19.36-.3.29-.26-.47.33-.04.03.49-.34.98-.69,1.5-.99.24-.13.48-.26.72-.38.13-.06.27-.12.39-.19.47-.24-.54.18-.03.01s1.05-.37,1.6-.51c.29-.07.58-.12.87-.18.13-.02.25-.04.38-.06-.47.09-.39.04-.02.01.63-.05,1.25-.07,1.88-.05.31.01.61.03.91.06.17.01.34.04.5.05.41.03-.57-.1,0,0,.72.13,1.44.26,2.15.43,1.6.4,3.17.94,4.7,1.56.12.05.69.29.44.18-.27-.12.38.17.46.2.46.2.91.41,1.36.62.97.46,1.93.94,2.88,1.43,2.14,1.12,4.23,2.32,6.29,3.57,5.3,3.2,10.43,6.66,15.51,10.19,3.22,2.24,6.43,4.52,9.61,6.81.4.29.96.9,1.44,1.02-.07-.02-.5-.49-.16-.1.23.26-.47-.63-.12-.14.31.43-.06-.05-.05-.15-.01.11.09.3.12.41.17.67.02-.38,0-.06-.02.37.03.75,0,1.12-.01.16-.11.89-.03.37s-.05.27-.08.42c-.1.52-.23,1.04-.37,1.55-.33,1.2-.75,2.38-1.21,3.54-.12.31-.25.62-.37.92-.11.27-.21.5-.02.06-.09.2-.17.4-.26.6-.31.7-.63,1.4-.95,2.1-3.38,7.16-7.5,13.99-11.75,20.66-5.01,7.86-10.33,15.52-15.88,23.01-2.76,3.72-4.99,6.63-7.81,10.16-2.45,3.06-4.95,6.07-7.54,9-2.04,2.3-4.13,4.56-6.37,6.67-.86.81-1.75,1.55-2.65,2.31-.13.11.53-.39.17-.13-.1.07-.19.14-.29.22-.18.13-.37.26-.56.39-.33.22-.67.42-1.01.61-.21.12-.6.15-.15.09.49-.07.06-.03-.12.03-.1.03-.3.04-.38.09,0,0,.81-.05.28-.06l1.26.34c-10.28-5.81-21.53-9.59-31.86-15.28-1.04-.57-2.07-1.17-3.07-1.81-.46-.29-.91-.59-1.36-.9-.22-.15-.44-.31-.65-.46-.09-.07-.76-.57-.38-.28-.84-.65-1.64-1.35-2.39-2.11-.33-.33-.65-.68-.96-1.04-.08-.1-.48-.58-.3-.36s-.25-.34-.32-.45c-.27-.39-.53-.8-.76-1.22-.09-.17-.18-.33-.27-.5-.06-.12-.38-.83-.27-.56.12.29-.1-.29-.14-.4-.07-.21-.14-.42-.2-.63-.13-.46-.23-.93-.32-1.4-.09-.44.01.4-.03-.21-.02-.23-.04-.46-.05-.7-.03-.55-.02-1.1.02-1.65.02-.25.04-.5.07-.75.03-.29-.01.08-.02.12.02-.15.04-.3.07-.44.1-.58.23-1.15.38-1.72,1.88-7.06,7.17-13.56,12.06-19.14.89-1.02,1-2.54,0-3.54-.91-.91-2.64-1.02-3.54,0Z"/>
        </g>
        <path class="cls-1" d="m377.5,59.97c-9.44-2.98-10.12-16.29-7.02-24.34-29.06,89.73-70.49,14.4-24.23,17"/>
      </g>
    </g>
  </g>
</svg>