<?xml version="1.0" encoding="UTF-8"?>
<svg id="Layer_2" data-name="Layer 2" xmlns="http://www.w3.org/2000/svg" viewBox="0 0 165.29 154.32">
  <defs>
    <style>
      .cls-1 {
        fill: #231f20;
      }

      .cls-1, .cls-2, .cls-3 {
        stroke-width: 0px;
      }

      .cls-2, .cls-4 {
        fill: #0a0203;
      }

      .cls-3 {
        fill: #a1cf6d;
      }

      .cls-4, .cls-5 {
        stroke: #231f20;
        stroke-miterlimit: 10;
      }

      .cls-5 {
        fill: #fff;
        stroke-width: 4.6px;
      }
    </style>
  </defs>
  <g id="Layer_3" data-name="Layer 3">
    <g>
      <g>
        <g>
          <path class="cls-3" d="M70.8,9.81c-20.26-4.74-49.5,8.85-42.45,32.75,0,0-2.24,7.1-2.24,7.1-31.27.98-32.71,56.66,3.16,58.35,9.69-1.3,1.83,22.71,14.28,17.87,3.72,24.14,37.28,34.25,54.55,18.06,21.83,13.53,40.2-16.2,43-35.68,13.56,12.97,23.64-.13,21.38-15.34,1.16-15.76-11.77-23.31-26.28-19.3l6.7-8.69c10.25-13.37-4.81-32.83-20.32-26.26,15.71-48.64-62.59-44.42-54.76-9.97"/>
          <path class="cls-1" d="M71.46,7.4c-8.87-2.04-18.47-.99-26.84,2.51-8.13,3.39-15.52,9.26-18.54,17.79-1.78,5-1.6,10.48-.14,15.54v-1.33c-.75,2.36-1.5,4.73-2.24,7.1l2.41-1.84c-8.64.31-16.22,4.68-20.88,11.95C.83,65.97-.71,74.63.3,82.64s4.79,16.44,11.52,21.69c3.62,2.82,7.87,4.74,12.39,5.58,1.32.25,2.65.42,3.99.53.54.04,1.05.04,1.59.02.15,0,.34.03.48,0,.3-.06-.46-.18.07.02.11.04.62.23.23.05-.45-.2.15.06.18.12.16.34-.32-.38-.08-.07.1.13.26.27.38.38.29.26-.26-.46,0,0,.08.15.18.29.26.44.07.13.13.27.21.4.17.31-.14-.46.05.13,1.78,5.4.81,17.58,9.38,17.08,1.13-.07,2.22-.32,3.28-.72l-3.08-1.75c1.54,9.67,7.94,17.81,16.35,22.59,8.4,4.77,18.65,6.43,28.08,4.19,5.34-1.27,10.28-3.89,14.3-7.63l-3.03.39c4.03,2.46,8.71,4.01,13.47,3.72,4.33-.26,8.47-1.85,12.04-4.28,7.77-5.3,13.27-13.65,16.91-22.19,1.97-4.63,3.52-9.43,4.26-14.42l-4.18,1.1c4.25,4.01,10.33,7.63,16.31,5.29,5.13-2.01,8.04-7.25,9.08-12.44.62-3.1.73-6.27.34-9.4-.19-1.48.04-3.04-.09-4.57s-.38-3.08-.81-4.57c-1.47-5.08-4.96-9.45-9.71-11.83-5.87-2.94-12.67-2.98-18.91-1.29l2.82,3.67c1.65-2.15,3.31-4.29,4.96-6.44,2.08-2.7,4.02-5.35,4.87-8.73,2.25-8.91-2.7-18.67-10.8-22.76-4.84-2.44-10.45-2.77-15.48-.69l3.08,3.08c2.55-7.96,3.31-16.81-.45-24.51-3-6.15-8.72-10.37-15.04-12.66s-13.74-2.67-20.55-1.51c-6.44,1.09-12.89,3.77-17.65,8.33s-7.16,10.86-6.41,17.35c.12,1.02.28,2.04.5,3.04.7,3.14,5.52,1.81,4.82-1.33-.09-.4-.17-.8-.24-1.2-.03-.18-.06-.36-.09-.55-.05-.29.03.21.03.21-.01-.12-.03-.24-.04-.36-.08-.78-.13-1.56-.12-2.35,0-.34.01-.67.04-1.01.01-.19.03-.39.05-.58,0-.11.08-.73.03-.32s.02-.13.04-.23c.03-.18.06-.37.1-.55.07-.34.14-.67.23-1.01.18-.69.42-1.34.66-2.01.16-.43-.21.44-.01.02.07-.14.13-.28.19-.42.15-.33.32-.65.49-.96.32-.59.68-1.16,1.06-1.7.1-.15.21-.29.32-.44.29-.4-.11.13-.01.01.23-.28.46-.56.7-.84.45-.51.93-1,1.43-1.46.25-.24.51-.46.77-.69.12-.1.25-.21.37-.31.08-.07.55-.44.25-.2-.32.25.19-.14.26-.19.13-.1.26-.19.4-.28.31-.22.63-.43.95-.64.61-.39,1.23-.75,1.86-1.1s1.3-.67,1.97-.97c.18-.08.36-.16.55-.24.13-.06-.43.17.04-.01.38-.15.75-.3,1.13-.43,1.46-.53,2.95-.97,4.47-1.31.75-.17,1.51-.32,2.28-.45.35-.06.71-.11,1.06-.16-.69.1.51-.06.76-.08,1.59-.16,3.18-.24,4.78-.21.78.01,1.56.04,2.34.1.39.03.78.06,1.16.1.25.03,1.45.19.76.08,1.52.23,3.03.52,4.52.93.76.21,1.51.45,2.25.71.33.12.65.24.97.37.19.07.37.15.56.23-.46-.19-.12-.05.11.06,1.37.63,2.69,1.34,3.94,2.18.28.19.56.38.83.58.08.06.59.45.28.21-.29-.22.19.16.27.22.56.46,1.1.95,1.61,1.46s1.02,1.1,1.51,1.68c.32.38-.06-.09.02.02.1.14.2.27.3.41.23.32.45.65.66.98.4.63.76,1.28,1.09,1.95.17.34.33.69.48,1.03-.26-.61.19.52.26.73.26.75.49,1.51.67,2.29.09.4.18.8.25,1.21.03.19.06.38.1.57.11.59-.02-.23.03.21.21,1.84.25,3.69.11,5.54-.03.49-.08.98-.14,1.47-.02.15-.09.69-.03.26-.04.27-.08.55-.13.82-.18,1.1-.41,2.2-.68,3.28s-.6,2.23-.95,3.34c-.54,1.67,1.3,3.81,3.08,3.08,1.99-.82,3.85-1.26,5.9-1.22,1.65.03,3.5.43,4.94,1.04,3.47,1.47,6.13,4.1,7.88,7.35,1.65,3.08,2.26,6.76,1.41,10.13-.7,2.77-2.36,4.94-4.11,7.2s-3.48,4.52-5.23,6.78c-1.4,1.81.9,4.19,2.82,3.67,4.55-1.23,9.18-1.41,13.57.15,3.66,1.3,6.74,4.05,8.34,7.84.78,1.85,1.22,4.24,1.27,6.41.03,1.34-.02,2.63.11,3.97.14,1.43.17,2.87.09,4.3-.13,2.21-.64,4.69-1.46,6.58-.42.96-.94,1.89-1.56,2.73-.17.23-.45.56-.82.93-.12.12-.25.25-.37.36-.07.07-.77.62-.48.42-1.68,1.22-3.35,1.6-5.19,1.22-2.93-.61-5.37-2.42-7.51-4.44-1.23-1.16-3.89-.86-4.18,1.1-1.23,8.32-4.5,16.31-9.14,23.28-4.3,6.47-10.32,12.54-18.04,13.82-1.46.24-3.94.17-5.53-.17-2.42-.52-4.52-1.46-6.63-2.75-.97-.59-2.22-.36-3.03.39-6.2,5.75-14.65,7.84-23.11,6.94s-16.17-4.79-21.58-11.19c-1.31-1.55-2.64-3.63-3.62-5.71-.93-1.97-1.68-4.58-2.07-7-.2-1.25-1.91-2.18-3.08-1.75-.46.17-.92.32-1.39.44-.09.02-.7.14-.34.09.33-.05-.32.02-.47.02-.16,0-.32-.02-.49-.02-.01,0,.45.17,0-.02-.12-.05-.28-.1-.41-.13.45.11.31.13-.02-.06s-.12-.16.07.07c-.08-.1-.2-.2-.3-.28-.37-.32,0,.04-.01.02-.09-.14-.19-.28-.28-.43s-.17-.31-.25-.47c-.04-.08-.25-.57-.1-.2.16.38-.08-.24-.11-.31-.06-.19-.12-.38-.18-.57-.96-3.22-.98-6.65-1.87-9.89-.97-3.56-3.25-6.37-7.2-6.25-2.3.07-3.88-.27-6.15-.87-1.03-.28-2.04-.62-3.03-1-.11-.04-.21-.09-.32-.13.04.02.33.14.07.03-.24-.11-.49-.22-.73-.33-.47-.23-.94-.47-1.4-.72-.83-.46-1.64-.97-2.42-1.53-.07-.05-.63-.46-.44-.32s-.26-.21-.34-.27c-.39-.32-.77-.65-1.14-.99-.71-.65-1.37-1.34-2-2.06-.14-.16-.28-.32-.41-.49-.09-.11-.47-.59-.33-.41.16.2-.19-.26-.25-.34-.17-.23-.33-.46-.49-.69-1.06-1.55-1.96-3.2-2.71-4.92-.18-.4.1.29-.12-.29-.08-.2-.16-.4-.23-.6-.17-.47-.34-.94-.49-1.41-.3-.92-.55-1.85-.77-2.79s-.37-1.82-.52-2.74c-.07-.45.03.29-.04-.29-.02-.21-.05-.43-.07-.64-.05-.5-.09-1-.12-1.5-.11-1.93-.08-3.86.12-5.79.02-.21.05-.42.07-.64.05-.49,0-.05.02-.18.07-.49.15-.98.24-1.47.17-.93.39-1.86.64-2.78s.54-1.81.87-2.69c.07-.19.15-.39.22-.58.05-.12.32-.78.1-.27.19-.44.39-.88.6-1.31.39-.8.81-1.58,1.27-2.33.23-.38.47-.74.71-1.11.11-.17.23-.33.35-.5.06-.09.5-.68.35-.48-.17.23.18-.23.24-.3.15-.18.3-.36.45-.54.31-.35.62-.7.95-1.04.6-.62,1.25-1.21,1.91-1.76.1-.09.21-.17.31-.25-.02.02-.34.25-.11.08.16-.12.32-.24.49-.36.38-.27.77-.53,1.17-.78.78-.48,1.59-.91,2.43-1.3.17-.08.57-.24.16-.08.23-.09.45-.18.68-.26.46-.17.93-.33,1.4-.47.9-.27,1.82-.48,2.75-.63.16-.03.82-.11.33-.05.23-.03.45-.05.68-.07.54-.05,1.08-.08,1.62-.1,1.14-.04,2.07-.75,2.41-1.84.46-1.46.92-2.91,1.38-4.37.25-.79.53-1.58.75-2.38.32-1.13-.04-2.12-.3-3.24-.55-2.36-.72-4.71-.44-7.24.03-.26.1-.69.21-1.23.12-.62.28-1.23.46-1.83.34-1.14.63-1.86,1.06-2.73,2.01-4.08,5.21-7.27,8.96-9.7,4.21-2.72,8.66-4.41,13.61-5.42s10.87-1.12,15.93.04c3.13.72,4.47-4.1,1.33-4.82h0Z"/>
        </g>
        <g>
          <path class="cls-5" d="M43.74,47.44c-3.88,11.37-9.74,43.58.5,48.98,7.8,3.62,18.61.36,22.25-7.73,11.61-29.38,6.75-32.71-22.76-41.25Z"/>
          <path class="cls-4" d="M65.48,112.91c-4.68,1.21-1.67,6.56.51,9.64,3.9,4.91,9.76,5.72,12.84,5.77,7.69-4.41,13.2-12.95,23.18-16.71,4.55-5.7-32.37,2.04-36.52,1.3Z"/>
          <path class="cls-3" d="M63.4,72c.7,6.54-7.85,9.7-9.53,2.48-2.36-7.71,9.14-10.85,9.53-2.48Z"/>
        </g>
        <g>
          <path class="cls-5" d="M115.14,49.98c3.88,11.37,9.74,43.58-.5,48.98-12.43,5.31-23.53-5.24-25.57-17.32-.95-4.36-2.55-11.08-3.22-17.91,9.08-6.48,18.77-11.9,29.3-13.75Z"/>
          <path class="cls-3" d="M95.47,74.55c-.7,6.54,7.85,9.7,9.53,2.48,2.36-7.71-9.14-10.85-9.53-2.48Z"/>
        </g>
      </g>
      <path class="cls-2" d="M58.61,33.62c2.62,5.88,6.2,11.29,10.51,16.07.88.97,2.65.96,3.54,0,.95-1.04.94-2.5,0-3.54-2.09-2.32-3.67-4.36-5.37-6.99s-3.12-5.27-4.36-8.07c-.53-1.2-2.37-1.57-3.42-.9-1.24.8-1.47,2.14-.9,3.42h0Z"/>
      <path class="cls-2" d="M89.48,49.58c3.28-5.75,7.03-10.75,11.61-15.48.94-.97.97-2.57,0-3.54s-2.59-.97-3.54,0c-4.8,4.95-8.98,10.5-12.4,16.49-.65,1.14-.31,2.79.9,3.42s2.73.32,3.42-.9h0Z"/>
    </g>
  </g>
</svg>