<?xml version="1.0" encoding="UTF-8"?>
<svg id="Layer_2" data-name="Layer 2" xmlns="http://www.w3.org/2000/svg" viewBox="0 0 109.02 119.64">
  <defs>
    <style>
      .cls-1 {
        fill: none;
        stroke: #fff;
        stroke-miterlimit: 10;
        stroke-width: 4.6px;
      }

      .cls-2 {
        fill: #0a0203;
      }

      .cls-2, .cls-3 {
        stroke-width: 0px;
      }

      .cls-3 {
        fill: #231f20;
      }
    </style>
  </defs>
  <g id="Layer_3" data-name="Layer 3">
    <g>
      <g>
        <path class="cls-2" d="m15.63,61.33c-33.08,36.4,2.95,40.28,31.26,55.82,10.9-2.05,67.64-80.02,58.69-88.46C40.34-18.93,52.87,2.12,15.63,61.33Z"/>
        <path class="cls-3" d="m13.86,59.56c-8.45,9.33-19.84,24.07-10.14,36.38,3.48,4.41,8.62,7.39,13.54,9.92,6.19,3.18,12.64,5.81,18.95,8.74,1.66.77,3.31,1.56,4.95,2.38.8.4,1.59.8,2.38,1.22.98.51,2.21,1.46,3.34,1.46,1.25,0,2.54-.75,3.55-1.4,2.83-1.83,5.3-4.28,7.64-6.68,7.49-7.7,14.13-16.27,20.52-24.89,7.11-9.59,13.88-19.48,19.92-29.79,2.49-4.24,4.86-8.56,6.89-13.04,1.45-3.22,2.91-6.59,3.43-10.11.21-1.43.33-2.89-.06-4.31-.68-2.53-3.01-3.69-5.02-5.13-6.99-5.05-14.03-10.06-21.36-14.6-4.91-3.04-9.99-5.93-15.43-7.92-3.77-1.38-7.8-2.18-11.81-1.54-7.78,1.24-12.7,8.45-16.44,14.71-2.87,4.8-5.41,9.79-8.01,14.74-3.44,6.54-6.93,13.06-10.63,19.45-2.13,3.68-4.33,7.33-6.6,10.94-1.72,2.73,2.61,5.24,4.32,2.52,6.3-10.03,11.98-20.39,17.48-30.87,3.6-6.85,7.02-13.95,11.67-20.17.09-.12-.3.37.01-.02.12-.15.24-.3.36-.44.23-.29.47-.57.71-.85.43-.49.88-.97,1.34-1.43s.93-.87,1.42-1.28c.54-.46-.36.23.3-.23.25-.18.51-.36.77-.52.47-.3.97-.58,1.47-.82.13-.06.28-.12.41-.19s-.57.21-.13.05c.28-.1.56-.21.84-.3.56-.18,1.12-.3,1.69-.42.76-.15-.33,0,.25-.04.31-.02.63-.06.94-.07.63-.03,1.27-.01,1.9.03.32.02.64.06.96.1-.79-.08.29.05.56.1,1.5.28,2.97.7,4.41,1.21.39.14.78.28,1.17.43.19.07.37.14.55.22.13.05.86.36.35.14.87.37,1.72.76,2.57,1.17,2.01.97,3.97,2.03,5.9,3.14,4.86,2.79,9.54,5.89,14.16,9.05,2.93,2.01,5.84,4.06,8.73,6.13,1.54,1.1,3.08,2.21,4.61,3.33.18.13.37.26.55.4.5.39,0,.04.12.08.03.01.12.11.13.14-.11-.28-.31-.55-.1-.07.24.55-.1-.51-.04-.12.02.16.09.35.14.5.16.57,0-.13,0-.11-.02.19.03.41.03.61,0,.44-.1.89-.08,1.32,0,.14.12-.68.03-.24-.02.13-.04.26-.06.39-.05.27-.1.54-.16.81-.26,1.18-.62,2.33-1.02,3.47-.24.67-.49,1.33-.75,1.99-.12.31-.25.62-.38.93.26-.63-.2.46-.3.68-3.16,7.12-7.18,13.88-11.32,20.46-4.9,7.79-10.15,15.37-15.63,22.76-4.89,6.6-9.91,13.01-15.55,19.36-2.14,2.41-4.33,4.78-6.67,7-.89.85-1.81,1.68-2.77,2.46-.11.09-.22.18-.33.27-.36.3.26-.19.13-.1-.21.15-.41.31-.62.46-.36.26-.73.5-1.11.73-.27.16-.67.27-.91.47.53-.43.49-.1.11-.06-.13.01-.28.08-.42.11l1.93.25c-10.23-5.6-21.37-9.39-31.51-15.15-1.05-.6-2.09-1.22-3.1-1.89-.47-.31-.93-.62-1.38-.94-.22-.16-.44-.32-.66-.48-.05-.04-.43-.33-.2-.15s-.29-.24-.28-.23c-.82-.67-1.6-1.36-2.34-2.12-.34-.35-.66-.71-.98-1.08-.11-.14-.48-.6-.18-.21-.16-.21-.32-.43-.47-.65-.26-.38-.51-.77-.73-1.17-.11-.2-.22-.4-.32-.6-.06-.12-.43-.96-.19-.37-.36-.88-.58-1.78-.79-2.71-.13-.58,0,.23-.04-.22-.02-.24-.04-.47-.06-.71-.03-.52-.03-1.05,0-1.57.01-.25.04-.5.06-.76.05-.62-.04.12.04-.33.1-.62.23-1.23.39-1.84,1.82-6.98,7.08-13.31,11.99-18.73,2.15-2.38-1.37-5.93-3.54-3.54Z"/>
      </g>
      <path class="cls-1" d="m82.39,59.76c-9.44-2.98-10.12-16.29-7.02-24.34-29.06,89.73-70.49,14.4-24.23,17"/>
    </g>
  </g>
</svg>