<?xml version="1.0" encoding="UTF-8"?>
<svg id="Layer_2" data-name="Layer 2" xmlns="http://www.w3.org/2000/svg" viewBox="0 0 45.63 66.09">
  <defs>
    <style>
      .cls-1 {
        fill: none;
      }

      .cls-1, .cls-2, .cls-3 {
        stroke: #231f20;
        stroke-miterlimit: 10;
      }

      .cls-1, .cls-3 {
        stroke-width: 4.6px;
      }

      .cls-2 {
        fill: #79a7b6;
        stroke-width: 2px;
      }

      .cls-3 {
        fill: #fff;
      }
    </style>
  </defs>
  <g id="Layer_3" data-name="Layer 3">
    <g id="Bakgrunn_poster" data-name="Bakgrunn poster">
      <g>
        <g>
          <path class="cls-2" d="M40.24,39.5c-2.43,4.64-32.5,4.57-34.93,0,1.27,7.48,2.76,14.88,4.07,22.27,0,1.83,6.05,3.31,13.51,3.31s13.51-1.48,13.51-3.31c1.3-7.39,2.79-14.79,4.06-22.27h-.22Z"/>
          <path class="cls-3" d="M40.46,36.6c.26,5.28-35.51,6.32-35.42-.36.59-5.14,35.85-5.22,35.42.36Z"/>
          <path class="cls-2" d="M40.46,36.6c.17,5.4-34.77,6-35.48,0,0-5.8,35.92-5.49,35.48,0Z"/>
        </g>
        <path class="cls-1" d="M43.32,7.14c-.57,6.6-40.38,6.61-40.95,0-.8-6.45,41.75-6.45,40.95,0Z"/>
        <path class="cls-1" d="M40.46,36.6c.42-5.58-34.84-5.5-35.42-.36-1.56-9.34-2.74-18.82-2.74-28.59h2.18c1,6.25,37.96,5.36,38.73,0h.11c0,18-4,35-7,52,.53,4.25-27.55,4.26-27.02,0-1.31-7.41-2.81-14.83-4.08-22.33,1.66,4.7,35.44,4.83,35.24-.72"/>
      </g>
    </g>
  </g>
</svg>