<?xml version="1.0" encoding="UTF-8"?>
<svg id="Layer_2" data-name="Layer 2" xmlns="http://www.w3.org/2000/svg" viewBox="0 0 178.93 154.17">
  <defs>
    <style>
      .cls-1 {
        fill: #efe77f;
      }

      .cls-1, .cls-2, .cls-3 {
        stroke: #231f20;
        stroke-miterlimit: 10;
        stroke-width: 4.6px;
      }

      .cls-2 {
        fill: #ede6a1;
      }

      .cls-3 {
        fill: #fff;
      }
    </style>
  </defs>
  <g id="Layer_3" data-name="Layer 3">
    <g>
      <path class="cls-3" d="M120,71.1c3.08-26.35,33.64-50.06,50.66-67.87,22.13,20.5-31.07,43.76-21.15,50.04,0,0,24.57-14.18,24.57-14.18,12.96,24.06-28.32,29.52-17.22,33.35,0,0,17.64-3.69,17.64-3.69,5.41,18.18-19.09,21.09-31.08,24.74"/>
      <path class="cls-3" d="M58.93,71.1C55.84,44.75,25.29,21.04,8.26,3.23c-22.13,20.5,31.07,43.76,21.15,50.04,0,0-24.57-14.18-24.57-14.18-12.96,24.06,28.32,29.52,17.22,33.35,0,0-17.64-3.69-17.64-3.69-5.41,18.18,19.09,21.09,31.08,24.74"/>
      <path class="cls-1" d="M47.12,138.9C1.04,97.97,60.72,14.89,115.34,39.48c67.72,48.6-.18,147.84-68.22,99.42Z"/>
      <path class="cls-2" d="M115.07,96.81c-19.44-15.45-23.07,3.51-21.31-29.71,20.06,2.66,5.75,13.92,23.74,11.77-.48-12.65-11.67-18.59-23.72-19.61v-6.75s-8.38-.02-8.38-.02v6.67c-29.64,1.5-31.09,33-.09,35.95l-.05,23.72c-7.84-1.22-15.37-5.39-15.99-14.01l-9.52-.02c.68,13.6,11.5,20.94,25.5,22.05v6.75s8.38.02,8.38.02v-6.52c16.71,1.02,34.01-16.17,21.44-30.3ZM75.65,83.05c-9.27-6.37.6-16.42,9.71-16.01l-.04,19.21c-4.53-1.04-7.76-2.1-9.67-3.2ZM104.51,116.31c-2.85,1.69-6.47,2.66-10.86,2.91l.04-22.35c11.75.95,22.87,11.05,10.81,19.44Z"/>
    </g>
  </g>
</svg>