<?xml version="1.0" encoding="UTF-8"?>
<svg id="Layer_2" data-name="Layer 2" xmlns="http://www.w3.org/2000/svg" viewBox="0 0 142.18 153.81">
  <defs>
    <style>
      .cls-1 {
        fill: #231f20;
      }

      .cls-1, .cls-2, .cls-3, .cls-4 {
        stroke-width: 0px;
      }

      .cls-2 {
        fill: #0a0203;
      }

      .cls-3 {
        fill: none;
      }

      .cls-5 {
        fill: #00b1dc;
      }

      .cls-5, .cls-6 {
        stroke: #231f20;
        stroke-miterlimit: 10;
        stroke-width: 2px;
      }

      .cls-6 {
        fill: #a1cf6d;
      }

      .cls-4 {
        fill: #fff;
      }
    </style>
  </defs>
  <g id="Layer_1-2" data-name="Layer 1">
    <g>
      <g>
        <path class="cls-1" d="M9.31,129.16l-.65-.82,2.49-7.52-.03-.03c-1.12,1.07-3.93,3.23-5.14,4.21l-.53-.66,6.19-4.94.65.81-2.48,7.5.03.03c.98-.93,4.03-3.3,5.12-4.19l.54.67-6.19,4.94Z"/>
        <path class="cls-1" d="M13.2,132.79l-.67-.63,4.89-5.15-1.82-1.73.56-.59,4.3,4.09-.56.59-1.82-1.73-4.89,5.15Z"/>
        <path class="cls-1" d="M21.17,139.43l-.83-.65.67-7.9-.03-.03c-.84,1.31-3.07,4.06-4.01,5.3l-.67-.52,4.86-6.25.82.64-.66,7.87.03.03c.73-1.14,3.15-4.15,4-5.27l.68.53-4.86,6.25Z"/>
        <path class="cls-1" d="M32.84,138.6c-1.82,1.75-4.57,7.08-7.58,4.05-3.38-2.52,1.57-6,3-8.02l.69.6c-.92,1.61-5.9,4.86-3.12,6.85,2.32,2.41,4.87-2.97,6.31-4.08l.69.6Z"/>
        <path class="cls-1" d="M33.48,145.35l.38-.73,4.12,2.17-.38.73-4.12-2.17Z"/>
        <path class="cls-1" d="M41.79,151.54l1.82-7.7.9.21-1.82,7.7-.9-.21Z"/>
        <path class="cls-1" d="M49.22,152.72c-.01-.8.87-4.27.31-4.92-3-2.27-3.26,2.58-3.44,4.51l-.89-.12.77-5.88.72.09.04.82h.04c4.78-2.7,3.89,2.74,3.34,5.61l-.89-.12Z"/>
        <path class="cls-1" d="M56.08,151.81c-.11,1.99-3.13,1.75-4.29,1l.07-.83c3.57,1.8,4.74-.64.85-2.09-2.15-2.29,1.9-3.41,3.58-2.1l-.38.7c-.91-.55-3.3-1.02-2.84.55.76.97,3.25,1.16,3.01,2.77Z"/>
        <path class="cls-1" d="M59.46,153.02c.26.02.59-.02.82-.07l-.03.69c-3.45,1.13-2.44-3.41-2.4-5.31l-.85-.04.02-.43.87-.33.44-1.25.52.03-.07,1.37,1.72.09-.04.7-1.72-.09c.2.92-.96,4.63.72,4.64Z"/>
        <path class="cls-1" d="M61.61,146.18c-.07-.79,1.13-.78,1.06,0,.06.79-1.13.79-1.06,0ZM62.56,153.72h-.9s.02-5.94.02-5.94h.9s-.02,5.94-.02,5.94Z"/>
        <path class="cls-1" d="M66.6,152.98c.26,0,.59-.07.81-.14l.03.69c-3.34,1.45-2.74-3.17-2.88-5.06l-.85.04-.02-.43.83-.41.32-1.28.52-.02.06,1.37,1.72-.07.03.7-1.72.07c.29.9-.53,4.7,1.15,4.56Z"/>
        <path class="cls-1" d="M69.14,147.49c.21.78.2,4.37.89,4.86,3.46,1.48,2.53-3.31,2.24-5.22l.89-.1.68,5.89-.74.08-.22-.78h-.05c-4.03,3.76-4.43-1.71-4.61-4.64l.9-.1Z"/>
        <path class="cls-1" d="M77.83,151.56c.26-.04.57-.15.78-.26l.13.68c-3.1,1.9-3.16-2.75-3.57-4.6l-.84.16-.08-.43.77-.52.14-1.31.51-.1.25,1.35,1.69-.32.13.69-1.69.32c.41.85.14,4.73,1.78,4.35Z"/>
        <path class="cls-1" d="M81.88,150.65c.25-.06.57-.18.76-.29l.16.67c-3,2.06-3.3-2.59-3.8-4.42l-.83.2-.1-.42.74-.56.07-1.32.51-.12.32,1.34,1.67-.4.16.68-1.67.4c.45.83.38,4.72,2,4.25Z"/>
        <path class="cls-1" d="M88.03,143.99l-1.43.48,1.65,4.97-.85.28-1.65-4.97-1.01.33-.13-.39.9-.64c-.86-1.88.24-3.21,2.13-3.16v.76c-1.45-.12-1.86.92-1.26,2.15l1.43-.48.22.66Z"/>
        <path class="cls-1" d="M94.63,143.8c1.86,3.64-3.84,5.88-5.05,2.06-1.85-3.61,3.83-5.9,5.05-2.06ZM90.45,145.51c.84,2.95,4.79,1.34,3.32-1.36-.83-2.92-4.8-1.33-3.32,1.36Z"/>
        <path class="cls-1" d="M97.26,139.13c.24-.12.46-.2.66-.26l.26.8c-3.03.63-.57,4.12.16,5.67l-.8.4-2.65-5.31.66-.33.58.94.04-.02c.05-.82.37-1.53,1.09-1.89Z"/>
        <path class="cls-1" d="M107.56,138.32l-.04.03c-1.32,7.18-10.06-3.39-2.78-3.37l.05-.04c-.43-.39-1.72-2.01-2.11-2.48l.7-.57,5.34,6.52-.57.46-.6-.54ZM106.27,139.58c2.08-1.37-1.25-5.3-2.95-3.59-1.75,1.37,1.26,5.1,2.95,3.59Z"/>
        <path class="cls-1" d="M112.36,134.87c-1.76,2.19-5.03.19-5.32-2.09-.25-2.68,3.18-3.66,4.7-1.5l-2.8,2.98c1.58,1.62,3.34.11,3.88-1.61l.58.55c-.26.7-.51,1.1-1.04,1.67ZM108.27,131.34c-.7.75-.52,1.64.15,2.4l2.13-2.26c-.74-.7-1.57-.89-2.28-.14Z"/>
        <path class="cls-1" d="M116.15,127.73c1.59,1.21-.32,3.57-1.59,4.11l-.65-.52c3.49-1.94,2.14-4.28-1.25-1.88-3.11.49-1.75-3.49.27-4.14l.37.71c-.97.44-2.7,2.16-1.14,2.66,1.23-.09,2.79-2.03,3.98-.93Z"/>
        <path class="cls-1" d="M112.9,122.36c-.6-.51.26-1.34.76-.74.59.52-.25,1.35-.76.74ZM118.86,127.08l-.64.63-4.15-4.24.64-.63,4.15,4.24Z"/>
        <path class="cls-1" d="M118.8,117.82l.43.37-.63.91c2.01.17,2.35,2.67.75,3.77-.26.93.57,1.43,1.14.58,1.06-1.94,3.86-2.37,3.81.34-.04,2.57-5.36,5.06-4.21.84-.85.37-1.53-.53-1.28-1.37-1.96.83-3.67-1.88-2-3.35.47-.41,1.59-1.6,1.99-2.1ZM117.43,122.26c1.19,1.22,3.14-1.02,1.73-2-1.24-1.32-3.2.95-1.73,2ZM120.89,125.94c1.56,1.13,4.02-3.24,1.59-3.25-.76.49-2.83,2.23-1.59,3.25Z"/>
        <path class="cls-1" d="M126.19,116.16c-.74-.31-3.58-2.49-4.4-2.23-3.28,1.85,1.08,4.02,2.78,4.95l-.46.77-5.1-3.04.37-.63.77.29.02-.04c-.59-5.46,4.05-2.49,6.47-.85l-.46.77Z"/>
      </g>
      <g>
        <path class="cls-5" d="M12.25,96.55s.02.05.01.04c0,.01.02.13.03.12,1.36,17.49,17.52,27.81,28.36,36.26.56.33,1.13.65,1.71.94,0,0,1.92.71,1.93.71,15.34,4.34,33.12,2.79,47.35-4.31-.04.03-.07.06-.11.08,8.75-3.93,14.98-13.2,20.46-20.96-.02.01-.02.02-.01.04,5.25-9.42,11.81-20.29,10.03-31.34-.05-.39-2.9-35.91-15.66-44.38.02.02.05.03.07.05-1.63-1.29-3.36-2.59-5.32-3.14h0C60.87,12.96-2.96,46.87,12.25,96.55Z"/>
        <g>
          <g>
            <path class="cls-2" d="M86.05,81.72c-.06,0-.12.06-.17,0-2.88,1.34-6.71.65-7.98-2.53-1.57-6.54,3.45-28.15,12.7-18.55.49,1.03.94,2.77.15,3.69-.59-1.64-.42-4.41-2.77-4.82-5.01.14-1.34,11.9,2.24,6.79.04-.14-.49-3.23.99-3.16-.24,4.69-1.3,10.16-1.43,14.73h0c-.24,1-.85,1.95-1.77,2.5-.28.66-.88.94-1.52,1.12-.08.2-.31.11-.43.21Z"/>
            <path class="cls-4" d="M81.54,74.16c2.49.31,1.23,5.25-.86,4.9-2.93-.55-1.91-5.05.86-4.9Z"/>
            <path class="cls-4" d="M90.64,63.65c.4,5.56-4.51,5.1-5.18.19-.76-5.8,5.11-5.82,5.18-.19Z"/>
          </g>
          <g>
            <path class="cls-2" d="M40.74,77.54c.2-7.39-.84-24.49,10.64-22.1.01.05.04.08.09.07,6.56,2.63,3.5,12.91,2.53,18.07-.92,2.94-2.52,7.73-6.32,7.46-1.51.78-3.12.75-4.67-.02-1.21-.49-2.19-2.16-2.27-3.48Z"/>
            <path class="cls-4" d="M53.86,61.14c.13,7.1-10.62-.47-6.22-3.71,2.95-2.15,6.3.3,6.22,3.71Z"/>
            <path class="cls-4" d="M46.49,77.91c.39,2.76-3.46,4.13-4.09,1.07-.97-3.36,3.87-4.67,4.09-1.07Z"/>
          </g>
        </g>
        <path class="cls-2" d="M70.74,97.14c7.49-6.49,1.59,5.36-9.7,4.38-2.42.78-13.01-10.25-7.59-9.39h0c3.22,6.51,11.22,9.62,17.29,5.02Z"/>
        <g>
          <path class="cls-6" d="M72.22,112.14c1.48,1.19,5.18,2,7.37.39.8.82,1.19-1.48,2.96-.69-.11.85,1.34-.42,1.37.49,1.26.22,1.28,1.21,1.41,2.38.86,1.41,1.2,2.85.08,4.3-.19.06.15.37-.14.32-.68.58.35,1.01-.16,1.11-2.01-.02-3.54,1.33-5.36,1.65-.45-.03-.07.83-.62.58-.38-.04-1.06,1.47-1.06,1.47-.38.63-.68.24-.76.64-.08.37-.7.31-.8.76-5.64,2.07-3.07-2.44-6.98-2.81-1.31-.13-3.2.49-4.23-.56-.17-.34-.81-.13-.62-.64.21-.42.15-1.22.68-1.33.37.06.36-.15.31-.38-.39-2.5,2.32-3.6,3.57-5.56.12-.81,1.07-.73,1.42-1.39-.07-.11.04-.08.08-.11.57.02.87-.9,1.49-.63Z"/>
          <path class="cls-6" d="M97.16,90.61c5.58-5.29,1.37.4,5.94-1.21.36-1.34,1.26-.42,2.18-.86,1.35-.13,2.56-.7,3.67-1.41,4.38-1.9,5.9,3.53,2.56,5.88-.36.3-.52.81-.59,1.2.58.5-.46.22-.4.7.07.58-.46,1.13-.48,1.55.26.13-.07.61-.25.71-.46.66.47,1.58,0,1.8-.15.13-.49.19-.14.51.34.31-.45.82-.15,1.16.39.96.34,2.64-.3,3.39-1.37,1.09-2.41,2.63-4.05,3.48-.59-.41-2.03-.1-2.19-.73,0-.34-.56,0-.63-.4-.5-.17-1.1.44-1.32-.53-.28-.61-1.06-.16-1.45-.64-.67.13-1.35-.49-2.11-.22-.34.17-1.06-.38-1.2.19-.12.5-.29-.2-.54-.19-.28-.09-.61-.09-.68-.49-.48.03-1.06-1.31-.74-1.53-.13-.74-.6-2.44.2-2.9.4-.29.03-1,.04-1.43-.13-.39.34-.54.23-.94,1.09-1.94.26-6.45,2.4-7.11Z"/>
          <path class="cls-6" d="M71.23,64.31c-.85-.27-2.02.17-2.53-.53-.35-.48-1.02.17-1.51.11-.25-.03-.75.12-.83.16-.82.43-1.78.14-2.1-.61-.11-.37-.83-.04-.79-.62-.21-2.03.37-4.34.63-6.35.63-.09-.03-.48.18-.72.7-.22.52-1.48,1.05-1.46.38,0,.55-.31.78-.52,1.27.26,2.97.09,3.86,1.41.14-.19.28-.41.38,0,.02.83,1.07,1.06,1.13,1.69,0,.16.02.27.22.33.8.16.25,1.37,1.11,1.44.27.17.26.66.68.71.18.05.2.15.2.29-.15.52.66.78.28,1.24-.24.95-.02,2.42-1.14,2.89-.23.74-.89.85-1.6.55Z"/>
          <path class="cls-6" d="M100,40.05c-3.39-3.68-3.7-5.24-.91-9.44,14.69,2.65,21.21,21.92,23.84,34.63.74,2.92-1.1,5.44-.72,8.32-.19,1.13.57,3.61-.84,3.91-2.51-2.76-5.59-4.17-9.18-2.05-3.09-.85-5.71,1.66-8.91.92-2.21.32-4.02,1.97-6.31,1.43-.34.41-.56-.9-.89-1.05-.85-1.64.42-3.42,1.29-4.78-.24-8.75,6.56-8.13,5.16-15.14-3.81-6.01,2.96-11.95-2.54-16.75Z"/>
          <path class="cls-6" d="M76.64,31.66c-.02.39-.54.45-.33.9.05.1.03.26-.11.31-.64.36.43,1.26-.54,1.45,1.23,5.64,3.69,6.9-3.44,9.45-3.86.5-3.65-5.76-7.2-6.06-.44-.27-1.03-.68-1.55-.43-2.99.03-6.46-5.2-6.09-7.87.99-2.46,25.44-6.19,22.93-2.1,0,0,.22.46-.02.71h0c-.42.39-1.04.76-1.53,1.1-.32.29-.23,1.01-.76,1-.48.35-.81,1.12-1.37,1.53Z"/>
          <path class="cls-6" d="M45.57,40.15c-1.32,3.18-.22,7.2-2.94,9.8-3.95,1.57-10.2,4.45-8.87,9.76.55,1.12-1.15,1.85-1.63,2.76-1.97,1.97-4.16,5.93-6.55,2.18-2.01-2.23,2.18-5.25.23-7.72-.44-1.1-1.74-2.09-1.43-3.4,1.26-1.16,1.47-3.09,3-4,.48-1.34,1.85-2.21,1.67-3.73.32-7.37,13.99-11.46,19.94-14.41,1.03-.1,1.06,1.15,1.27,1.84-.21.81-1.37,1.07-1.56,1.98.14.21.28-.09.41.04-.14.46-.97.06-.9.65-1.16.95-1.65,2.97-2.65,4.23Z"/>
          <path class="cls-6" d="M39.84,107.37c0,.62.61,1.08,1.02,1.5.13,1.09.14,2.31.19,3.43-2.14,2.52-2.14,7.16.66,9.34,1.05.73.44,2.91,1.1,3.99-2.37,1.54,1.96,3,2.26,4.69,0,.02,1.99,4.71,2.12,4.94-6.65.37-21.2-14.72-27.33-19.65-3.63-3.54-10.79-23.57-6.47-21.1-.4.95,2.91-1.51,3.91-1.08,3.03.32,5.95.85,8.71,2.26,1.78.02.63.33,1.48.86,1.76.55,2.34-.83,3.78-1.03.75-.36,1.77-.1,2.65-.3.63-.24.65.43,1.24.33.38-.23,1.46.09,1.43.63.16.59.98-.06,1.29.52.09.13.9,2.04.85,3.05-.63,2.61-.56,5.4,1.12,7.61Z"/>
        </g>
        <path class="cls-3" d="M122.01,78.13s-.03-.37-.09-.97c2.89-15.54-2.91-33.31-15.57-43.41.02.02.05.03.07.05-1.63-1.3-3.36-2.57-5.32-3.14-24.81-11.4-66.9-1.27-82,23.61-7.73,11.93-12.25,28.57-6.85,42.29,0-.01.02.05.01.04,0,.01.02.13.03.12,1.09,6.5,3.94,15.33,8.5,19.78,2.26,3.07,4.71,4.97,7.56,6.17,3.9,3.9,8.89,8.68,14,11.25,0,0,0,0,0,0,0,0,1.92.71,1.93.71,15.34,4.34,33.12,2.79,47.35-4.31-.04.03-.07.06-.11.08,8.74-3.93,14.97-13.18,20.45-20.94,0,0,0,.01,0,.02,5.08-8.7,10.16-18.16,10.44-28.38.02-.02.03-.04.02-.08,0,.01-.01.03-.02.04.03-.99.08-2.03-.41-2.92Z"/>
        <g>
          <path class="cls-1" d="M13.88,41.45l-1.72,2.11-8.2-6.68-2.2,2.7-1.76-1.43,6.12-7.52,1.76,1.43-2.2,2.7,8.2,6.68Z"/>
          <path class="cls-1" d="M21.56,33.62l-1.27-.66-.05.05c-1.16,8.63-11.51,2.01-3.32-3.45-1.52-2.16-3.23.1-4.02,1.94l-1.86-.77c4.14-8.32,7.98-3.2,11.93,1.65l-1.4,1.24ZM17.95,30.73c-.6.56-1.67,1.52-1.78,2.18-.28,1.11,1.07,2.33,2.08,1.25,1.27-1.02.77-2.5-.3-3.43Z"/>
          <path class="cls-1" d="M24.08,25.11c.03-1.23.63-4.64.85-5.89l2.54-1.64-.95,5.7,6.5,2.41-2.59,1.68-4.54-1.8-.46,1.4,1.66,2.56-2.25,1.46-7.43-11.47,2.25-1.46c.87,1.34,3.75,5.7,4.41,7.06l.03-.02Z"/>
          <path class="cls-1" d="M33.96,19.35c.18-1.21,1.22-4.52,1.6-5.73l2.73-1.3-1.68,5.53,6.13,3.23-2.79,1.33-4.27-2.37-.64,1.33,1.32,2.76-2.42,1.16-5.89-12.33,2.42-1.16c.69,1.45,2.98,6.14,3.46,7.57l.03-.02Z"/>
          <path class="cls-1" d="M50.92,10.16l-2.21.7,2.36,7.44-2.55.81-2.36-7.44-1.41.45-.39-1.23,1.19-1.13c-1.76-3.38,1.54-5.35,4.59-5.16l-.06,2.08c-1.56-.13-2.83.68-1.98,2.27l2.21-.7.61,1.92Z"/>
          <path class="cls-1" d="M62.01,10.02c2.42,6.36-7.79,9.17-9.15,2.65-2.43-6.34,7.8-9.14,9.15-2.65ZM55.49,11.91c.6,3.84,5.45,2.45,3.89-1.13-.58-3.81-5.44-2.41-3.89,1.13Z"/>
          <path class="cls-1" d="M69.19,3.91c.36-.05.66-.07.91-.05l.16,2.52c-4.69-.53-2.65,5.29-2.41,7.84l-2.65.38-1.41-9.72,2.01-.29.63,1.58.13-.02c.42-1.14,1.41-2.07,2.63-2.24Z"/>
          <path class="cls-1" d="M86.36,14.28l-2.67-.19c-.27-1.56,1.73-7.93-1.01-7.95-3.33-.25-2.18,5.61-2.69,7.69l-2.67-.19.99-13.63,2.67.19c-.11,1.53-.21,3.42-.49,5.08h.14c1.04-1.7,4.36-1.55,5.5-.1,1.47,1.43.15,7.26.24,9.11Z"/>
          <path class="cls-1" d="M87.16,18.89c-.67-.12-1.24-.3-1.7-.54l.38-2.07c1.07.56,2.6.74,2.75-.84,0,0,1.9-10.31,1.9-10.31l2.63.49c-1.26,2.85-.37,14.94-5.98,13.28ZM90.85,2.61c.12-1.76,3.38-1.16,2.87.53-.18,1.78-3.38,1.16-2.87-.53Z"/>
          <path class="cls-1" d="M98.11,17.06c-4.81-.8-4.71-7.26-1.38-9.52,4.04-2.31,8.67,1.98,6.39,6.3l-6.11-1.65c-.8,3.05,2.94,3.56,5.15,3.1l-.54,2c-1.23.24-2.19.12-3.51-.23ZM99.9,8.97c-1.19-.32-1.97.36-2.36,1.51l3.63.98c.31-1.18-.09-2.17-1.27-2.49Z"/>
          <path class="cls-1" d="M106.14,19.65l-2.48-1.01,5.15-12.66,2.48,1.01-5.15,12.66Z"/>
          <path class="cls-1" d="M112.71,23.41c-.98-.61-1.52-1.45-1.63-2.51l-.12-.07c-.55,1.3-2.09,3.54-2.76,4.65l-2.27-1.43,7.53-11.97,1.84,1.16-.36,1.28.1.07c8.3-2.25,3.86,12.39-2.34,8.83ZM116.32,16.18c-2.23-1.64-5.48,3.74-3.09,4.99,1.72,1.49,5.47-3.66,3.09-4.99Z"/>
          <path class="cls-1" d="M119.89,29.61c-3.66-3.21-.18-8.65,3.84-8.82,4.65.16,6.33,6.25,2.12,8.72l-4.33-4.62c-2.28,2.17.63,4.58,2.75,5.35l-1.51,1.42c-1.17-.44-1.92-1.05-2.87-2.04ZM125.67,23.68c-.84-.9-1.86-.73-2.8.04l2.57,2.74c.89-.84,1.06-1.9.23-2.78Z"/>
          <path class="cls-1" d="M128.46,41.26l-1.35-2.32c.93-.7,5.75-2.93,6.15-4.01.17-5.07-6-.25-8.01.81l-1.35-2.31,8.49-4.94,1.03,1.77-.9.94.08.13c2.07,0,3.81,2.8,3.27,4.6-.36,2.01-5.92,4.21-7.4,5.33Z"/>
          <path class="cls-1" d="M130.29,42.66c1.78-.93,3.07,2.25,1.16,2.84-1.78.88-3.07-2.23-1.16-2.84ZM134.07,43.95l-.81-1.98,7.77-3.67,1.15,2.81-8.11,2.84Z"/>
        </g>
        <path class="cls-3" d="M122.01,78.13s-.03-.37-.09-.97c2.89-15.54-2.91-33.31-15.57-43.41.02.02.05.03.07.05-1.63-1.3-3.36-2.57-5.32-3.14-24.81-11.4-66.9-1.27-82,23.61-7.73,11.93-12.25,28.57-6.85,42.29,0-.01.02.05.01.04,0,.01.02.13.03.12,1.09,6.5,3.94,15.33,8.5,19.78,2.26,3.07,4.71,4.97,7.56,6.17,3.9,3.9,8.89,8.68,14,11.25,0,0,0,0,0,0,0,0,1.92.71,1.93.71,15.34,4.34,33.12,2.79,47.35-4.31-.04.03-.07.06-.11.08,8.74-3.93,14.97-13.18,20.45-20.94,0,0,0,.01,0,.02,5.08-8.7,10.16-18.16,10.44-28.38.02-.02.03-.04.02-.08,0,.01-.01.03-.02.04.03-.99.08-2.03-.41-2.92Z"/>
      </g>
      <g>
        <path class="cls-1" d="M94.02,127.42l-.54-.42-.7.42.12.68-.2.12-.36-2.15.18-.11,1.71,1.34-.21.12ZM93.31,126.85c-.17-.14-.61-.49-.77-.63.07.21.15.75.2.97l.57-.34Z"/>
        <path class="cls-1" d="M94.97,124.89c.58-.49,1,.64,1.31.96l-.18.13c-.86-1.65-1.83-.91-.6.43l-.19.13c-.86-1.65-1.83-.91-.6.43l-.19.13-.88-1.23.15-.11.15.15h.01c-.04-.37.43-.73.75-.52h.01c-.02-.21.08-.39.25-.5Z"/>
        <path class="cls-1" d="M96.14,123.97c.56-.58,1.06.55,1.39.85l-.13.11-.18-.15h0c-.23,1.4-1.74.22-.44-.52-.26-.45-.66-.13-.79.22l-.17-.09c.07-.15.18-.31.32-.43ZM96.88,124.39c-.29.2-.7.7-.18.83.42-.06.51-.57.18-.83Z"/>
        <path class="cls-1" d="M97.42,122.86c.54-.59,1.09.48,1.44.78l-.17.15c-1.03-1.56-1.99-.64-.6.54l-.17.15-1.02-1.13.14-.12.17.14h0c-.04-.2.05-.39.2-.52Z"/>
        <path class="cls-1" d="M99.63,122.94c-.89.83-1.99-1.36-.59-1.29h.01c-.13-.11-.48-.48-.6-.6l.16-.16,1.51,1.54-.13.13-.18-.13h0c.04.19-.02.38-.17.52ZM99.52,122.78c.49-.4-.43-1.32-.83-.85-.42.39.43,1.28.83.85Z"/>
        <path class="cls-1" d="M99.74,120.59c.49-.64,1.12.42,1.49.67l-.12.12-.19-.12h0c-.06,1.42-1.7.43-.5-.46-.31-.41-.67-.05-.76.32l-.17-.07c.05-.16.14-.33.26-.46ZM100.52,120.92c-.27.24-.6.78-.08.85.4-.11.43-.63.08-.85Z"/>
        <path class="cls-1" d="M101.49,117.92l1.05,1.88-.16.18-2-.78.16-.19c.31.13,1.45.55,1.72.71-.19-.24-.77-1.32-.93-1.61l.16-.19Z"/>
        <path class="cls-1" d="M103.04,118.99c-.2-.14.04-.42.21-.25.2.14-.04.42-.21.25Z"/>
        <path class="cls-1" d="M102.44,116.77c.76-1,1.66.37.77,1l.62.5-.15.18-1.57-1.28.33-.41ZM102.58,116.91l-.17.21.64.52c.66-.44.13-1.46-.47-.73Z"/>
        <path class="cls-1" d="M104.59,117.08c-.2-.13.03-.42.2-.26.2.13-.03.43-.2.26Z"/>
      </g>
    </g>
  </g>
</svg>
