<?xml version="1.0" encoding="UTF-8"?>
<svg id="Layer_2" data-name="Layer 2" xmlns="http://www.w3.org/2000/svg" viewBox="0 0 367.99 410.29">
  <defs>
    <style>
      .cls-1 {
        fill: #a1cf6d;
        stroke: #231f20;
        stroke-miterlimit: 10;
        stroke-width: 4.6px;
      }
    </style>
  </defs>
  <g id="Layer_11" data-name="Layer 11">
    <g>
      <path class="cls-1" d="m296.13,109.55c64.2,12.5,85.1,125.59,57.94,181.79-25.07,51.4-42.25,13.21-16.66,70.34-114.28,55.12-107.31,86.67-106.62-57.5.91-15.08,26.66-1.61,35.71.1,72.4-21.11,35.96-140.06,29.63-194.73Z"/>
      <path class="cls-1" d="m168.18,35.62c52.44-70.73,51.61-13.06,95.98,27.89,3.45,15.48-83.44,62.69-99.77,57.91,7.73-64.42-61.02-72.02-99.01-37.61-15.73,6.31-45.75,76.85-51.95,60.89C-1.45,71.28,105.56-29.94,168.18,35.62Z"/>
      <path class="cls-1" d="m93.03,279.7c-7.59,79.79,83.37,82.75,95.89,113.83-34.03,11.46-74.45,1.43-100.75-23.64-30.2-20.57-36.82-58.86-43.24-89.44-12.62-5.12-35.03,4.14-42.48-5.73,4.99-27.49,14.91-53.84,22.55-80.67,13.69-20.76,76.98,28.5,98.79,36.2,27.22,13.17-22.74,35.54-30.76,49.44Z"/>
    </g>
  </g>
</svg>