<?xml version="1.0" encoding="UTF-8"?>
<svg id="Layer_2" data-name="Layer 2" xmlns="http://www.w3.org/2000/svg" viewBox="0 0 101.6 95.11">
  <defs>
    <style>
      .cls-1 {
        fill: #a1cf6d;
      }

      .cls-1, .cls-2 {
        stroke-width: 0px;
      }

      .cls-3 {
        fill: #fff;
        stroke-width: 4.6px;
      }

      .cls-3, .cls-4 {
        stroke: #231f20;
        stroke-miterlimit: 10;
      }

      .cls-4 {
        fill: #0a0203;
      }

      .cls-2 {
        fill: #231f20;
      }
    </style>
  </defs>
  <g id="Layer_3" data-name="Layer 3">
    <g>
      <g>
        <g>
          <path class="cls-1" d="m43.5,6.82C26.6,3.18,15.66,15.06,16.64,30.78c-7.82-.27-14.15,7.77-14.15,15.59-.25,22.5,16.82,12.1,22.29,30.88,6.42,7.01,19.71,22.94,33.78,11.23,2.07-2.53,7.57,2.87,12.48.53,10.28-1.75,11.8-24.62,17.79-20.84,16.92,5.02,11.4-31.36-6.01-22.98,11.36-8.79,3.65-24.82-7.66-21.46C84.17-1.17,39.13-5.6,41.71,18.18"/>
          <path class="cls-2" d="m44.17,4.41c-6.28-1.31-12.94-.95-18.58,2.35-5.03,2.94-8.56,7.87-10.26,13.39-1.05,3.42-1.4,7.06-1.19,10.62l2.5-2.5c-5.21-.1-9.76,2.73-12.82,6.8S-.26,44.11.06,49.16c.23,3.76,1.02,7.66,3.3,10.74,1.79,2.42,4.22,4.09,6.87,5.46,1.18.61,2.38,1.19,3.54,1.83.6.33,1.2.68,1.77,1.05.27.17.53.35.78.53.14.1.29.21.43.31-.43-.32.09.07.17.14,2.73,2.3,4.16,4.88,5.34,8.36.6,1.77,2.38,3.25,3.65,4.61,1.4,1.5,2.84,2.97,4.35,4.36,3.33,3.05,7.02,5.76,11.27,7.37s9.21,1.57,13.54-.32c1.09-.48,2.12-1.05,3.1-1.72.62-.43,1.24-.88,1.82-1.37l.33-.27c.2-.2.18-.2-.07,0l.16-.09c-.16.12-.33.16-.53.14,0-.01.36-.02.41,0,.72.09-.52-.14.24.04.43.1.85.22,1.27.35.96.3,1.91.65,2.88.91,1.13.3,2.31.52,3.48.53,1.37.01,2.64-.45,3.76-.77,1.44-.41,3.02-1.09,4.35-2.14,2.49-1.97,4.21-4.8,5.62-7.6s2.52-5.75,3.94-8.56c.28-.55.57-1.1.89-1.62.13-.21.28-.41.41-.62.09-.15.36-.42-.07.08.09-.11.18-.23.28-.33.15-.15.33-.3.47-.45-.48.52-.19.13.08,0-.71.31-.46.18-.29.13.26-.08.47,0-.25,0,.69,0-.4-.14.04-.02.48.13-.53-.28.03.02.43.23.86.38,1.33.49.84.21,1.71.34,2.58.39,1.24.07,2.53-.1,3.69-.53,2.61-.97,4.4-3.03,5.43-5.57,3.76-9.23-2.36-24.91-13.98-23.5-1.76.21-3.35.75-4.95,1.5l3.03,3.93c5.53-4.37,7.9-11.72,5.06-18.31-2.56-5.95-8.89-9.1-15.15-7.32l3.08,3.08c1.63-4.6,1.8-9.61-.38-14.06-1.79-3.66-5.18-6.47-8.87-8.1-7.66-3.38-17.71-3.23-24.26,2.49-3.84,3.35-5.37,8.48-4.86,13.45.14,1.34,1.05,2.5,2.5,2.5,1.25,0,2.64-1.15,2.5-2.5-.11-1.05-.14-2.11-.06-3.16.02-.21.08-.77.01-.24.03-.23.07-.45.11-.68.09-.47.21-.93.35-1.39.06-.21.14-.41.21-.61.05-.15.33-.74.06-.16.19-.4.39-.8.61-1.19.19-.33.41-.64.63-.95.25-.36-.03.04-.07.09.07-.09.14-.18.22-.27.15-.17.3-.35.46-.52.26-.27.53-.53.81-.78.15-.13.31-.26.46-.39.34-.28-.04.03-.09.07.09-.07.19-.14.28-.2.71-.48,1.43-.92,2.21-1.29.19-.09.38-.18.57-.26-.46.2-.07.03.16-.05.43-.16.86-.31,1.3-.43.86-.25,1.74-.43,2.63-.58.59-.1-.29.02.17-.02.22-.02.44-.05.66-.07.47-.04.95-.07,1.42-.08.93-.02,1.85.01,2.77.1.22.02.45.05.67.07-.44-.05-.16-.02.1.02.5.08,1.01.17,1.51.29.87.19,1.72.44,2.56.73.21.07.41.15.62.23.22.08.64.27.19.07.43.19.85.39,1.26.6.79.41,1.54.88,2.27,1.39.1.07.2.14.29.22,0,0-.36-.29-.15-.11.16.13.33.27.49.4.34.29.66.6.98.93.29.3.56.62.83.94.18.21-.11-.15-.12-.15.07.1.14.19.21.29.13.2.27.39.4.59.26.4.49.82.7,1.25.1.2.32.75.12.23.09.23.18.45.25.69.16.47.29.95.39,1.44.05.25.1.5.14.75-.11-.64.01.14.02.3.04.54.06,1.08.04,1.62,0,.32-.03.63-.06.95,0,.11-.02.21-.03.32-.05.49.04-.21-.01.1-.21,1.3-.55,2.57-.99,3.81-.65,1.83,1.34,3.57,3.08,3.08,2.12-.6,4.06-.44,5.75.51,1.03.58,1.38.91,2.25,1.89.24.27.4.5.71,1.03.15.25.3.52.43.78.04.08.35.8.22.46.86,2.21.97,4.16.38,6.32-.68,2.5-2.36,4.6-4.51,6.29-.96.76-.89,2.41-.2,3.28.82,1.03,2.07,1.19,3.23.64.12-.06.64-.29.26-.13.24-.1.48-.19.73-.27.46-.16.94-.28,1.42-.39.09-.02.69-.12.35-.07s.33-.03.43-.04c.43-.03.85-.02,1.28,0,.3.02.45.07.04,0,.2.04.4.07.6.12.39.09.77.22,1.14.35.13.05-.41-.22.03.02.17.09.35.18.53.27.35.19.67.42,1,.64.38.26-.31-.28.03.03.13.12.26.22.39.34.3.28.58.57.85.87.14.15.27.31.4.47.09.1-.23-.35.04.06.24.35.48.69.7,1.06.2.34.4.69.58,1.04.1.19.19.39.28.58s.26.64.08.17c.31.79.58,1.59.79,2.41.1.39.19.79.27,1.19.04.18.07.37.1.55.12.7,0-.13.04.26.08.82.14,1.64.13,2.46,0,.38-.03.77-.06,1.15-.02.17-.04.35-.05.52.06-.57.01-.1-.04.18-.13.73-.35,1.42-.59,2.13-.16.47.07-.14,0-.02-.08.16-.15.32-.24.48-.17.31-.36.6-.55.89-.23.37.33-.35.03-.04-.1.1-.19.22-.29.32-.12.12-.25.23-.36.35-.36.38.32-.19,0,.01-.27.17-.54.32-.81.49-.45.28.39-.08-.01.01-.17.04-.34.11-.51.16s-.36.07-.53.12c-.41.13.47,0,.02,0-.4,0-.8.04-1.21.02-.1,0-.77-.08-.41-.03s-.25-.05-.34-.07c-.23-.05-.47-.13-.7-.16-.5-.06.32.16-.11-.03-.84-.37-1.6-.63-2.53-.58-1.94.11-3.33,1.47-4.39,2.96-2.21,3.09-3.35,6.93-5.01,10.32-.48.97-.98,1.94-1.54,2.87-.26.44-.53.87-.82,1.29-.13.19-.26.38-.4.56-.32.45.05-.03-.3.39-.31.36-.62.72-.95,1.05-.15.15-.31.3-.46.44-.14.12-.71.55-.3.26-.36.26-.73.49-1.12.7-.09.04-.61.28-.34.17.25-.1-.45.14-.56.17-1.26.34-2.23.78-3.53.64-1.08-.11-2.43-.58-3.57-.96-1.21-.4-2.48-.83-3.77-.83-1.61,0-2.56.73-3.74,1.69-4.64,3.74-10.22,3.96-15.29,1.36s-8.73-6.42-12.38-10.38c-.75-.82-1.5-1.65-2.25-2.47l.64,1.1c-1.22-4.08-3.25-7.98-6.55-10.76-2.5-2.1-5.37-3.45-8.23-4.96-.63-.33-1.25-.68-1.85-1.05-.3-.19-.59-.39-.88-.58-.13-.09-.26-.19-.39-.28.52.39-.15-.13-.24-.21-.52-.45-.99-.95-1.45-1.47-.26-.3.33.48-.05-.06-.12-.17-.24-.34-.36-.52-.24-.36-.46-.74-.65-1.13-.1-.2-.2-.41-.3-.62.21.48-.1-.26-.11-.29-.14-.4-.28-.8-.39-1.21-.3-1.05-.5-2.13-.6-3.1-.25-2.46-.34-5.02.31-7.42,1.38-5.05,5.65-9.74,11.17-9.64,1.3.02,2.58-1.17,2.5-2.5-.29-5.18.64-10.21,3.49-14.52,2.51-3.78,6.45-6.33,11.04-7.25,2.89-.58,6.17-.41,9.18.22,1.32.28,2.7-.39,3.08-1.75.34-1.24-.42-2.8-1.75-3.08h0Z"/>
        </g>
        <g>
          <path class="cls-3" d="m27.23,29.44c-2.09,9.23-8.51,29.92,4.7,30.3,18.47-4.03,14.81-30.63-4.7-30.3Z"/>
          <path class="cls-4" d="m40.31,68.8c-5.32,3.21,5.15,10.49,8.02,9.27,4.62-2.65,7.94-7.78,13.94-10.05-2.82-3.69-15.87,1.43-21.96.78Z"/>
          <path class="cls-1" d="m39.06,44.21c.42,3.93-4.72,5.83-5.73,1.49-1.53-4.56,5.61-6.48,5.73-1.49Z"/>
        </g>
        <g>
          <path class="cls-3" d="m70.16,30.97c2.26,9.06,8.61,32.06-5.74,29.94-17.38-5.46-13.23-30.05,5.74-29.94Z"/>
          <path class="cls-1" d="m58.34,45.74c-.42,3.93,4.72,5.83,5.73,1.49,1.53-4.56-5.61-6.48-5.73-1.49Z"/>
        </g>
      </g>
      <path class="cls-2" d="m54.03,30.54c2.15-2.13,4.09-4.45,5.86-6.91.36-.5.41-1.36.25-1.93s-.61-1.21-1.15-1.49c-.58-.31-1.28-.46-1.93-.25s-1.1.59-1.49,1.15c-.36.51-.74,1.01-1.12,1.5l.39-.51c-1.34,1.73-2.79,3.37-4.35,4.9-.93.92-.99,2.63,0,3.54s2.54.98,3.54,0h0Z"/>
      <path class="cls-2" d="m44.92,25.48c-2.15-1.1-4.2-2.38-6.14-3.83-.49-.36-1.37-.41-1.93-.25s-1.21.61-1.49,1.15c-.31.58-.46,1.28-.25,1.93l.25.6c.22.38.52.67.9.9,1.94,1.44,3.99,2.73,6.14,3.83.6.31,1.27.43,1.93.25.58-.16,1.21-.61,1.49-1.15.6-1.14.35-2.78-.9-3.42h0Z"/>
    </g>
  </g>
</svg>