<?xml version="1.0" encoding="UTF-8"?>
<svg id="Layer_1" data-name="Layer 1" xmlns="http://www.w3.org/2000/svg" viewBox="0 0 727.81 372.36">
  <defs>
    <style>
      .cls-1 {
        fill: #fff;
        stroke: #000;
        stroke-miterlimit: 10;
      }
    </style>
  </defs>
  <path class="cls-1" d="m41.89,370.64c18.17-16.35,44.5-37.11,79.35-55.92,54.81-29.58,101.95-39.23,114-41,70.92-10.43,88.02,6.59,145,4,100.82-4.59,176.9-63.79,235-109,104.98-81.69,112.97-102.49,112-114-2.14-25.32-25.11-51.9-49.35-54.08-37.5-3.38-50.75,54.08-112,114-10.53,10.3-107.97,103.22-235,109-56.98,2.59-74.08-14.43-145-4-68.06,10.01-102.91,33.13-114,41C28.61,291.36-9.57,344.53,2.89,363.64c4.8,7.36,17.34,10,39,7Z"/>
</svg>