<?xml version="1.0" encoding="UTF-8"?>
<svg id="Layer_2" data-name="Layer 2" xmlns="http://www.w3.org/2000/svg" viewBox="0 0 1683.78 639.32">
  <defs>
    <style>
      .cls-1 {
        fill: #c77161;
        opacity: .38;
        stroke-width: 0px;
      }
    </style>
  </defs>
  <g id="Layer_3" data-name="Layer 3">
    <path class="cls-1" d="m366.69,161.06C117.02,155.78,30.13,73.64,0,12.57v626.75c46.69-69.57,105.82-131.54,173.53-185.87,53.55-45.42,115.09-83.72,179.03-116.74,106.7-56.57,223.39-99.17,340.69-127.67,82.66-31.99,297.86-63.37,361.45-42.99,4.2.05,8.39.12,12.56.21,124.44,1.73,372.99,84.96,372.12,85.12,0,0,0,0,0,0,34.85,9.8,65.67,32.93,94.75,55.98-.4-.32-.87-.52-1.28-.82,1.87,1.52,3.73,3.04,5.58,4.56,17,13.28,28.57,23.41,28.57,23.41,46.73,40.17,84.97,86.18,116.79,136.22V152.31C1617.34,96.46,1429.17,0,1208.8,0c-336.22,0-446.34,169.43-842.11,161.06Z"/>
  </g>
</svg>