<?xml version="1.0" encoding="UTF-8"?>
<svg id="Layer_2" data-name="Layer 2" xmlns="http://www.w3.org/2000/svg" viewBox="0 0 296.44 427.14">
  <defs>
    <style>
      .cls-1 {
        fill: #fce0ce;
      }

      .cls-1, .cls-2, .cls-3 {
        stroke-miterlimit: 10;
        stroke-width: 4.6px;
      }

      .cls-1, .cls-3 {
        stroke: #231f20;
      }

      .cls-4 {
        fill: #00b1dc;
      }

      .cls-4, .cls-5, .cls-6, .cls-7 {
        stroke-width: 0px;
      }

      .cls-2 {
        fill: none;
        stroke: #fff;
      }

      .cls-3, .cls-7 {
        fill: #231f20;
      }

      .cls-5 {
        fill: #fff;
      }

      .cls-6 {
        fill: #c77161;
      }
    </style>
  </defs>
  <g id="Layer_3" data-name="Layer 3">
    <g>
      <g>
        <path class="cls-7" d="m168.66,305.47c.07,12.83.51,25.67.87,38.5.41,14.54.84,29.09.96,43.64.05,6.7.06,13.41-.18,20.11-.12,3.22,4.88,3.21,5,0,.46-12.82.17-25.67-.11-38.48-.32-14.55-.8-29.09-1.17-43.64-.17-6.7-.33-13.41-.36-20.12-.02-3.22-5.02-3.22-5,0h0Z"/>
        <path class="cls-7" d="m171.75,408.85c13.45-2.22,28.47-12,41.32-5.06,5.59,21.28-31.42,14.81-41.32,5.06Z"/>
      </g>
      <g>
        <path class="cls-1" d="m275.65,112.39c-8.88-7.89,2.62-23.89,13.14-19.16,13.2,8.53-.67,28.9-13.14,19.16Z"/>
        <g>
          <path class="cls-4" d="m73.03,148.34c-5.14,32.65-4.42,22.07,19.46,36.11-39.14,106.34-6.89,55.04,90.18,64.01-12.99-65.46-36.18-65.14,32.52-88.2-25.73-60.58-24.87,28.64-142.16-11.91Z"/>
          <path class="cls-7" d="m70.62,147.67c-.81,5.15-1.71,10.3-2.32,15.47-.32,2.76-.62,5.64,0,8.38,1.12,4.89,5.96,6.71,10.06,8.54,4.4,1.96,8.7,4.1,12.85,6.54l-1.15-2.82c-3.29,8.96-6.54,17.94-9.48,27.01-2.04,6.29-3.99,12.64-5.38,19.11-1.43,6.66-3.34,16.05,1.84,21.67,4.45,4.82,12.44,4.29,18.36,3.81,10.85-.87,21.61-2.78,32.45-3.89,15.89-1.64,31.89-2.13,47.84-1.09,2.32.15,4.64.34,6.96.55,1.73.16,2.7-1.72,2.41-3.16-2.1-10.53-4.82-20.91-7.93-31.19-2.04-6.73-4.41-13.43-5.8-20.34-.13-.67-.26-1.33-.36-2.01-.02-.14-.04-.28-.06-.42-.09-.56.01.14,0,.05-.03-.31-.08-.62-.11-.94-.11-1.15-.16-2.3-.11-3.45.01-.28.03-.55.06-.82.01-.12.03-.23.04-.35.05-.59-.08.42-.01.09.1-.5.17-1,.3-1.5s.29-1,.47-1.49c.04-.12.1-.24.14-.36-.07.2-.25.55-.08.19.12-.24.22-.47.34-.71.25-.47.52-.94.82-1.38.14-.21.3-.42.45-.63.04-.05-.39.46-.06.08.09-.11.18-.22.27-.33.78-.92,1.66-1.76,2.58-2.53.17-.14,1.02-.8.4-.33.28-.21.56-.42.85-.63.61-.44,1.24-.85,1.87-1.25,1.39-.87,2.82-1.67,4.28-2.41,3.97-2.04,7.33-3.42,11.33-4.98,5.4-2.11,10.88-4.03,16.36-5.91,1.57-.54,3.15-1.07,4.73-1.6,1.67-.56,2.14-2.14,1.49-3.67-2.01-4.73-4.16-9.47-6.95-13.79-1.85-2.86-4.05-5.69-6.99-7.51-5.08-3.14-10.72-1.37-15.65,1.1-6.78,3.39-13.14,7.52-20.1,10.57-.25.11-.5.22-.75.32-.13.06-.67.28,0,0-.15.06-.31.13-.46.19-.57.23-1.14.47-1.72.69-1.16.45-2.34.89-3.52,1.29-2.57.89-5.19,1.65-7.83,2.3-2.89.71-5.82,1.27-8.77,1.7-.16.02-1.21.17-.65.09-.41.05-.81.1-1.22.15-.87.1-1.74.19-2.61.28-1.7.16-3.4.27-5.11.35-18.11.79-35.9-2.79-53.18-8.13-2.73-.84-5.45-1.74-8.15-2.67-1.28-.44-2.73.5-3.08,1.75-.38,1.37.47,2.63,1.75,3.08,18.17,6.27,37.28,10.89,56.6,11.08,12.31.12,24.68-1.73,36.21-6.1,7.83-2.97,14.97-7.11,22.28-11.12,1.31-.72,2.63-1.42,3.98-2.05.29-.13.58-.26.87-.39.52-.24-.61.24-.09.04.17-.07.34-.14.5-.2.59-.23,1.19-.44,1.8-.61.54-.16,1.09-.27,1.65-.38.71-.14-.69.03.21-.02.29-.02.57-.04.86-.04.25,0,.49.01.74.03.12,0,.25.04.37.03.07,0-.73-.14-.15-.02.54.12,1.06.26,1.58.43.26.08.58.38-.17-.08.11.07.24.1.36.16.26.14.52.27.78.42.27.16.52.34.78.51.2.13.6.53-.08-.07.14.12.29.23.42.34.53.44,1.02.93,1.49,1.43.27.29.53.59.79.89.12.15.24.29.36.44.46.56-.23-.33.12.15,2.66,3.69,4.74,7.71,6.63,11.84.62,1.35,1.21,2.7,1.79,4.06l1.49-3.67c-10.49,3.52-21.11,7.03-31.13,11.77-5.52,2.61-11.32,5.8-14.85,10.95-2.92,4.25-3.18,9.38-2.48,14.34.93,6.61,3.2,13.03,5.16,19.38,3.06,9.95,5.87,19.95,8.07,30.13.34,1.57.66,3.13.97,4.71l2.41-3.16c-16.34-1.5-32.76-1.42-49.1,0-11.45.99-22.78,2.81-34.2,4.06-3.75.41-7.55.77-11.33.58-.39-.02-.78-.05-1.17-.08-.34-.03-1.49-.22-.54-.05-.68-.12-1.35-.22-2.02-.39-.29-.08-.59-.16-.88-.26-.35-.11-1.21-.64-.38-.12-.48-.3-1.03-.52-1.52-.82-.11-.07-.21-.17-.33-.23-.21-.1.56.5.13.1-.21-.2-.43-.38-.63-.59-.18-.19-.33-.41-.52-.6.67.67.03.02-.16-.29-.14-.24-.27-.49-.4-.73-.11-.22-.25-.75.04.13-.05-.17-.13-.33-.19-.49-.22-.62-.39-1.27-.51-1.92-.03-.17-.05-.34-.09-.5-.11-.59.06.65,0,.04-.03-.39-.08-.77-.1-1.16-.05-.84-.05-1.68-.02-2.51.04-.98.12-1.95.23-2.92.03-.25.06-.5.09-.75.06-.56-.1.61,0,.05.02-.1.03-.21.04-.31.09-.59.18-1.19.29-1.78,1.03-5.88,2.68-11.65,4.43-17.34,2.55-8.29,5.43-16.47,8.38-24.62.88-2.44,1.77-4.87,2.67-7.31.38-1.03-.25-2.3-1.15-2.82-3.69-2.16-7.49-4.11-11.38-5.87-2.28-1.03-4.67-1.95-6.83-3.23-.37-.22-.71-.48-1.08-.71.74.46.11.08-.08-.09-.15-.14-.29-.29-.44-.44-.07-.07-.13-.16-.2-.23-.31-.26.32.55.14.19-.07-.14-.19-.28-.28-.42-.1-.17-.17-.38-.28-.54-.23-.34.16.62.09.21-.02-.1-.08-.21-.11-.31-.11-.41-.18-.84-.29-1.24-.13-.46.04.65.02.16,0-.13-.03-.27-.04-.4-.03-.31-.04-.62-.05-.93-.03-1.4.08-2.81.22-4.2.23-2.26.46-3.71.83-6.15.46-3.03.95-6.05,1.43-9.08.21-1.33-.34-2.69-1.75-3.08-1.19-.33-2.86.4-3.08,1.75Z"/>
        </g>
        <g>
          <path class="cls-7" d="m95.41,304.88c.12,14.32-.29,28.65-.76,42.96-.52,15.92-1.19,31.83-1.93,47.74-.35,7.53-.71,15.07-1.08,22.6-.16,3.22,4.84,3.21,5,0,.7-14.31,1.38-28.62,1.97-42.93.66-15.91,1.25-31.83,1.59-47.75.16-7.54.26-15.08.2-22.62-.03-3.22-5.03-3.22-5,0h0Z"/>
          <path class="cls-7" d="m94.82,419.53c-11.34-6.63-46.82-17.75-51.43.17,11.12,15.06,36.31,3.13,51.43-.17Z"/>
        </g>
        <g>
          <path class="cls-6" d="m60.57,319.13c46.59-2.94,97.04-13.79,142.05,1.91-8.54-16.49-9.98-68.47-24.87-75.71-115.98,10.1-96.78-28.95-117.17,73.81Z"/>
          <path class="cls-7" d="m60.57,321.63c18.61-1.19,37.13-3.51,55.71-5.01,18.44-1.48,37.06-2.2,55.48-.02,10.27,1.22,20.42,3.45,30.19,6.84,2.19.76,3.75-1.87,2.82-3.67-.2-.39-.4-.79-.58-1.2-.09-.2-.18-.4-.26-.6.26.59-.1-.26-.15-.39-.4-1-.75-2.02-1.09-3.05-.76-2.36-1.4-4.77-1.98-7.18-1.36-5.65-2.44-11.36-3.53-17.06-2.19-11.4-4.06-23.22-8.44-34.03-1.62-4.01-3.62-8.26-6.95-11.17-.73-.64-1.53-1.26-2.39-1.73-1.67-.9-3.72-.38-5.55-.23-3.56.28-7.12.53-10.69.74-11.74.69-23.5.95-35.26.74-8.08-.14-16.15-.55-24.23-.89-5.19-.21-10.48-.49-15.65.17-4.09.52-7.98,1.7-11.12,4.48-3.23,2.85-5.07,6.98-6.47,10.96-2.15,6.14-3.4,12.6-4.66,18.97-2.02,10.2-3.83,20.43-5.79,30.64-.61,3.17-1.23,6.34-1.86,9.51-.26,1.32.38,2.7,1.75,3.08,1.23.34,2.81-.42,3.08-1.75,2.99-15.08,5.51-30.25,8.7-45.29.94-4.42,1.93-8.85,3.37-13.14.29-.85.59-1.7.93-2.54.07-.17.14-.34.21-.51s-.26.59.02-.05c.16-.36.33-.73.5-1.08.62-1.27,1.39-2.4,2.15-3.59.06-.09-.45.53-.02.04.09-.11.18-.22.27-.32.21-.25.44-.49.67-.73.21-.21.42-.41.64-.61.16-.14.89-.73.48-.41s.29-.2.45-.31c.26-.18.53-.34.8-.5.25-.15.51-.28.77-.41.12-.06.24-.11.36-.17.56-.27.12-.04,0,0,1.27-.37,2.46-.83,3.77-1.08.34-.07.69-.12,1.03-.18.23-.04.88-.1-.08,0,.2-.02.4-.05.6-.07.81-.09,1.62-.16,2.43-.21,9.39-.55,18.89.44,28.27.77,16.82.58,33.65.27,50.44-.94,2.67-.19,5.34-.41,8.01-.64l-1.26-.34c.37.18.73.39,1.08.62.15.1.3.21.46.32-.22-.16-.13-.12.19.17.67.6,1.28,1.25,1.86,1.94.39.47-.18-.28.17.23.13.18.26.36.39.55.32.46.62.94.91,1.42.56.95,1.07,1.93,1.54,2.93.61,1.29.76,1.67,1.3,3.07.46,1.22.89,2.45,1.29,3.69.89,2.74,1.64,5.52,2.33,8.32,2.96,11.96,4.72,24.17,7.48,36.17,1.2,5.23,2.52,10.59,4.99,15.39l2.82-3.67c-17.65-6.12-36.41-8.28-55.02-8.39-18.88-.11-37.7,1.8-56.46,3.66-10.4,1.03-20.8,2.06-31.23,2.73-1.35.09-2.5,1.09-2.5,2.5,0,1.29,1.15,2.59,2.5,2.5Z"/>
        </g>
        <path class="cls-7" d="m208.99,147.56c16.49-9.32,33.22-18.21,50.19-26.63,4.84-2.4,9.69-4.76,14.56-7.09,1.22-.58,1.54-2.32.9-3.42-.73-1.25-2.2-1.48-3.42-.9-17.09,8.17-33.96,16.78-50.59,25.85-4.74,2.59-9.46,5.21-14.16,7.87-2.8,1.58-.28,5.9,2.52,4.32h0Z"/>
        <path class="cls-7" d="m72.81,160.17c-17.59-7.33-34.88-15.37-51.84-24.06l.9,3.42c6.1-8.4,10.72-17.81,13.73-27.75.93-3.09-3.89-4.41-4.82-1.33-2.89,9.54-7.37,18.49-13.22,26.55-.76,1.05-.22,2.85.9,3.42,17.35,8.89,35.04,17.07,53.04,24.56,1.25.52,2.75-.56,3.08-1.75.4-1.44-.49-2.55-1.75-3.08h0Z"/>
        <g>
          <g>
            <g>
              <g>
                <path class="cls-1" d="m176.53,27.42c56.89,34.17,10.24,133.94-52.46,118.77C42.8,110.75,96.45-11.91,176.53,27.42Z"/>
                <path class="cls-3" d="m119.45,59.15c-20.64-.32-23.94,37.36-7.02,43.96,27.81,8.55,31.11-41.22,7.02-43.96Z"/>
              </g>
              <path class="cls-7" d="m171.89,60.53c-26.78-2.65-32.57,49.29-1.78,46.52,24.03,1.85,21.29-40.7,1.78-46.52Z"/>
              <path class="cls-5" d="m165.86,103.84c-25.39-6.42,9.13-28.59,16.39-14.62,0,8.56-1.92,14.62-16.39,14.62Z"/>
              <path class="cls-5" d="m172.97,64.68c13.53,7.03-4.89,13.04-9.56,6.54-5.07-6.12,6.16-8.21,9.56-6.54Z"/>
            </g>
            <path class="cls-5" d="m113.99,99.23c5.27,1.26,13.12-.17,15.18-5.74,13.19-25.61-39.02-.16-15.18,5.74Z"/>
            <path class="cls-5" d="m119.76,75.71c21.82-.97-6.55-22.41-6.84-6.63,1.03,3.27,3.21,6.48,6.84,6.63Z"/>
          </g>
          <path class="cls-7" d="m131.54,119.88c8.14,0,16.27,0,24.41,0,3.22,0,3.22-5,0-5-8.14,0-16.27,0-24.41,0-3.22,0-3.22,5,0,5h0Z"/>
        </g>
        <g>
          <g>
            <path class="cls-7" d="m7.18,74.15c-17.23,46.92,16.17,35.88,49.29,40.78,8.55-2.26,34.7-102.84,22.83-103.68C.17-9.43,21.13,4.93,7.18,74.15Z"/>
            <path class="cls-7" d="m4.77,73.48c-4.18,11.43-9.76,29.96,3.75,37.54,5.04,2.83,11.05,3.58,16.71,4.08,7.02.63,14.07.71,21.1,1.23,1.85.14,3.71.3,5.56.5.96.1,1.91.22,2.87.34.43.06,1.78.33,2.51.11,1.39-.41,2.39-1.59,3.22-2.7,2.1-2.83,3.45-6.26,4.77-9.49,4.4-10.77,7.62-22.07,10.56-33.32,3.2-12.23,6.01-24.63,7.77-37.16.68-4.87,1.29-9.79,1.26-14.72-.02-2.91-.09-6.48-1.81-8.98-.44-.64-.99-1.22-1.68-1.61-.31-.17-.66-.32-1-.42-.09-.03-.18-.03-.27-.05.38.08-1.03-.24-.6-.1.19.06-.81-.25-1-.3-4.43-1.15-8.88-2.28-13.33-3.34-6.92-1.65-13.88-3.22-20.93-4.2-7.97-1.11-17.73-2.2-24.44,3.28-5.73,4.67-7.04,13.04-8.03,19.91-.79,5.52-1.35,11.07-1.98,16.62-.38,3.33-.77,6.66-1.21,9.98s-1,7.19-1.58,10.73c-.66,4.03-1.39,8.06-2.19,12.06-.27,1.32.38,2.7,1.75,3.08,1.23.34,2.81-.42,3.08-1.75,2.28-11.36,3.88-22.83,5.19-34.34.48-4.24.92-8.49,1.46-12.72.03-.22.06-.43.08-.65.02-.14.13-.96.03-.25.06-.45.12-.89.19-1.34.13-.88.26-1.76.41-2.64.26-1.54.55-3.08.9-4.61.31-1.34.68-2.67,1.13-3.97.1-.3.21-.6.33-.89.05-.13.11-.27.16-.4.09-.27-.27.58,0-.02.24-.53.49-1.06.78-1.58s.56-.96.88-1.42c.07-.1.15-.2.22-.31.32-.47-.28.31-.06.08.18-.2.34-.41.52-.61.36-.41.75-.79,1.16-1.15.09-.08.19-.15.28-.24.35-.32-.46.31-.13.1.24-.15.46-.33.7-.49.46-.3.93-.56,1.42-.8.29-.14.96-.37.22-.12.29-.1.58-.23.87-.33.58-.2,1.17-.36,1.76-.5.31-.07.63-.14.95-.2.15-.03.3-.05.46-.08.11-.02.81-.12.34-.06-.43.06.53-.06.72-.08.39-.04.78-.07,1.17-.09.78-.05,1.57-.07,2.35-.07,1.82,0,3.65.11,5.46.29,1.01.1,2.03.22,3.04.35.44.06-.29-.04.29.04.25.04.51.07.76.11.6.09,1.2.18,1.79.28,2.52.41,5.03.88,7.52,1.39,6.19,1.27,12.33,2.75,18.45,4.3,1.79.45,3.58.91,5.36,1.38.86.22,1.7.43,2.58.58-1.11-.18-.42-.07-.18.02-.4-.16-.58-.32-.21-.05.28.2-.61-.53-.11-.05.43.41-.24-.48-.06-.08.07.15.18.31.26.45.34.57-.13-.46.01,0,.06.22.15.43.21.65.14.47.22.96.31,1.44.15.81-.04-.5.04.27.03.3.06.59.09.89.05.68.08,1.36.1,2.04.07,3.35-.21,6.7-.58,10.03-.11,1.02-.24,2.04-.37,3.06-.08.59.03-.2-.03.25-.03.24-.07.48-.1.72-.08.56-.16,1.12-.24,1.68-.33,2.21-.7,4.41-1.09,6.6-1.75,9.8-3.99,19.52-6.52,29.14-2.36,8.99-4.96,17.93-8.09,26.69-.64,1.78-1.3,3.56-2,5.31-.15.37-.3.74-.45,1.11-.07.18-.15.36-.22.54-.22.54.19-.43-.09.22-.3.7-.6,1.39-.92,2.08-.54,1.16-1.1,2.31-1.74,3.42-.26.46-.54.91-.84,1.35-.12.17-.25.34-.36.51-.24.37.39-.42.16-.21-.08.08-.15.18-.22.27-.05.05-.65.71-.69.67-.08-.08.72-.41.15-.15-.45.21.75-.24.22-.09h1.33c-6.35-.93-12.75-1.35-19.16-1.66-2.9-.14-5.79-.26-8.68-.44-1.36-.08-2.71-.18-4.07-.3-.63-.06-1.26-.12-1.89-.19-.31-.03-.62-.07-.93-.11-.18-.02-1.21-.16-.7-.09-2.3-.32-4.59-.75-6.82-1.42-.49-.15-.98-.31-1.46-.49-.24-.09-.47-.18-.7-.27-.12-.05-.44-.19.08.04-.14-.06-.28-.12-.42-.19-.88-.42-1.74-.87-2.54-1.42-.19-.13-.37-.26-.56-.4.45.32.02.01-.16-.14-.36-.31-.71-.64-1.04-.98-.15-.16-.3-.33-.45-.5-.08-.08-.14-.17-.22-.26-.22-.26.28.38.08.1-.28-.4-.56-.79-.8-1.22s-.44-.83-.64-1.26c.27.59-.03-.08-.09-.25-.11-.29-.21-.59-.3-.89-.14-.47-.26-.95-.36-1.43-.06-.27-.1-.54-.15-.81-.01-.08-.07-.52-.03-.19.05.36-.03-.24-.03-.31-.72-7.69,1.81-15.34,4.47-22.65.46-1.27-.52-2.74-1.75-3.08-1.39-.38-2.61.47-3.08,1.75Z"/>
          </g>
          <path class="cls-2" d="m68.1,48.8c-9.86.93-15.66-11.08-15.93-19.7,8.09,93.97-59.35,40.66-15.72,25.08"/>
        </g>
      </g>
    </g>
  </g>
</svg>