<?xml version="1.0" encoding="UTF-8"?>
<svg id="Layer_2" data-name="Layer 2" xmlns="http://www.w3.org/2000/svg" viewBox="0 0 70.79 63.61">
  <defs>
    <style>
      .cls-1 {
        fill: #231f20;
      }

      .cls-1, .cls-2, .cls-3, .cls-4 {
        stroke-width: 0px;
      }

      .cls-2 {
        fill: #ede9ba;
      }

      .cls-3 {
        fill: #c1be67;
      }

      .cls-4 {
        fill: #c76d61;
      }
    </style>
  </defs>
  <g id="Layer_3" data-name="Layer 3">
    <g id="Bakgrunn_poster" data-name="Bakgrunn poster">
      <g>
        <g>
          <path class="cls-1" d="M67.26,27.31c.52-12.05-44.79-40.05-43.8-18.72-5.69,13.69-12.4,27.02-18.42,40.6-9.6,17.35,12.94,8.66,20.29,4-.1,6.2,5.61,3.75,4.23-1.44,1.15-.36,2.25-.88,3.39-1.28-.83,16.55,9.51,11.43,6.36-2.54,7.49-5.82,29.66-9.29,27.95-20.62ZM29.45,50.1c-.34-2.42,1.97-3.52,3.14-1.22-1.05.41-2.09.81-3.14,1.22Z"/>
          <path class="cls-2" d="M37.85,50.39c1.65,11.86-4.38,9.71-3.34-.62-.79-8.05-8.16-4.1-6.41,2.46-.02,1.11-.23,3.7-1.37,1.28.72-7.44-8.02-2.72-11.37-1.08-2.11.97-12.92,5.82-10.25.32,6.64-14.38,13.53-28.73,19.75-43.26,12.74,2.55,27.65,9.64,33.95,21.47-7.14,6.17-22.34,7.56-20.96,19.43Z"/>
          <path class="cls-1" d="M31.65,15.43c-5.62-3.42-11.63,6.62-6.47,10.14,6.8,3.46,13.33-5.64,6.47-10.14ZM32.05,23.32c-8.5,5.62-9.82-7.35-1.81-6.8,2.39.85,3.74,4.9,1.81,6.8Z"/>
          <path class="cls-1" d="M25.52,39.52c-.9-6.09-10.33-4.16-9.57,1.66.72,7.29,10.33,4.82,9.57-1.66ZM21.81,43.82c-4.05,2.14-6.03-5.35-1.94-6.31,4.34-1.38,5.29,4.49,1.94,6.31Z"/>
          <path class="cls-1" d="M44,24.41c-3.08-1.09-5.75.82-6.95,3.6-2.15,6.05,7.63,8.24,9.82,2.9,1.11-2.73-.06-5.51-2.87-6.5ZM45.5,29.96c-1.23,3.87-8.33,2.78-6.91-1.46,1.26-4.23,8.26-3.24,6.91,1.46Z"/>
          <path class="cls-4" d="M32.05,23.32c-8.5,5.62-9.82-7.35-1.81-6.8,2.39.85,3.74,4.9,1.81,6.8Z"/>
          <path class="cls-4" d="M45.5,29.96c-1.23,3.87-8.33,2.78-6.91-1.46,1.26-4.23,8.26-3.24,6.91,1.46Z"/>
          <path class="cls-4" d="M21.81,43.82c-4.05,2.14-6.03-5.35-1.94-6.31,4.34-1.38,5.29,4.49,1.94,6.31Z"/>
          <path class="cls-4" d="M32.44,6.14c2.26-.74,14.22,7.08,12.04,2.97-1.5-1.1-14.37-7.24-12.04-2.97Z"/>
          <path class="cls-4" d="M46.97,12.41c1.04,0,1.04-1.62,0-1.62s-1.04,1.62,0,1.62Z"/>
          <path class="cls-3" d="M53.72,38.82c-4.77,2.34-9.52,4.73-14.23,7.2,4.02-7.15,14.62-8.43,20.65-13.99,1.29-1.53-.71-4.8,2.43-6.05,1.69-.85,2.68.21,3.13,1.76,1.35,6.01-7.68,8.96-11.98,11.08Z"/>
          <path class="cls-3" d="M5.71,57.47c4.95-.56,15.52-7.45,19.01-5.76-3.53,1.72-14.68,8.01-19.01,5.76Z"/>
          <path class="cls-3" d="M36.36,4.03c10.99,3.16,22.64,9.59,28.26,20.19-2.35-.73-4.99,1.41-5.48,3.64-8.01-10.53-21.29-17.72-34.25-19.98-2.62-6.73,8.13-4.76,11.47-3.85Z"/>
        </g>
        <path class="cls-1" d="M22.97,7.34C11.05,20.75,5.4,38.04.09,54.84c-.38,1.21.45,2.83,1.75,3.08,4.32.81,8.09-1.04,11.74-3.17,1.58-.92,3.32-2,4.9-2.65,1.79-.73,3.48-1.08,5.23-.71l-1.75-1.75c.36,1.89,1.39,4.01,3.09,5.04s3.81.78,5.13-.67c1.04-1.14,1.2-2.64,1.37-4.11.01-.11.15-1.05.05-.45.04-.23.19-.58.18-.81-.15.3-.16.33-.03.09-.11.18-.26.31-.44.41-.42.22-.77.1-.1.17l-2.41-1.84c1.25,3.37.72,7.12,1.89,10.72.62,1.91,1.68,3.69,3.43,4.77,2.28,1.41,4.94.3,6.08-2.02s.87-4.5.65-6.88c-.18-2-.32-4.01-.27-6.02.02-.71.06-1.43.14-2.14.05-.49,0-.05,0,.04.03-.2.06-.39.1-.59.06-.3.13-.6.21-.89.07-.24.16-.48.24-.72.11-.34-.28.56-.04.09.05-.09.08-.19.13-.27.11-.19.22-.38.33-.57.36-.64-.28.22.16-.23.3-.3.58-.59.9-.86-.59.5-.04.04.13-.07.23-.15.46-.29.7-.43.93-.54,1.91-.97,2.88-1.42,2.74-1.25,5.43-2.58,7.94-4.27.78-.53,1.55-1.08,2.3-1.65,1.32-1.01,1.32-2.38,1.19-3.88-.17-2-.66-3.86-1.49-5.68-1.53-3.35-4.22-5.98-7.15-8.14-6.88-5.07-15.45-7.47-23.46-10.08-3.07-1-4.38,3.83-1.33,4.82,4.9,1.6,9.97,3.13,14.58,5.22,2.42,1.09,4.79,2.34,6.98,3.85,1.72,1.19,3.74,3.04,4.83,4.66,1.51,2.24,2.14,4.42,2.08,7.06l1.24-2.16c-2.42,1.85-5.01,3.43-7.75,4.76-1.83.89-3.75,1.61-5.5,2.65-4.21,2.49-5.32,6.77-5.34,11.42-.01,2.09.15,4.18.35,6.26.09.88.24,2.05.13,2.76-.04.28-.3,1.1-.3,1.07-.05.37-.15.02.31-.01l1.26.34c-1.01-.45-1.33-.89-1.64-1.63-.41-.99-.67-2.44-.79-3.27-.37-2.64-.34-5.44-1.28-7.97-.43-1.15-1.22-1.7-2.41-1.84-3.21-.36-4.3,2.55-4.6,5.14-.03.23-.05.45-.07.68-.08.61.09-.32-.04.21-.03.14-.06.27-.09.4-.08.23-.08.25,0,.06.08-.18.07-.17-.03.03.1-.18.24-.32.42-.42.17-.08.71.02.8-.06.08-.07-.06-.05-.11-.2-.21-.65-.54-1.15-.68-1.85-.15-.8-.96-1.58-1.75-1.75-4.49-.95-8.52.71-12.36,2.92-1.69.97-3.34,2.02-5.12,2.83-.59.27-1.56.6-2.38.77-.41.08-1.58.1-2.01.02l1.75,3.08c5.03-15.92,10.28-32.57,21.59-45.29,2.13-2.4-1.39-5.95-3.54-3.54h0Z"/>
        <path class="cls-1" d="M25.24,8.04c.07-.32.21-.64.27-.96.07-.34-.28.45-.01.04.1-.15.2-.35.29-.51.17-.33.11-.13-.09.09.11-.12.22-.26.33-.38.1-.1.23-.2.32-.3.32-.36-.44.24,0,0,.26-.14.54-.3.79-.46.44-.27-.43.11-.04,0,.18-.05.35-.13.53-.18.33-.1.66-.17.99-.25.09-.02.71-.12.27-.05s.34-.03.46-.04c.83-.06,1.66-.05,2.49,0,.43.03.86.08,1.29.13.29.03-.18-.02-.19-.03.13.02.26.04.38.06.26.04.52.09.78.13,2.09.39,4.14.97,6.14,1.67,4.16,1.45,8.25,3.46,12.32,5.99,1.02.63,2.03,1.3,3.01,1.99.45.32.89.64,1.33.96.11.08.62.47.48.36-.11-.08.44.35.56.44,1.63,1.31,3.19,2.72,4.59,4.28.34.38.67.77.99,1.17.23.29-.19-.28.17.22.14.19.28.39.41.58.27.4.52.81.75,1.23.1.19.2.38.3.57.04.09.33.72.16.34s.11.29.14.4c.06.18.12.37.17.55s.08.37.13.55c.15.58.02-.3,0,0-.01.33-.02.73.01,1.05.02.23.15-.59-.01.04-.05.19-.09.37-.15.56h4.82c-.29-1.94-1.02-4-2.77-5.08-1.58-.98-3.45-.74-5.07,0-2.88,1.33-5.3,4.22-6.84,6.92s2.72,5.32,4.32,2.52c.62-1.09,1.03-1.63,1.73-2.43.41-.46.83-.9,1.29-1.32.22-.2.44-.4.68-.59.14-.11.13-.11-.02.01.13-.09.26-.18.39-.27.2-.12.39-.23.59-.35.37-.21-.27.06.36-.14.39-.12.42.06.07-.04.39.11-.42-.3.19.04-.16-.02-.29-.08-.39-.19-.15-.13-.14-.12.03.04.18.2.18.19,0-.02.08.13.16.27.23.41-.13-.4.13.46.13.45.12.45.2.9.27,1.36.16,1.07,1.41,1.84,2.41,1.84,1.12,0,2.08-.78,2.41-1.84,1.17-3.73-.71-7.52-2.95-10.41-2.93-3.8-6.79-6.85-10.77-9.48-4.36-2.89-9.06-5.27-13.95-7.11C38.68,1.1,34.15-.19,29.74.02s-8.37,2.2-9.33,6.69c-.67,3.14,4.15,4.48,4.82,1.33h0Z"/>
        <path class="cls-1" d="M3.28,59.94c3.72,2.44,7.81,1.9,11.63.03,1.65-.81,3.21-1.8,4.82-2.69.38-.21.75-.41,1.14-.6.23-.11.46-.23.69-.33,0,0,.72-.3.33-.15.84-.33,1.7-.58,2.59-.73,1.33-.22,2.08-1.87,1.75-3.08-.39-1.41-1.74-1.97-3.08-1.75-3.54.59-6.55,2.75-9.64,4.42-.37.2-.74.39-1.12.58-.19.09-.37.18-.56.26-.4.19.05-.01-.19.08-.73.28-1.48.52-2.26.64-.39.06.56,0-.13,0-.19,0-.38.02-.57.01s-.39-.01-.58-.03c.37.04.04,0-.15-.04-.98-.24-1.23-.37-2.14-.96-1.13-.74-2.76-.23-3.42.9-.71,1.22-.24,2.68.9,3.42h0Z"/>
        <path class="cls-1" d="M40.89,49.61c1.89-1.35,4.07-2.32,6.17-3.3,2.82-1.33,5.67-2.6,8.47-3.99s5.58-2.86,8.13-4.66c2.22-1.57,4.51-3.42,5.82-5.87,1.48-2.76,1.38-5.89-.37-8.51s-6.11-.16-4.32,2.52c.15.22.28.46.42.68.35.57.02-.1.13.25.07.22.13.44.19.67.18.65.09-.33.03.33-.02.21-.02.44-.03.65.04-.56.02-.14-.07.14-.07.21-.14.43-.22.64.22-.57-.05.06-.17.27-.12.21-.26.41-.39.62-.07.11-.15.21-.22.31-.21.29.27-.32.03-.05-.38.44-.77.87-1.2,1.27s-.88.79-1.35,1.17c-.38.3-.13.1-.05.04-.13.1-.25.19-.38.28-.33.24-.66.47-1,.7-4.84,3.27-10.28,5.57-15.55,8.03-2.24,1.05-4.59,2.07-6.61,3.51-1.1.78-1.62,2.18-.9,3.42.63,1.08,2.32,1.69,3.42.9h0Z"/>
      </g>
    </g>
  </g>
</svg>