<?xml version="1.0" encoding="UTF-8"?>
<svg id="Layer_2" data-name="Layer 2" xmlns="http://www.w3.org/2000/svg" viewBox="0 0 214.64 184.46">
  <defs>
    <style>
      .cls-1 {
        fill: #231f20;
      }

      .cls-1, .cls-2, .cls-3 {
        stroke-width: 0px;
      }

      .cls-4 {
        fill: #dcddde;
      }

      .cls-4, .cls-5 {
        stroke: #231f20;
        stroke-miterlimit: 10;
        stroke-width: 4.6px;
      }

      .cls-2 {
        fill: #f3f4f4;
      }

      .cls-5 {
        fill: #daedf4;
      }

      .cls-3 {
        fill: #fff;
      }
    </style>
  </defs>
  <g id="Layer_3" data-name="Layer 3">
    <g>
      <g>
        <path class="cls-2" d="M163.46,49.62c10.49-15.49-7.59-36.08-24.31-27.6,2.66-10.04-8.04-19.71-18.43-19.7-41.45,21.49-29.42-7.72-64.99,4.83-4.52,3.29-6.76,10.18-3.43,14.67-8.95,6.79-23.81-2.26-33.06,3.68-9.79,6.15-6.59,20.99-2.21,31.69-10.56,3.58-13.04,17.14-13.76,28.27-6.87,34.68,24.33,38.52,51.08,34.78,16.68,13.68,37.63,8,56.18-2.71,1.91,24.36,37.45,18.59,38.17-3.99,45.67,79.2,109.22-52.93,14.76-63.91Z"/>
        <path class="cls-1" d="M165.44,50.78c4.17-6.24,4.38-14.07,1.03-20.71-3.06-6.07-9.12-10.93-15.9-12.03-4.36-.7-8.64.01-12.59,1.99l3.38,2.6c2.98-11.64-8.3-21.55-19.07-22.54-.69-.06-1.52-.18-2.19.01-.89.25-1.77.86-2.6,1.28-1.38.69-2.77,1.36-4.18,1.99-.59.27-1.18.53-1.78.79-.08.03-.54.23-.2.09-.14.06-.28.12-.42.18-.31.13-.62.26-.94.38-1.13.45-2.27.88-3.42,1.27-1.87.64-3.78,1.19-5.72,1.58-.42.09-.84.16-1.26.23-.21.04-.43.07-.64.1-.29.05,0,.1.19-.02-.07.05-.26.03-.34.04-.76.09-1.52.15-2.28.17-.67.02-1.34,0-2.01-.03-.3-.02-.59-.04-.89-.08-.14-.02-.29-.05-.43-.05.82.03.2.03-.02,0-1.13-.18-2.24-.47-3.33-.83-.52-.18-1.03-.37-1.54-.58-.19-.07-.61-.29.12.05-.11-.05-.23-.1-.34-.15-.25-.11-.51-.22-.76-.34-.96-.44-1.92-.91-2.88-1.36-2.18-1.03-4.41-1.97-6.76-2.52-2.99-.7-6.09-.84-9.14-.54-4.49.44-8.95,1.56-13.19,3.11-2.56.94-4.6,3.88-5.66,6.29-1.14,2.61-1.62,5.46-.98,8.27.29,1.27.85,2.51,1.6,3.56l.83-3.15c-.44.32-.89.62-1.36.89-.23.13-.47.25-.71.37-.12.06-.24.11-.36.16.3-.13.09-.04-.09.03-.47.17-.94.32-1.42.44-.26.07-.52.12-.78.18-.16.03-1.09.18-.58.11-2.27.3-4.59.19-6.87-.01-4.68-.41-9.41-1.35-14.11-.75s-9.22,3.07-11.78,7.33c-2.39,3.97-2.84,8.86-2.41,13.38.52,5.47,2.09,10.77,4.15,15.84l1.61-2.83c-4.15,1.44-7.46,4.27-9.78,7.98s-3.57,7.87-4.39,12.05c-.44,2.27-.75,4.57-.98,6.86-.11,1.05-.22,2.12-.27,3.18,0,.02-.04.36,0,.13.04-.28-.05.21-.06.27-.05.27-.1.55-.15.82-.1.57-.19,1.14-.27,1.72-.59,4.23-.72,8.44.01,12.66,1.15,6.64,4.83,12.36,10.34,16.22s12.38,5.56,19.02,6.34c7.26.86,14.64.55,21.88-.32,1.07-.13,2.13-.27,3.2-.42l-2.24-.59c6.47,5.27,14.18,8.32,22.54,8.69s15.94-1.63,23.29-4.59c4.53-1.83,8.91-4.01,13.14-6.44l-3.46-1.99c.38,4.59,1.86,9.05,5.05,12.46,2.65,2.84,6.34,4.68,10.15,5.3,8.06,1.31,16.81-1.68,22.18-7.9,3.36-3.89,5.21-8.72,5.39-13.85l-4.29,1.16c3.8,6.58,8.35,12.98,14.13,17.97,4.23,3.65,9.2,6.66,14.73,7.78,4.67.95,9.55.61,14.01-1.12s8.56-4.64,11.89-8.2c3.51-3.74,6.32-8.13,8.4-12.81,2.31-5.19,3.78-10.63,4.43-16.28s.37-11.26-.84-16.73-3.57-11.05-6.88-15.76c-3.76-5.35-8.65-9.79-14.24-13.17-6.69-4.04-14.25-6.58-21.91-8.02-2.31-.44-4.64-.77-6.97-1.04-1.24-.14-2.3,1.16-2.3,2.3,0,1.36,1.06,2.16,2.3,2.3.31.04.62.07.93.11.15.02.88.12.3.04.57.08,1.14.16,1.71.25,1.08.17,2.16.35,3.23.56,2.04.4,4.06.87,6.06,1.42,1.84.51,3.66,1.1,5.45,1.77.4.15.8.3,1.2.46.21.08.42.17.62.25.11.05.23.09.34.14.42.17-.45-.2,0,0,.8.35,1.59.7,2.37,1.08,2.98,1.44,5.84,3.15,8.48,5.15.07.05.17.17.26.19-.02,0-.46-.36-.16-.12.15.12.3.24.45.36.31.25.62.5.93.76.57.48,1.13.98,1.67,1.49,1.09,1.02,2.13,2.1,3.1,3.22.48.55.93,1.12,1.39,1.69.17.22-.31-.41-.15-.19.06.08.12.16.18.23.09.12.19.25.28.37.23.31.45.63.67.94.79,1.14,1.53,2.33,2.2,3.55s1.25,2.43,1.8,3.69c.13.3-.23-.57,0,.02.06.15.13.31.19.46.13.33.26.66.38.99.24.64.46,1.29.66,1.94.41,1.3.76,2.61,1.05,3.94.14.64.27,1.29.38,1.94.06.32.11.65.16.97.02.14.04.29.06.43.08.58-.07-.59.01.09.32,2.65.44,5.31.34,7.98-.05,1.31-.15,2.63-.31,3.93-.02.16-.04.32-.06.48,0,.07-.02.14-.03.21-.05.42.08-.53.03-.24-.05.34-.1.67-.15,1.01-.1.64-.21,1.27-.34,1.9-.5,2.57-1.19,5.1-2.07,7.56-.21.59-.43,1.18-.66,1.76-.11.28-.2.61-.35.87.37-.61.12-.29.03-.07-.08.17-.15.35-.23.52-.51,1.14-1.06,2.26-1.65,3.35s-1.22,2.16-1.9,3.2c-.32.5-.66.99-1,1.47-.17.24-.34.48-.52.72-.09.12-.17.24-.26.35-.05.06-.1.13-.15.19-.22.3.37-.46.12-.16-1.45,1.8-2.99,3.51-4.72,5.04-.43.37-.86.74-1.3,1.09-.19.15-.57.33.07-.05-.1.06-.19.15-.29.22-.24.18-.49.36-.73.53-.89.62-1.81,1.2-2.76,1.72-.48.26-.96.5-1.45.73-.24.11-.48.21-.72.32-.31.14.61-.25.15-.06-.13.05-.27.11-.4.16-1,.39-2.02.71-3.05.96-.5.12-1.01.23-1.52.31-.14.02-.29.05-.43.07-.42.07-.08-.01.18-.02-.29,0-.58.07-.86.09-1.07.1-2.14.11-3.21.05-.55-.03-1.11-.15-1.65-.15.28,0,.58.09.16.02-.14-.02-.27-.04-.41-.06-.29-.05-.57-.1-.86-.16-1.15-.24-2.28-.56-3.38-.96-.28-.1-.55-.21-.83-.32-.12-.05-.24-.12-.37-.15.74.2.22.09,0,0-.58-.26-1.15-.53-1.72-.83-1.18-.62-2.31-1.31-3.41-2.06-.28-.2-.56-.4-.84-.6-.14-.1-.28-.21-.42-.31-.55-.41.32.26-.14-.11-.57-.45-1.14-.92-1.69-1.4-1.21-1.06-2.36-2.18-3.46-3.35-1.19-1.27-2.32-2.59-3.4-3.95-.09-.12-.55-.72-.15-.19-.12-.16-.25-.32-.37-.49-.31-.41-.62-.83-.92-1.25-.57-.78-1.12-1.58-1.65-2.38-1.15-1.72-2.24-3.48-3.27-5.27-1.17-2.03-4.21-1.07-4.29,1.16-.02.52-.05,1.04-.11,1.56-.01.13-.03.27-.05.4,0-.06.09-.54.02-.13-.05.26-.08.52-.13.78-.19.99-.45,1.96-.79,2.9-.08.21-.16.42-.24.63-.13.37.04-.09.06-.13-.06.14-.12.27-.18.41-.19.43-.4.84-.63,1.25-.46.83-.98,1.61-1.54,2.38.29-.4.08-.1-.09.1-.15.19-.31.37-.46.55-.31.36-.64.71-.98,1.04-.3.3-.62.59-.94.87-.16.14-.32.28-.49.41-.09.08-.19.15-.28.22-.34.28.4-.29.02-.01-1.48,1.06-2.99,1.95-4.65,2.69.67-.3-.09.03-.23.09-.17.07-.35.13-.53.2-.44.16-.88.3-1.33.43-.85.25-1.71.45-2.58.6-.08.01-.63.15-.68.11.04.03.54-.06.2-.03-.11.01-.23.03-.34.04-.45.05-.91.08-1.37.1-.86.03-1.72.02-2.57-.06-.2-.02-.4-.04-.6-.06-.39-.03.19.03.21.03-.13,0-.27-.04-.4-.06-.42-.07-.83-.15-1.24-.24-.84-.19-1.65-.45-2.45-.76-.54-.2.27.13-.05-.02-.2-.09-.4-.18-.59-.28-.39-.19-.77-.4-1.15-.63-.34-.2-.66-.42-.98-.65-.07-.05-.14-.11-.21-.15-.38-.26.34.28.1.08-.18-.16-.38-.3-.56-.46-.35-.31-.69-.63-1.01-.97-.17-.18-.33-.36-.49-.55s-.5-.65-.15-.17c-.61-.85-1.16-1.72-1.62-2.66-.08-.16-.38-.89-.13-.26-.1-.26-.21-.52-.3-.78-.19-.52-.35-1.04-.49-1.58-.15-.59-.28-1.18-.38-1.78-.03-.21-.13-1-.07-.41-.04-.36-.08-.71-.11-1.07-.14-1.7-1.86-2.91-3.46-1.99-6.19,3.57-12.38,6.51-19.21,8.46-1.63.47-3.29.87-4.95,1.19-.82.16-1.64.3-2.47.42-.48.07-.23.03-.13.02-.25.03-.49.06-.74.09-.41.05-.82.09-1.23.12-1.62.14-3.26.19-4.89.14-.81-.03-1.61-.08-2.42-.15-.4-.04-.8-.08-1.2-.13.11.01.37.06-.11-.02-.24-.04-.48-.07-.72-.11-1.6-.27-3.17-.65-4.71-1.14-1.67-.53-2.77-.98-4.27-1.72s-3.03-1.66-4.44-2.64c-.73-.51-1.25-.92-1.9-1.44-.79-.63-1.41-.7-2.42-.57-.12.02-.25.03-.37.05.57-.08,0,0-.13.02-4.93.64-9.91,1.01-14.88.98-2.42-.02-4.83-.13-7.24-.38-.59-.06-1.17-.13-1.75-.2-.43-.05.02,0,.09.01-.17-.03-.35-.05-.52-.07-.29-.04-.57-.09-.86-.13-1.12-.18-2.24-.4-3.35-.66-2.13-.49-4.19-1.16-6.23-1.95-.52-.2.47.21-.03-.01-.1-.04-.19-.08-.29-.13-.24-.11-.48-.21-.71-.33-.47-.22-.93-.45-1.38-.7-.89-.48-1.76-1-2.59-1.58-.21-.14-.41-.29-.61-.44-.1-.07-.2-.15-.3-.22-.27-.19.44.36.05.04s-.77-.63-1.13-.96c-.73-.66-1.42-1.38-2.06-2.13-.16-.19-.31-.38-.47-.58.44.54-.1-.14-.18-.25-.29-.41-.57-.83-.83-1.26-.54-.88-1-1.8-1.42-2.74.28.62-.07-.18-.13-.33-.1-.25-.19-.5-.27-.76-.18-.52-.34-1.05-.48-1.58s-.28-1.1-.39-1.66c-.06-.29-.11-.57-.16-.86-.03-.2-.15-1.02-.07-.45-.32-2.62-.33-5.26-.09-7.89.03-.36.07-.73.11-1.09.02-.18.04-.37.07-.55.05-.43-.08.55.02-.17.11-.77.24-1.54.38-2.3.29-1.55.34-3.13.49-4.7.07-.72.15-1.44.24-2.15.02-.14.04-.29.06-.43-.07.51.03-.21.04-.25.05-.36.11-.72.16-1.08.23-1.44.51-2.86.85-4.28s.74-2.75,1.22-4.09c.12-.33.24-.65.37-.98,0,.02.25-.61.12-.3s.14-.31.13-.29c.28-.62.58-1.23.91-1.82s.66-1.15,1.04-1.71c.18-.27.38-.54.57-.8.05-.07.27-.34,0,0,.12-.15.25-.3.37-.45.42-.49.87-.96,1.34-1.4.24-.22.48-.42.73-.64.07-.06.34-.27,0,0,.15-.12.31-.23.47-.34.54-.37,1.1-.71,1.68-1.01.3-.15.6-.3.91-.43-.44.19.47-.16.6-.21,1.07-.37,2.1-1.62,1.61-2.83-1.74-4.27-3.16-8.72-3.84-13.29,0-.06-.07-.51-.03-.23.03.26-.01-.1-.01-.12-.03-.29-.07-.57-.09-.86-.06-.6-.1-1.2-.13-1.8-.05-1.07-.04-2.13.05-3.2.02-.27.05-.53.08-.8,0-.1.06-.45,0,.02.02-.13.04-.26.06-.39.08-.51.19-1.02.32-1.53.12-.46.25-.92.41-1.38.08-.24.17-.47.27-.71s-.04.09-.05.12c.08-.17.16-.34.24-.51.21-.42.44-.83.69-1.23.12-.19.24-.37.36-.55.07-.1.15-.2.22-.3-.29.39-.02.02.05-.05.32-.36.64-.72.98-1.05.19-.18.38-.35.58-.52.1-.08.2-.17.31-.25-.26.2-.05.04.1-.06.42-.29.84-.56,1.29-.81.23-.13.47-.24.71-.36.08-.04.41-.17,0,0,.15-.06.31-.12.46-.18.97-.35,1.98-.58,3-.74-.49.07.25-.02.4-.04.27-.03.55-.05.82-.06.56-.03,1.12-.04,1.67-.04,1.15,0,2.3.08,3.44.17,2.31.2,4.61.51,6.92.73,5.08.48,10.67.43,14.94-2.75.92-.69,1.62-2.05.83-3.15-.27-.37-.5-.76-.72-1.17-.05-.09-.09-.19-.13-.28.02.04.12.32.04.07s-.18-.52-.25-.78c-.05-.2-.09-.4-.14-.6-.02-.1-.04-.2-.05-.3.02.1.03.44,0,0s-.04-.9-.02-1.35c0-.14.07-.77.01-.33.03-.21.07-.42.11-.63.1-.49.23-.97.39-1.45.07-.2.15-.41.23-.61-.15.37.12-.25.17-.34.23-.46.48-.9.75-1.33.12-.18.24-.36.37-.54.15-.21,0,0-.03.03.09-.11.18-.23.28-.34.33-.39.68-.75,1.05-1.1.16-.15.33-.28.49-.43.41-.38-.65.19-.06.04.51-.13,1.02-.35,1.52-.51,1.76-.57,3.54-1.08,5.34-1.5.76-.18,1.52-.34,2.29-.48.36-.07.72-.13,1.08-.18.16-.03.32-.05.49-.07.58-.09-.38.04.18-.02,1.27-.15,2.54-.25,3.82-.25.58,0,1.16.02,1.74.05.26.02.53.04.79.06.12.01.24.02.36.04.06,0,.12.01.18.02.39.04-.09,0-.21-.03.92.26,1.92.33,2.85.58.86.23,1.7.51,2.53.83.2.08.39.15.58.23.1.04.21.09.31.13-.24-.08-.51-.22-.15-.06.39.17.78.34,1.16.52,1.48.69,2.94,1.42,4.44,2.06,3.87,1.65,7.88,2.45,12.1,2.05,7.13-.68,13.91-3.55,20.3-6.65,1.14-.55,2.28-1.13,3.41-1.71l-1.16.31c.45,0,.9.02,1.36.05.23.02.45.04.68.07-.4-.04.42.07.51.08.94.17,1.86.41,2.77.71.22.07.43.15.65.23.11.04.58.22.47.18s.35.16.46.21c.24.11.48.23.72.35.89.45,1.74.97,2.55,1.54.19.13.37.27.55.4-.26-.19.18.15.25.2.38.31.75.64,1.1.98s.69.68,1.02,1.04c.15.17.3.33.44.5.07.08.14.17.21.26.24.29-.18-.24.05.06.55.73,1.04,1.5,1.46,2.3.12.22.23.45.33.68.04.1.09.2.13.29-.02-.04-.12-.3-.03-.06.16.43.32.87.44,1.31.13.48.23.96.32,1.45,0,.03.05.38.02.11s.01.18.02.22c.02.25.04.5.04.74.01.54-.01,1.08-.07,1.61-.03.27,0-.03.01-.07-.02.15-.05.29-.07.43-.06.29-.12.58-.2.87-.52,2.03,1.61,3.48,3.38,2.6.19-.1.39-.19.59-.29.04-.02.69-.3.23-.11.39-.16.78-.31,1.18-.44.8-.27,1.62-.48,2.44-.63.16-.03.32-.05.49-.08.64-.11-.48.03.16-.02.39-.03.77-.07,1.16-.08.79-.03,1.59,0,2.38.07.16.02.31.03.47.05-.59-.08.04.01.13.03.37.06.74.14,1.1.23.79.19,1.56.43,2.32.72.12.04.23.09.35.14-.52-.21.05.03.14.06.34.15.67.32,1,.49.72.38,1.41.8,2.07,1.26.26.18.51.36.76.55-.44-.33.06.05.12.1.14.12.29.24.43.36.61.53,1.2,1.1,1.75,1.69.21.23.42.46.62.7.12.14.24.29.36.43.4.48-.27-.38.1.13.47.66.93,1.33,1.33,2.03.34.6.64,1.21.93,1.83.27.56-.17-.44.06.14.07.17.14.35.2.52.15.41.29.82.41,1.24.19.66.35,1.32.48,1.99.03.18.06.37.09.55-.1-.59,0,.03.01.13.05.43.08.87.09,1.31.03.82-.02,1.64-.09,2.46-.05.64.09-.48-.02.15-.04.25-.08.51-.13.76-.09.45-.2.89-.32,1.33-.11.38-.23.76-.37,1.13-.07.19-.14.38-.21.56-.1.25-.1.25,0,.01-.06.12-.11.25-.17.37-.42.9-.91,1.75-1.46,2.57-.69,1.03-.2,2.55.83,3.15,1.13.66,2.46.21,3.15-.83Z"/>
      </g>
      <g>
        <path class="cls-1" d="M90.67,103.67c-9.68-13.07,25.51-13.86,16.49-.34-5.42-9.14-11.51-9.1-16.49.34Z"/>
        <path class="cls-4" d="M56.59,177.84c.08,5.76-8.97,5.76-8.88,0,3.17-11.04,5.72-11.03,8.88,0Z"/>
        <path class="cls-4" d="M154.81,148.45c.08,5.76-8.97,5.76-8.88,0,3.17-11.04,5.72-11.03,8.88,0Z"/>
        <path class="cls-4" d="M54.02,136.09c.12,8.19-12.75,8.2-12.63,0,4.5-15.69,8.13-15.69,12.63,0Z"/>
        <path class="cls-4" d="M139.56,130.28c.12,8.19-12.75,8.19-12.63,0,4.5-15.69,8.13-15.69,12.63,0Z"/>
        <path class="cls-4" d="M137.97,171.95c.12,8.19-12.75,8.19-12.63,0,4.5-15.69,8.13-15.69,12.63,0Z"/>
        <path class="cls-4" d="M73.6,156.47c.12,8.19-12.75,8.2-12.63,0,4.5-15.69,8.13-15.69,12.63,0Z"/>
        <path class="cls-5" d="M71.73,111.66c.08,5.76-8.97,5.76-8.88,0,3.17-11.04,5.72-11.03,8.88,0Z"/>
        <path class="cls-5" d="M125.34,100.75c.08,5.76-8.97,5.76-8.88,0,3.17-11.04,5.72-11.03,8.88,0Z"/>
        <g>
          <g>
            <path class="cls-1" d="M137.9,56.21c-11.09-28.98-35.49,37.59-7.65,27.56,9.4-4.34,5.44-18.94,7.65-27.56Z"/>
            <path class="cls-3" d="M137.06,56.95c.75,8.1-6.87,7.5-7.69.29-1.29-8.47,7.76-8.53,7.69-.29Z"/>
          </g>
          <g>
            <path class="cls-1" d="M63.86,79.94c-.94-9.92-5.08-31.64,10.38-30.64,15.61,4.47,4.14,49.73-10.38,30.64Z"/>
            <path class="cls-3" d="M78.92,57.39c1.31,9.27-13.98,1.09-8.74-3.85,3.52-3.3,8.3-.61,8.74,3.85Z"/>
            <path class="cls-3" d="M71.46,75.9c.95,3.56-3.87,5.96-5.19,2.05-1.96-4.08,4.49-6.71,5.19-2.05Z"/>
          </g>
        </g>
      </g>
      <path class="cls-3" d="M123.57,72.55c3.7.46,1.83,7.79-1.28,7.28-4.36-.83-2.82-7.49,1.28-7.28Z"/>
    </g>
  </g>
</svg>