<?xml version="1.0" encoding="UTF-8"?>
<svg id="Layer_2" data-name="Layer 2" xmlns="http://www.w3.org/2000/svg" viewBox="0 0 153.43 166.65">
  <defs>
    <style>
      .cls-1 {
        fill: #000;
      }

      .cls-1, .cls-2 {
        stroke-width: 0px;
      }

      .cls-3 {
        fill: #f5ec43;
        stroke: #231f20;
        stroke-miterlimit: 10;
        stroke-width: 4.6px;
      }

      .cls-2 {
        fill: #fff;
      }
    </style>
  </defs>
  <g id="Layer_11" data-name="Layer 11">
    <g>
      <path class="cls-3" d="M56.58,163.51C-28.96,133.11,1.44,112.03,46.74,66.08c16.02-29.75-53.16-21-4.2-36.7,25.12-1.9,22.52,26.03,33.77,27.1,33.41-8.99,5.46-31.15,16.63-47.51,3.05-5.86,16.68-11.52,10.79.07-4.81,13.07,10.95,15.97,14.85,26.11,1.43,7.29-5.76,25.35,9.2,15.66,9.64-4.95,2.68-19.79,11.34-23.09,22.01,4.44,8.44,54.17,1.07,68.6-19.13,9.93-28,8.08-23.37,33.25.08,26.64-37.33,38.13-60.24,33.94Z"/>
      <path class="cls-2" d="M87.22,108.97c-.57,18.66,22.67,12.7,20.02-2.85-3.22-15.41-18.56-10.78-20.02,2.85ZM90.21,137.34c-2.96-27.36-47.62,2.11-11.76,1.55,3.84.01,9.71,3.21,11.76-1.55ZM53.63,107.08c-.72,17.96,18.39,15.03,17.64-1.71.58-14.53-19.94-11.47-17.64,1.71ZM93.36,92.65c11.84-7.88,22.36-28.35,4.36-8.51-.79,2.53-8.41,6.64-4.36,8.51ZM57.33,75.4c-4.17,1.56,2.7,7.08,3.51,9.67,12.17,18.62,4.53-5.73-3.51-9.67Z"/>
      <path class="cls-1" d="M87.22,108.97c1.47-13.64,16.81-18.25,20.02-2.85,2.64,15.56-20.59,21.51-20.02,2.85ZM96.99,111.29c-11.5.85-2.86,8.83,1.95,6.28,6.04-4.32,3.91-4.67-1.95-6.28ZM96.17,102.7c.16,3.52,4.14,5.33,7.49,3.9,1.73-3.65-5.96-11.04-7.49-3.9Z"/>
      <path class="cls-1" d="M90.21,137.34c-2.04,4.76-7.91,1.56-11.75,1.55-35.87.56,8.81-28.9,11.75-1.55Z"/>
      <path class="cls-1" d="M53.63,107.08c-2.29-13.17,18.23-16.24,17.64-1.71.74,16.74-18.36,19.66-17.64,1.71ZM61.65,116.94c3.25-.12,7.26-5.46,5.73-7.9-6.95-1.56-14.71,3.31-5.73,7.9ZM61.97,98.55c-3.64-.56,1.48,8.35,5.54,6.62,1.8-3.04-2.25-7.28-5.54-6.62Z"/>
      <path class="cls-1" d="M93.36,92.65c-4.06-1.86,3.57-5.99,4.36-8.5,18.01-19.87,7.47.64-4.36,8.5Z"/>
      <path class="cls-1" d="M57.33,75.4c8.04,3.96,15.68,28.29,3.51,9.68-.81-2.59-7.68-8.11-3.51-9.68Z"/>
      <path class="cls-2" d="M96.99,111.29c5.86,1.61,8,1.97,1.95,6.28-4.81,2.55-13.45-5.44-1.95-6.28Z"/>
      <path class="cls-2" d="M96.17,102.7c1.53-7.14,9.22.25,7.49,3.9-3.35,1.43-7.34-.38-7.49-3.9Z"/>
      <path class="cls-2" d="M61.65,116.94c-9.85-3.87,1.21-11.13,6.24-7.22-.72,3.27-2.58,6.81-6.24,7.22Z"/>
      <path class="cls-2" d="M61.97,98.55c3.29-.66,7.34,3.58,5.54,6.62-4.07,1.72-9.18-7.18-5.54-6.62Z"/>
    </g>
  </g>
</svg>