<?xml version="1.0" encoding="UTF-8"?>
<svg id="Layer_2" data-name="Layer 2" xmlns="http://www.w3.org/2000/svg" viewBox="0 0 364.95 417.31">
  <defs>
    <style>
      .cls-1 {
        fill: #ad9282;
      }

      .cls-1, .cls-2, .cls-3, .cls-4, .cls-5 {
        stroke-width: 4.6px;
      }

      .cls-1, .cls-2, .cls-3, .cls-4, .cls-5, .cls-6 {
        stroke-miterlimit: 10;
      }

      .cls-1, .cls-3, .cls-4, .cls-5, .cls-6 {
        stroke: #231f20;
      }

      .cls-2 {
        fill: none;
        stroke: #fff;
      }

      .cls-3, .cls-7 {
        fill: #231f20;
      }

      .cls-8 {
        fill: #fff;
        <animate attributeName="fill" values="white;red;green" dur="9s" repeatCount="indefinite" />
      }

      .cls-8, .cls-7 {
        stroke-width: 0px;
      }

      .cls-4 {
        fill: #f5ec43;
      }

      .cls-5 {
        fill: #b6a69e;
      }

      .cls-6 {
        fill: #a1cf6d;
        stroke-width: 4.6px;
      }
    </style>
  </defs>
  <g id="Layer_3" data-name="Layer 3">
    <g>
      <g>
        <path class="cls-1" d="m5.47,117.69c-8.88-7.89,2.62-23.89,13.14-19.16,13.2,8.53-.67,28.9-13.14,19.16Z"/>
        <g>
          <g>
            <path class="cls-7" d="m250.79,298.96c17.92,17.14,30.44,39.1,39.38,62.06,2.52,6.48,4.78,13.06,6.83,19.7.95,3.06,5.78,1.76,4.82-1.33-7.45-24.11-17.67-47.8-33.15-67.9-4.39-5.7-9.15-11.09-14.35-16.06-2.33-2.22-5.87,1.31-3.54,3.54h0Z"/>
            <path class="cls-7" d="m182.1,309.97c5.02,24.72,4.76,50.27,11.06,74.76,1.78,6.93,4.13,13.69,7.11,20.2.56,1.23,2.34,1.53,3.42.9,1.26-.74,1.46-2.19.9-3.42-10.43-22.75-11.44-48.19-14.39-72.64-.85-7.07-1.86-14.13-3.28-21.12-.27-1.32-1.84-2.09-3.08-1.75-1.38.38-2.02,1.75-1.75,3.08h0Z"/>
            <path class="cls-6" d="m158.14,258.4c.03,15.27-.57,49.37-.54,64.64,13.56-8.81,31.45-10.55,46.45-4.52.16-13.53,2.3-27.03,6.34-39.94,5.35,13.56,10.07,27.38,14.12,41.38,15.22-10.95,33.38-17.77,52.04-19.56-20.07-35.95-16.74-71.71-77.59-70.58-12.66,2.37-22.09,21.59-40.83,28.58Z"/>
            <path class="cls-4" d="m90.38,145.2c57.94,39.8,60.69,45.44,57.5,116.91,88.14-46.3,144.98,32.91,83.64-77.05,9.52,2.9,19.03,5.8,28.55,8.7.75-8.93,6.92-29.49,7.67-38.42-17.02-10.59-39.44-9.53-56.46-20.12-8.8,10.44-24.58,11.16-38.09,9.14-49.92-3.52-57.45-46.14-82.81.85Z"/>
            <path class="cls-7" d="m202.43,403.67c-18.81-14.39-48.67-16.82-70.55-7.65-24.94,25.2,56.07,28.4,70.55,7.65Z"/>
            <path class="cls-7" d="m300.14,380.91c10.84-20.09,33.23-40.3,55.86-44.06,9.52,22.49-36.7,46.97-56.25,43.96"/>
          </g>
          <g>
            <g>
              <g>
                <path class="cls-5" d="m227.21,40.11c14.83,32.61-4.7,79.78-38.93,91.07-137.68-.58-58.68-213.15,38.93-91.07Z"/>
                <path class="cls-3" d="m201.72,88.63c17.18-5.89,15.47-43.67-5.17-44.22-24.18,1.73-22.98,51.59,5.17,44.22Z"/>
              </g>
              <path class="cls-7" d="m138.48,44.07c-15.42,12.03-18.74,47.72,5.27,47.59,36.27,5.09,25.82-61.4-5.27-47.59Z"/>
              <path class="cls-8" d="m148.31,87.11c25.64-5.34-7.92-28.95-15.76-15.3-.36,8.56,1.3,14.69,15.76,15.3Z"/>
              <path class="cls-8" d="m142.85,47.68c-18.79,10.49,19.57,13.31,8.53.76-2.84-1.1-6.56-1.46-8.53-.76Z"/>
            </g>
            <path class="cls-8" d="m185.41,78.31c1.82,5.66,9.6,7.41,14.92,6.38,24.07-4.89-27.03-32.52-14.92-6.38Z"/>
            <path class="cls-8" d="m202.67,54.6c.37-15.77-28.87,4.46-7.11,6.34,3.64,0,5.95-3.11,7.11-6.34Z"/>
          </g>
          <path class="cls-7" d="m265.01,177.78c8.46,1.01,16.93,2.24,25.43,2.84,4.19.3,9.05.67,12.9-1.34,3.1-1.62,4.42-4.94,4.96-8.21.84-5.05.93-10.22,1.4-15.31.89-9.66,2.62-19.23,5.17-28.98.82-3.12-4.01-4.44-4.82-1.33-2.31,8.82-4,17.78-5,26.85-.59,5.39-.77,10.82-1.4,16.21-.03.25-.06.49-.09.74.06-.56.05-.36-.01.04-.07.44-.14.88-.23,1.31-.15.74-.36,1.45-.59,2.16-.2.62.05-.07.02-.03-.08.13-.13.28-.2.42-.15.3-.36.57-.52.86-.23.43.47-.48.11-.13-.11.11-.2.24-.31.35-.09.09-.19.17-.28.27-.49.51.4-.21.02,0-.26.14-.49.33-.76.46-.11.06-.33.11-.42.2.3-.3.5-.17-.02-.01-.75.23-1.49.37-2.25.52.97-.19-.41.03-.74.06-.53.04-1.06.06-1.58.07-1.25.02-2.5-.02-3.74-.08-9.04-.48-18.06-1.87-27.05-2.94-1.34-.16-2.5,1.26-2.5,2.5,0,1.48,1.15,2.34,2.5,2.5h0Z"/>
          <path class="cls-7" d="m94.24,130.15c-17.52-5.79-35.31-10.79-53.29-14.93-5.1-1.18-10.22-2.29-15.36-3.33-1.32-.27-2.7.38-3.08,1.75-.34,1.23.42,2.8,1.75,3.08,18.09,3.68,36,8.19,53.67,13.52,5.01,1.51,10.01,3.1,14.98,4.74,3.06,1.01,4.37-3.81,1.33-4.82h0Z"/>
          <g>
            <g>
              <path class="cls-7" d="m287.26,100c-16.84,47.32,15.06,35.55,49.29,40.78,8.23-1.06,34.86-103.99,22.83-103.68-80.04-20.52-57.71-6.79-72.12,62.89Z"/>
              <path class="cls-7" d="m284.85,99.33c-3.99,11.26-9.81,30.02,3.51,37.58,5.02,2.85,11.05,3.53,16.7,4,7.06.59,14.16.67,21.23,1.22,1.92.15,3.84.33,5.75.54.82.09,1.81.22,2.39.3.95.13,2,.44,2.95.18,1.36-.37,2.32-1.45,3.14-2.53,2.08-2.76,3.4-6.13,4.7-9.31,4.37-10.72,7.56-21.97,10.49-33.16,3.23-12.35,6.08-24.86,7.9-37.5.7-4.87,1.33-9.8,1.35-14.72.01-2.95,0-6.59-1.7-9.15-.42-.63-.97-1.23-1.64-1.6-.8-.44-1.33-.38-2.18-.58.58.14-.08-.08-.14-.1-.35-.13-.75-.19-1.12-.28-.55-.14-1.1-.28-1.65-.42-1.24-.31-2.48-.63-3.73-.94-2.22-.55-4.44-1.09-6.66-1.62-7.14-1.7-14.32-3.32-21.58-4.38-8-1.16-18-2.47-24.81,2.99-5.72,4.59-6.95,12.92-7.89,19.73-.76,5.53-1.3,11.08-1.91,16.62-.81,7.28-1.64,13.75-2.83,20.96-.68,4.07-1.43,8.13-2.27,12.17-.27,1.32.38,2.7,1.75,3.08,1.24.34,2.8-.42,3.08-1.75,2.37-11.47,4.01-23.06,5.3-34.7.47-4.26.9-8.52,1.42-12.78.06-.46.11-.91.17-1.37.03-.21.05-.42.08-.62.08-.6-.06.43.04-.3.12-.84.24-1.67.37-2.51.25-1.57.53-3.13.89-4.68.3-1.33.66-2.65,1.11-3.94.1-.29.21-.58.32-.87.05-.13.11-.26.16-.39.18-.47-.26.55,0,0s.5-1.07.78-1.58.58-.96.89-1.42c.07-.1.15-.2.22-.3.05-.07-.42.5-.1.13.18-.21.35-.42.54-.63.36-.39.75-.75,1.15-1.1.59-.52-.4.25.19-.15.23-.15.46-.32.69-.46.46-.28.93-.52,1.41-.76.66-.33-.5.17.27-.11.29-.1.58-.21.87-.3.6-.19,1.21-.35,1.82-.47.29-.06.59-.12.89-.17.17-.03.35-.05.52-.08.39-.07-.61.06.01,0,3.4-.33,6.79-.2,10.18.15.5.05,1,.11,1.5.17.28.03.55.07.83.1.05,0,.4.05.09.01-.36-.05.24.03.3.04,1.15.16,2.3.34,3.45.53,2.55.43,5.09.92,7.62,1.44,6.38,1.32,12.72,2.85,19.04,4.43,1.88.47,3.75,1,5.64,1.43.43.1.89.1,1.32.2-1.11-.25-.44-.06-.2.03-.92-.34-.44-.2-.2-.03-.67-.46-.37-.31-.13-.05.31.34-.35-.67-.08-.08.07.16.17.34.26.49.21.33-.12-.34-.12-.29,0,.08.08.22.11.3.07.22.14.43.2.66.13.49.19.99.29,1.49.07.38-.07-.72-.03-.18.01.13.03.26.04.39.03.32.06.63.08.95.04.68.06,1.35.07,2.03.03,3.42-.28,6.84-.67,10.23-.05.45-.11.9-.16,1.35-.03.26-.07.53-.1.79-.02.13-.03.27-.05.4.03-.2.05-.36,0-.06-.15,1.07-.3,2.13-.47,3.2-.35,2.26-.73,4.52-1.14,6.77-1.79,9.82-4.04,19.56-6.57,29.22-2.36,8.99-4.95,17.93-8.08,26.69-.63,1.77-1.28,3.52-1.98,5.26-.14.36-.29.72-.43,1.07-.08.2-.16.4-.25.59-.15.36.2-.45-.05.12-.3.69-.6,1.39-.92,2.07-.52,1.13-1.08,2.25-1.71,3.32-.25.43-.52.86-.8,1.27-.25.35-.51.53-.03.06-.14.14-.25.31-.38.45-.11.12-.24.22-.34.34-.38.43.53-.35.13-.1-.65.41.63-.09-.06.02h1.33c-6.48-.98-13.01-1.44-19.55-1.75-5.57-.27-11.17-.42-16.71-1.13.55.07-.28-.04-.42-.06-.28-.04-.57-.09-.85-.13-.59-.1-1.17-.2-1.75-.32-1.07-.21-2.13-.47-3.17-.78-.51-.15-1.01-.32-1.51-.5-.23-.08-.45-.17-.68-.26-.5-.19.29.15-.3-.13-.87-.42-1.73-.87-2.53-1.42-.18-.13-.36-.26-.54-.39.44.33.06.04-.13-.12-.37-.32-.72-.66-1.05-1.02-.15-.16-.29-.33-.43-.49-.07-.08-.14-.17-.2-.25.04.05.33.47.1.11-.26-.39-.53-.78-.76-1.19-.11-.2-.22-.4-.32-.6-.04-.08-.34-.76-.2-.41s-.13-.37-.16-.45c-.1-.29-.2-.58-.28-.87-.14-.49-.26-.99-.36-1.5-.05-.26-.09-.53-.13-.8-.06-.37.05.43,0,.05-.02-.18-.04-.35-.06-.53-.3-3.28.05-6.36.63-9.36.88-4.56,2.26-9.01,3.81-13.39.45-1.27-.51-2.74-1.75-3.08-1.38-.38-2.62.47-3.08,1.75Z"/>
            </g>
            <path class="cls-2" d="m347.93,74.3c-9.86.93-15.66-11.08-15.93-19.7,8.09,93.97-59.35,40.66-15.72,25.08"/>
          </g>
        </g>
      </g>
      <path class="cls-7" d="m176.5,111.48c8.14,0,16.27,0,24.41,0,3.22,0,3.22-5,0-5-8.14,0-16.27,0-24.41,0-3.22,0-3.22,5,0,5h0Z"/>
    </g>
  </g>
</svg>