<?xml version="1.0" encoding="UTF-8"?>
<svg id="Layer_2" data-name="Layer 2" xmlns="http://www.w3.org/2000/svg" viewBox="0 0 416.42 460.85">
  <defs>
    <style>
      .cls-1, .cls-2, .cls-3 {
        stroke-width: 0px;
      }

      .cls-4 {
        stroke-width: 4.6px;
      }

      .cls-4, .cls-5 {
        stroke: #231f20;
        stroke-miterlimit: 10;
      }

      .cls-4, .cls-3 {
        fill: #231f20;
      }

      .cls-2 {
        fill: #fff;
      }

      .cls-5 {
        fill: #f5ec43;
        stroke-width: 4.6px;
      }
    </style>
  </defs>
  <g id="Layer_11" data-name="Layer 11">
    <g>
      <path class="cls-5" d="m161.79,389.69c-107.15-57.98-115.2-211.83,4.19-262.56,87.79-47.84,171.32,44.15,138.78,133.19-14.33,56.65-53.76,54.68-63.99,126.25"/>
      <path class="cls-3" d="m350.08,206.13c.03-.37.06-.75.11-1.12.02-.17.04-.34.06-.51s.12-.34-.02.18c.03-.09.03-.19.04-.29.11-.73.24-1.45.4-2.17.3-1.35.68-2.68,1.17-3.97.11-.29.22-.57.34-.86.14-.36-.22.5.02-.05.07-.16.14-.32.21-.47.27-.58.56-1.16.87-1.72.62-1.13,1.31-2.21,2.08-3.24.09-.12.18-.23.26-.35-.42.59-.08.1.03-.03.2-.24.4-.49.6-.72.42-.49.86-.97,1.31-1.44.88-.91,1.81-1.76,2.78-2.57.25-.2.49-.4.74-.6.39-.31-.33.24-.01,0,.15-.12.31-.23.46-.35.52-.38,1.05-.75,1.58-1.11,1.11-.74,2.25-1.44,3.41-2.09s2.37-1.26,3.58-1.84c.64-.3,1.28-.59,1.92-.88.15-.06.29-.13.44-.19.1-.04.58-.25.23-.1-.37.16.15-.06.23-.1.19-.08.38-.16.58-.24,2.62-1.06,5.3-2,8-2.85,5.45-1.73,11-3.13,16.54-4.56,5.05-1.31,10.13-2.61,15.04-4.38.55-.2,1.09-.4,1.63-.61,1.12-.43,2.02-1.56,1.61-2.83-.35-1.09-1.63-2.07-2.83-1.61-4.86,1.88-9.91,3.22-14.94,4.54-5.6,1.46-11.23,2.85-16.77,4.55s-11.11,3.7-16.29,6.42c-4.79,2.51-9.36,5.75-12.83,9.94-3.68,4.46-6.07,9.78-6.87,15.51-.13.89-.23,1.78-.31,2.68-.1,1.2,1.13,2.35,2.3,2.3,1.33-.06,2.2-1.01,2.3-2.3h0Z"/>
      <path class="cls-3" d="m2.78,96.96c-.33,5.96.7,11.96,2.8,17.54s5.18,10.9,8.69,15.81,7.73,9.93,11.88,14.66c4.09,4.66,8.26,9.24,12.19,14.03.47.57.94,1.15,1.4,1.73.24.3.48.6.71.9.1.13.2.26.3.39.07.09.14.17.2.26-.09-.12-.23-.31-.06-.08.9,1.17,1.78,2.36,2.63,3.56,1.65,2.33,3.19,4.75,4.56,7.26.33.6.64,1.21.94,1.82.54,1.08,2.15,1.47,3.15.83,1.1-.71,1.4-1.99.83-3.15-2.62-5.26-6.06-10.05-9.7-14.64s-7.88-9.33-11.92-13.91c-2.07-2.34-4.13-4.69-6.14-7.07-.98-1.16-1.95-2.33-2.91-3.52-.47-.59-.94-1.18-1.41-1.78-.05-.07-.1-.13-.15-.2-.26-.33.03.01.05.07-.06-.14-.21-.28-.31-.4-.24-.31-.47-.62-.7-.93-3.54-4.72-6.74-9.73-9.11-15.15-.03-.07-.07-.14-.09-.22,0,0,.18.43.08.19-.07-.17-.14-.34-.21-.51-.14-.34-.27-.68-.4-1.02-.25-.66-.49-1.32-.71-1.99-.45-1.36-.84-2.74-1.15-4.14-.15-.69-.29-1.38-.41-2.08-.06-.34-.11-.67-.16-1.01-.01-.08-.02-.16-.03-.23-.05-.32.05.46.02.14-.02-.18-.05-.37-.07-.55-.16-1.46-.25-2.93-.25-4.4,0-.74.02-1.47.06-2.21.07-1.2-1.11-2.35-2.3-2.3-1.3.06-2.23,1.01-2.3,2.3h0Z"/>
      <path class="cls-3" d="m289.78,91.54c1.69,1.74,4.19,1.5,6.17.44,2.81-1.5,4.94-4.31,6.73-6.85.31-.44.61-.88.91-1.33.07-.11.36-.62.14-.27.11-.17.27-.33.4-.49.49-.59.99-1.17,1.51-1.74,1-1.11,2.04-2.18,3.12-3.21,2.21-2.12,4.56-4.1,6.97-6,.15-.12.3-.24.45-.36.11-.08.58-.46.12-.1.3-.24.61-.47.92-.7.62-.47,1.24-.93,1.86-1.39,1.27-.94,2.55-1.87,3.84-2.79,2.55-1.83,5.11-3.64,7.64-5.5,5.03-3.7,10.01-7.56,14.3-12.12s7.77-9.76,9.86-15.67c.25-.72.48-1.44.69-2.17.33-1.16-.4-2.56-1.61-2.83s-2.48.37-2.83,1.61c-.21.73-.44,1.46-.69,2.17-.12.33-.24.65-.36.98-.06.15-.12.3-.18.45-.04.1-.08.2-.12.3-.11.29.18-.4.05-.11-.59,1.32-1.22,2.62-1.94,3.87s-1.49,2.44-2.33,3.61c-.2.27-.4.55-.6.82-.05.06-.1.12-.14.19-.19.25.27-.34.07-.09-.11.14-.23.29-.34.43-.46.57-.93,1.13-1.41,1.69-1.92,2.2-4.02,4.24-6.21,6.16-1.12.98-2.26,1.94-3.43,2.87-.58.46-1.15.93-1.74,1.37.36-.27.06-.05-.12.09-.13.1-.26.2-.39.3-.33.25-.66.5-.99.75-4.86,3.65-9.89,7.06-14.74,10.72s-9.6,7.55-13.61,12.15c-.47.54-.93,1.08-1.37,1.64-.74.93-1.34,1.98-2.04,2.94-.12.17-.25.34-.37.5-.27.36-.06.09,0,.01-.06.08-.12.15-.18.23-.27.34-.54.67-.83,1-.49.57-1,1.11-1.55,1.62-.22.2-.44.4-.67.59-.05.04-.1.08-.15.12-.22.19.4-.29.17-.13-.11.08-.22.16-.34.24-.19.13-.39.26-.6.38-.1.06-.2.11-.31.17-.04.02-.09.04-.13.06-.32.18.19-.08.26-.1-.17.04-.34.13-.52.18-.09.02-.18.03-.26.06-.26.09.66-.03.29-.04-.13,0-.31-.02-.44,0,.67-.1.58.12.33.04-.05-.02-.19-.08-.23-.07-.05,0,.55.3.33.14-.05-.04-.12-.08-.18-.1-.3-.15.24.19.27.22-.06-.04-.12-.11-.18-.17-.84-.87-2.42-.91-3.25,0s-.9,2.33,0,3.25h0Z"/>
      <path class="cls-3" d="m174.97,1.67c-3.03,9.88-4,20.28-3.87,30.58.13,10.21,1.27,20.38,2.26,30.53.56,5.72,1.07,11.45,1.33,17.19.06,1.2,1.02,2.36,2.3,2.3,1.2-.05,2.36-1.01,2.3-2.3-.47-10.15-1.71-20.24-2.61-30.35-.89-10.07-1.46-20.23-.51-30.31.07-.7.14-1.39.22-2.09.04-.35.08-.69.13-1.04,0-.05.07-.53.03-.27s.05-.34.05-.39c.2-1.39.42-2.77.69-4.15.55-2.86,1.25-5.69,2.1-8.47.35-1.15-.42-2.56-1.61-2.83-1.25-.28-2.45.37-2.83,1.61h0Z"/>
      <path class="cls-3" d="m1.67,293.41c7.35,1.73,14.96,2.05,22.48,2.38,3.74.16,7.47.32,11.2.65.94.08,1.87.17,2.8.28.43.05.86.1,1.29.15.16.02.74.1.28.04.26.04.52.07.79.11,1.78.26,3.56.59,5.31,1,1.94.46,3.86,1.02,5.73,1.71.45.17.89.35,1.34.53-.47-.19.21.09.33.15.23.1.47.21.7.32.93.44,1.83.91,2.72,1.42,1.04.6,2.57.28,3.15-.83s.29-2.51-.83-3.15c-6.57-3.79-14.04-5.35-21.51-6.14-7.53-.79-15.12-.79-22.66-1.36-1.04-.08-2.07-.17-3.1-.27-.53-.05-1.06-.11-1.59-.17-.26-.03-.53-.06-.79-.1-.1-.01-.2-.03-.29-.04-.45-.06.21.03-.07,0-2.03-.3-4.05-.64-6.05-1.11-1.17-.27-2.55.36-2.83,1.61-.27,1.18.35,2.54,1.61,2.83h0Z"/>
      <path class="cls-4" d="m240.7,387.12c-21.32-8.03-63.17-4.07-78.36,3.59,4.89,13.89,5.51,29.49,7.37,45.75,3.16,7.05-2.66,18.92,9.41,18.18,70.77,15.14,60.48-15,61.58-67.52Z"/>
      <path class="cls-1" d="m243.03,177.23c37.01.88,33.48,81.83-5.83,75.77-40.26-1.16-31.16-79.84,5.83-75.77Zm4.91,43.49c-30.36-.31-32.25,23.59-1.61,21.75,11.11-1.99,19.47-23.52,1.61-21.75Zm-13.87-25.66c-1.14,14.55,15.55,15.19,24.99,11.03,5.2-12.28-26.31-28.73-24.99-11.03Z"/>
      <path class="cls-1" d="m121.4,217.07c.38-14.74,5.1-26.81,14.14-37.32,84.16-23.67,10.35,145.23-14.14,37.32Zm9.29,3.34c-2.66,29.81,45.19,20.98,32.14-3.62-18.82-11.23-26.75,11.01-32.14,3.62Zm18.4-34.29c-16.86,2.34,4.86,19.98,14.14,17.41,10.43-2.99-7.14-19.17-14.14-17.41Z"/>
      <path class="cls-3" d="m174.12,303.74c6.32-24.64,47.43-13.43,45.08,10.05-.58,5.76,8.43,5.72,9,0,3.36-33.66-53.93-46.87-62.76-12.44-1.44,5.61,7.24,8.01,8.68,2.39h0Z"/>
      <path class="cls-2" d="m247.94,220.72c17.86-1.78,9.5,19.78-1.61,21.75-30.65,1.84-28.74-22.06,1.61-21.75Z"/>
      <path class="cls-2" d="m234.07,195.06c-1.32-17.7,30.19-1.25,24.99,11.03-9.44,4.17-26.13,3.52-24.99-11.03Z"/>
      <path class="cls-2" d="m130.69,220.41c5.22,7.39,13.51-14.84,32.14-3.62,13.06,24.6-34.81,33.42-32.14,3.62Z"/>
      <path class="cls-2" d="m149.09,186.12c6.99-1.77,24.58,14.41,14.14,17.41-9.29,2.56-31-15.07-14.14-17.41Z"/>
    </g>
  </g>
</svg>